<svg width="48" height="48" viewBox="0 0 48 48" fill="none" xmlns="http://www.w3.org/2000/svg">
<g clip-path="url(#clip0_8036_96200)">
<g filter="url(#filter0_ddii_8036_96200)">
<path fill-rule="evenodd" clip-rule="evenodd" d="M27.1428 13.6665C28.579 13.6681 29.9542 14.2546 30.967 15.2944C31.9795 16.3339 32.5475 17.7415 32.549 19.2079V28.4495C32.549 29.9164 31.9815 31.325 30.9685 32.3649C29.9553 33.4051 28.5792 33.9912 27.1425 33.9912C25.7057 33.9912 24.3296 33.4051 23.3164 32.3649C22.3035 31.325 21.7359 29.9164 21.7359 28.4495V19.2082C21.7375 17.7418 22.3055 16.3339 23.318 15.2944C24.3308 14.2546 25.7066 13.6681 27.1428 13.6665ZM15.74 13.6665C17.1768 13.6665 18.5529 14.2525 19.5661 15.2928C20.579 16.3327 21.1466 17.7413 21.1466 19.2082C21.1466 19.613 20.99 20.003 20.7087 20.2918C20.427 20.5809 20.0432 20.7451 19.641 20.7451C19.2388 20.7451 18.8549 20.5809 18.5733 20.2918C18.2919 20.003 18.1354 19.613 18.1354 19.2082V19.2017C18.1418 18.8723 18.0842 18.5451 17.966 18.2393C17.8478 17.9335 17.6716 17.6555 17.4481 17.4214C17.2247 17.1874 16.9585 17.002 16.6654 16.8756C16.3723 16.7492 16.0579 16.6842 15.7406 16.6842C15.4232 16.6842 15.1089 16.7492 14.8158 16.8756C14.5227 17.002 14.2565 17.1874 14.033 17.4214C13.8095 17.6555 13.6333 17.9335 13.5151 18.2393C13.3969 18.5451 13.3393 18.8723 13.3457 19.2017L13.3458 19.2082L13.3457 28.4559C13.3393 28.7854 13.3969 29.1126 13.5151 29.4184C13.6333 29.7242 13.8095 30.0022 14.033 30.2362C14.2565 30.4703 14.5227 30.6557 14.8158 30.7821C15.1089 30.9085 15.4232 30.9735 15.7406 30.9735C16.0579 30.9735 16.3723 30.9085 16.6654 30.7821C16.9585 30.6557 17.2247 30.4703 17.4481 30.2362C17.6716 30.0022 17.8478 29.7242 17.966 29.4184C18.0842 29.1126 18.1419 28.7854 18.1355 28.4559L18.1353 28.4495C18.1353 28.0447 18.2919 27.6547 18.5733 27.3659C18.8549 27.0767 19.2388 26.9126 19.641 26.9126C20.0432 26.9126 20.427 27.0767 20.7087 27.3659C20.99 27.6547 21.1466 28.0447 21.1466 28.4495C21.1466 29.9164 20.579 31.325 19.5661 32.3649C18.5529 33.4051 17.1768 33.9912 15.74 33.9912C14.3033 33.9912 12.9272 33.4051 11.914 32.3649C10.901 31.325 10.3335 29.9164 10.3335 28.4495V19.2082C10.335 17.7418 10.903 16.3339 11.9155 15.2944C12.9284 14.2546 14.3038 13.6681 15.74 13.6665ZM25.9542 16.2634C26.3303 16.1012 26.7345 16.0175 27.143 16.0175C27.5515 16.0175 27.9557 16.1012 28.3318 16.2634C28.7079 16.4256 29.0481 16.6629 29.3328 16.9611C29.6174 17.2592 29.8408 17.6121 29.9903 17.9989C30.1394 18.3847 30.2121 18.7968 30.2045 19.2113V28.4495C30.2035 29.2777 29.8827 30.0737 29.3098 30.662C28.7365 31.2505 27.9575 31.5832 27.1429 31.5842C26.3285 31.5829 25.5488 31.25 24.9758 30.6615C24.4031 30.0733 24.0825 29.2778 24.0815 28.4498V19.2113C24.0739 18.7968 24.1466 18.3847 24.2957 17.9989C24.4453 17.6121 24.6686 17.2592 24.9533 16.9611C25.2379 16.6629 25.5781 16.4256 25.9542 16.2634ZM34.8024 25.3873C35.3504 25.2739 35.9674 25.2841 36.5091 25.579C36.7061 25.6863 36.933 25.8307 37.084 26.0058C37.4449 26.424 37.6504 26.9576 37.6667 27.5134L37.667 27.5231L37.6668 27.5565C37.6409 28.2036 37.4492 28.8328 37.1108 29.3807L36.382 30.8761C36.3024 31.0491 36.1816 31.2666 36.0686 31.47C36.0187 31.5597 35.9704 31.6467 35.9278 31.7259C35.8891 31.798 35.8546 31.8643 35.8254 31.9238C35.8349 31.9227 35.8447 31.9216 35.8547 31.9204C36.0119 31.9017 36.221 31.9218 36.429 31.9238C37.1272 31.9307 37.6331 32.4471 37.6331 33.1058C37.6331 33.4608 37.4594 33.7663 37.2416 33.9758C37.0274 34.1818 36.7309 34.3331 36.429 34.3331H34.4743C34.4383 34.3331 34.3961 34.3339 34.3504 34.3348C34.242 34.3369 34.1136 34.3394 33.9999 34.3323C33.825 34.3215 33.6237 34.2877 33.4318 34.1792C33.2494 34.0761 33.0971 33.9269 32.989 33.747C32.8809 33.5671 32.8203 33.3622 32.8125 33.1523C32.8048 32.9439 32.8493 32.7367 32.9421 32.5503C33.2034 31.9938 33.4734 31.4104 33.736 30.84C33.8904 30.5052 34.0437 30.1702 34.1972 29.8349L34.2009 29.8269L34.9842 28.2287C35.0133 28.1635 35.0423 28.0908 35.0674 28.017C35.0406 28.0355 35.0123 28.0549 34.982 28.0754C34.8685 28.1519 34.73 28.2405 34.5912 28.2969C34.292 28.4185 33.9576 28.4131 33.6624 28.282C33.3675 28.151 33.1381 27.9064 33.0218 27.6047C32.9055 27.3033 32.9107 26.9672 33.0361 26.6695L33.0378 26.6656C33.1072 26.5068 33.2229 26.3461 33.3327 26.2114C33.714 25.7435 34.2656 25.4984 34.8024 25.3873Z" fill="white"/>
</g>
</g>
<defs>
<filter id="filter0_ddii_8036_96200" x="-3.14286" y="-3.14286" width="55.1429" height="55.1429" filterUnits="userSpaceOnUse" color-interpolation-filters="sRGB">
<feFlood flood-opacity="0" result="BackgroundImageFix"/>
<feColorMatrix in="SourceAlpha" type="matrix" values="0 0 0 0 0 0 0 0 0 0 0 0 0 0 0 0 0 0 127 0" result="hardAlpha"/>
<feOffset dx="2.57143" dy="2.57143"/>
<feGaussianBlur stdDeviation="4.71429"/>
<feComposite in2="hardAlpha" operator="out"/>
<feColorMatrix type="matrix" values="0 0 0 0 1 0 0 0 0 0.14902 0 0 0 0 0.658824 0 0 0 1 0"/>
<feBlend mode="normal" in2="BackgroundImageFix" result="effect1_dropShadow_8036_96200"/>
<feColorMatrix in="SourceAlpha" type="matrix" values="0 0 0 0 0 0 0 0 0 0 0 0 0 0 0 0 0 0 127 0" result="hardAlpha"/>
<feOffset dx="-2.57143" dy="-2.57143"/>
<feGaussianBlur stdDeviation="4.28571"/>
<feComposite in2="hardAlpha" operator="out"/>
<feColorMatrix type="matrix" values="0 0 0 0 1 0 0 0 0 1 0 0 0 0 1 0 0 0 0.4 0"/>
<feBlend mode="normal" in2="effect1_dropShadow_8036_96200" result="effect2_dropShadow_8036_96200"/>
<feBlend mode="normal" in="SourceGraphic" in2="effect2_dropShadow_8036_96200" result="shape"/>
<feColorMatrix in="SourceAlpha" type="matrix" values="0 0 0 0 0 0 0 0 0 0 0 0 0 0 0 0 0 0 127 0" result="hardAlpha"/>
<feOffset dy="-1.28571"/>
<feGaussianBlur stdDeviation="0.985714"/>
<feComposite in2="hardAlpha" operator="arithmetic" k2="-1" k3="1"/>
<feColorMatrix type="matrix" values="0 0 0 0 1 0 0 0 0 0.219608 0 0 0 0 0.298039 0 0 0 0.4 0"/>
<feBlend mode="normal" in2="shape" result="effect3_innerShadow_8036_96200"/>
<feColorMatrix in="SourceAlpha" type="matrix" values="0 0 0 0 0 0 0 0 0 0 0 0 0 0 0 0 0 0 127 0" result="hardAlpha"/>
<feOffset dy="-0.428571"/>
<feGaussianBlur stdDeviation="0.557143"/>
<feComposite in2="hardAlpha" operator="arithmetic" k2="-1" k3="1"/>
<feColorMatrix type="matrix" values="0 0 0 0 1 0 0 0 0 1 0 0 0 0 1 0 0 0 0.6 0"/>
<feBlend mode="normal" in2="effect3_innerShadow_8036_96200" result="effect4_innerShadow_8036_96200"/>
</filter>
<clipPath id="clip0_8036_96200">
<rect width="48" height="48" fill="white"/>
</clipPath>
</defs>
</svg>
