<svg width="41" height="40" viewBox="0 0 41 40" fill="none" xmlns="http://www.w3.org/2000/svg">
<path opacity="0.1" d="M22.8157 3.0937L36.9063 17.1843C37.2331 17.5111 39 19.5378 39 20C39 20.4622 37.2331 22.4889 36.9063 22.8157L22.8157 36.9063C22.4889 37.2331 20.4622 39 20 39C19.5378 39 17.5111 37.2331 17.1843 36.9063L3.0937 22.8157C2.76691 22.4889 1 20.4622 1 20C1 19.5378 2.76691 17.5111 3.0937 17.1843L17.1843 3.0937C17.5111 2.76691 19.5378 1 20 1C20.4622 1 22.4889 2.76691 22.8157 3.0937Z" fill="#11191E"/>
<g filter="url(#filter0_ddii_4803_40569)">
<path d="M14.5169 17.841C14.8478 17.516 15.2967 17.3333 15.7647 17.3333H20.8235V13L29 19.0667L20.8235 25.1333V20.8H17.5294V26H14V19.0667C14 18.607 14.1859 18.1661 14.5169 17.841Z" fill="#11191E"/>
</g>
<defs>
<filter id="filter0_ddii_4803_40569" x="2.85714" y="1.85714" width="38.1429" height="36.1429" filterUnits="userSpaceOnUse" color-interpolation-filters="sRGB">
<feFlood flood-opacity="0" result="BackgroundImageFix"/>
<feColorMatrix in="SourceAlpha" type="matrix" values="0 0 0 0 0 0 0 0 0 0 0 0 0 0 0 0 0 0 127 0" result="hardAlpha"/>
<feOffset dx="2.57143" dy="2.57143"/>
<feGaussianBlur stdDeviation="4.71429"/>
<feComposite in2="hardAlpha" operator="out"/>
<feColorMatrix type="matrix" values="0 0 0 0 1 0 0 0 0 1 0 0 0 0 1 0 0 0 1 0"/>
<feBlend mode="normal" in2="BackgroundImageFix" result="effect1_dropShadow_4803_40569"/>
<feColorMatrix in="SourceAlpha" type="matrix" values="0 0 0 0 0 0 0 0 0 0 0 0 0 0 0 0 0 0 127 0" result="hardAlpha"/>
<feOffset dx="-2.57143" dy="-2.57143"/>
<feGaussianBlur stdDeviation="4.28571"/>
<feComposite in2="hardAlpha" operator="out"/>
<feColorMatrix type="matrix" values="0 0 0 0 1 0 0 0 0 1 0 0 0 0 1 0 0 0 0.4 0"/>
<feBlend mode="normal" in2="effect1_dropShadow_4803_40569" result="effect2_dropShadow_4803_40569"/>
<feBlend mode="normal" in="SourceGraphic" in2="effect2_dropShadow_4803_40569" result="shape"/>
<feColorMatrix in="SourceAlpha" type="matrix" values="0 0 0 0 0 0 0 0 0 0 0 0 0 0 0 0 0 0 127 0" result="hardAlpha"/>
<feOffset dy="-1.28571"/>
<feGaussianBlur stdDeviation="0.985714"/>
<feComposite in2="hardAlpha" operator="arithmetic" k2="-1" k3="1"/>
<feColorMatrix type="matrix" values="0 0 0 0 0 0 0 0 0 0.615385 0 0 0 0 1 0 0 0 0.4 0"/>
<feBlend mode="normal" in2="shape" result="effect3_innerShadow_4803_40569"/>
<feColorMatrix in="SourceAlpha" type="matrix" values="0 0 0 0 0 0 0 0 0 0 0 0 0 0 0 0 0 0 127 0" result="hardAlpha"/>
<feOffset dy="-0.428571"/>
<feGaussianBlur stdDeviation="0.557143"/>
<feComposite in2="hardAlpha" operator="arithmetic" k2="-1" k3="1"/>
<feColorMatrix type="matrix" values="0 0 0 0 1 0 0 0 0 1 0 0 0 0 1 0 0 0 0.6 0"/>
<feBlend mode="normal" in2="effect3_innerShadow_4803_40569" result="effect4_innerShadow_4803_40569"/>
</filter>
</defs>
</svg>
