<svg width="94" height="139" viewBox="0 0 94 139" fill="none" xmlns="http://www.w3.org/2000/svg">
<g filter="url(#filter0_ddi_5036_12816)">
<path d="M12 19C12 13.4772 16.4772 9 22 9L72 9C77.5229 9 82 13.4772 82 19V69C82 74.5229 77.5229 79 72 79H37.3325H29H22C16.4772 79 12 74.5229 12 69L12 19Z" fill="url(#paint0_linear_5036_12816)"/>
<path d="M12.5 19C12.5 13.7533 16.7533 9.5 22 9.5H72C77.2467 9.5 81.5 13.7533 81.5 19V69C81.5 74.2467 77.2467 78.5 72 78.5H37.3325H29H22C16.7533 78.5 12.5 74.2467 12.5 69V19Z" stroke="url(#paint1_linear_5036_12816)"/>
</g>
<path d="M48 114.943L48 79.0223" stroke="url(#paint2_linear_5036_12816)" stroke-width="1.15425" stroke-linecap="square"/>
<mask id="mask0_5036_12816" style="mask-type:alpha" maskUnits="userSpaceOnUse" x="35" y="114" width="26" height="26">
<circle cx="48" cy="127" r="12.3041" fill="white" stroke="#B2E0FF" stroke-width="0.60819"/>
</mask>
<g mask="url(#mask0_5036_12816)">
<g filter="url(#filter1_if_5036_12816)">
<circle cx="48.1521" cy="126.873" r="3.64914" fill="white"/>
</g>
<circle opacity="0.537993" cx="47.9995" cy="127.025" r="9.57899" stroke="#4CCF80" stroke-width="0.60819"/>
<circle cx="48.0003" cy="127.025" r="9.88309" transform="rotate(8 48.0003 127.025)" stroke="#4CCF80" stroke-width="1.21638" stroke-dasharray="15.2"/>
<circle cx="48.0004" cy="127.025" r="8.00209" stroke="#4CCF80" stroke-width="1.21638" stroke-dasharray="0 0.91"/>
</g>
<g filter="url(#filter2_ddii_5036_12816)">
<path d="M34.667 36C34.667 35.264 35.2737 34.6667 35.9897 34.6667H60.011C60.7417 34.6667 61.3337 35.26 61.3337 36V54.6667C61.3337 55.4027 60.727 56 60.011 56H35.9897C35.8152 55.9997 35.6425 55.9649 35.4815 55.8976C35.3205 55.8303 35.1743 55.7319 35.0514 55.6081C34.9285 55.4842 34.8313 55.3372 34.7653 55.1757C34.6994 55.0141 34.666 54.8412 34.667 54.6667V36ZM50.667 52C52.4351 52 54.1308 51.2976 55.3811 50.0474C56.6313 48.7971 57.3337 47.1014 57.3337 45.3333C57.3337 43.5652 56.6313 41.8695 55.3811 40.6193C54.1308 39.369 52.4351 38.6667 50.667 38.6667C48.8989 38.6667 47.2032 39.369 45.953 40.6193C44.7027 41.8695 44.0003 43.5652 44.0003 45.3333C44.0003 47.1014 44.7027 48.7971 45.953 50.0474C47.2032 51.2976 48.8989 52 50.667 52ZM37.3337 37.3333V40H41.3337V37.3333H37.3337ZM37.3337 30.6667H45.3337V33.3333H37.3337V30.6667Z" fill="white"/>
</g>
<defs>
<filter id="filter0_ddi_5036_12816" x="0" y="0" width="94" height="97" filterUnits="userSpaceOnUse" color-interpolation-filters="sRGB">
<feFlood flood-opacity="0" result="BackgroundImageFix"/>
<feColorMatrix in="SourceAlpha" type="matrix" values="0 0 0 0 0 0 0 0 0 0 0 0 0 0 0 0 0 0 127 0" result="hardAlpha"/>
<feOffset/>
<feGaussianBlur stdDeviation="4.5"/>
<feColorMatrix type="matrix" values="0 0 0 0 0.00405063 0 0 0 0 0.96 0 0 0 0 0.131511 0 0 0 0.42 0"/>
<feBlend mode="normal" in2="BackgroundImageFix" result="effect1_dropShadow_5036_12816"/>
<feColorMatrix in="SourceAlpha" type="matrix" values="0 0 0 0 0 0 0 0 0 0 0 0 0 0 0 0 0 0 127 0" result="hardAlpha"/>
<feOffset dy="6"/>
<feGaussianBlur stdDeviation="6"/>
<feColorMatrix type="matrix" values="0 0 0 0 0.00168776 0 0 0 0 0.4 0 0 0 0 0.114543 0 0 0 0.63 0"/>
<feBlend mode="normal" in2="effect1_dropShadow_5036_12816" result="effect2_dropShadow_5036_12816"/>
<feBlend mode="normal" in="SourceGraphic" in2="effect2_dropShadow_5036_12816" result="shape"/>
<feColorMatrix in="SourceAlpha" type="matrix" values="0 0 0 0 0 0 0 0 0 0 0 0 0 0 0 0 0 0 127 0" result="hardAlpha"/>
<feOffset/>
<feGaussianBlur stdDeviation="20.5"/>
<feComposite in2="hardAlpha" operator="arithmetic" k2="-1" k3="1"/>
<feColorMatrix type="matrix" values="0 0 0 0 0.00128102 0 0 0 0 0.922222 0 0 0 0 0.367677 0 0 0 0.67 0"/>
<feBlend mode="normal" in2="shape" result="effect3_innerShadow_5036_12816"/>
</filter>
<filter id="filter1_if_5036_12816" x="43.6763" y="122.397" width="8.95108" height="8.95151" filterUnits="userSpaceOnUse" color-interpolation-filters="sRGB">
<feFlood flood-opacity="0" result="BackgroundImageFix"/>
<feBlend mode="normal" in="SourceGraphic" in2="BackgroundImageFix" result="shape"/>
<feColorMatrix in="SourceAlpha" type="matrix" values="0 0 0 0 0 0 0 0 0 0 0 0 0 0 0 0 0 0 127 0" result="hardAlpha"/>
<feOffset/>
<feGaussianBlur stdDeviation="1.5"/>
<feComposite in2="hardAlpha" operator="arithmetic" k2="-1" k3="1"/>
<feColorMatrix type="matrix" values="0 0 0 0 0 0 0 0 0 0.729412 0 0 0 0 0.290196 0 0 0 1 0"/>
<feBlend mode="normal" in2="shape" result="effect1_innerShadow_5036_12816"/>
<feGaussianBlur stdDeviation="0.413308" result="effect2_foregroundBlur_5036_12816"/>
</filter>
<filter id="filter2_ddii_5036_12816" x="23.5241" y="19.5238" width="49.8098" height="48.4762" filterUnits="userSpaceOnUse" color-interpolation-filters="sRGB">
<feFlood flood-opacity="0" result="BackgroundImageFix"/>
<feColorMatrix in="SourceAlpha" type="matrix" values="0 0 0 0 0 0 0 0 0 0 0 0 0 0 0 0 0 0 127 0" result="hardAlpha"/>
<feOffset dx="2.57143" dy="2.57143"/>
<feGaussianBlur stdDeviation="4.71429"/>
<feComposite in2="hardAlpha" operator="out"/>
<feColorMatrix type="matrix" values="0 0 0 0 0 0 0 0 0 0.670588 0 0 0 0 0.603922 0 0 0 1 0"/>
<feBlend mode="normal" in2="BackgroundImageFix" result="effect1_dropShadow_5036_12816"/>
<feColorMatrix in="SourceAlpha" type="matrix" values="0 0 0 0 0 0 0 0 0 0 0 0 0 0 0 0 0 0 127 0" result="hardAlpha"/>
<feOffset dx="-2.57143" dy="-2.57143"/>
<feGaussianBlur stdDeviation="4.28571"/>
<feComposite in2="hardAlpha" operator="out"/>
<feColorMatrix type="matrix" values="0 0 0 0 1 0 0 0 0 1 0 0 0 0 1 0 0 0 0.4 0"/>
<feBlend mode="normal" in2="effect1_dropShadow_5036_12816" result="effect2_dropShadow_5036_12816"/>
<feBlend mode="normal" in="SourceGraphic" in2="effect2_dropShadow_5036_12816" result="shape"/>
<feColorMatrix in="SourceAlpha" type="matrix" values="0 0 0 0 0 0 0 0 0 0 0 0 0 0 0 0 0 0 127 0" result="hardAlpha"/>
<feOffset dy="-1.28571"/>
<feGaussianBlur stdDeviation="0.985714"/>
<feComposite in2="hardAlpha" operator="arithmetic" k2="-1" k3="1"/>
<feColorMatrix type="matrix" values="0 0 0 0 0 0 0 0 0 0.729412 0 0 0 0 0.290196 0 0 0 0.4 0"/>
<feBlend mode="normal" in2="shape" result="effect3_innerShadow_5036_12816"/>
<feColorMatrix in="SourceAlpha" type="matrix" values="0 0 0 0 0 0 0 0 0 0 0 0 0 0 0 0 0 0 127 0" result="hardAlpha"/>
<feOffset dy="-0.428571"/>
<feGaussianBlur stdDeviation="0.557143"/>
<feComposite in2="hardAlpha" operator="arithmetic" k2="-1" k3="1"/>
<feColorMatrix type="matrix" values="0 0 0 0 1 0 0 0 0 1 0 0 0 0 1 0 0 0 0.6 0"/>
<feBlend mode="normal" in2="effect3_innerShadow_5036_12816" result="effect4_innerShadow_5036_12816"/>
</filter>
<linearGradient id="paint0_linear_5036_12816" x1="-17.4523" y1="23.4668" x2="29.314" y2="102.383" gradientUnits="userSpaceOnUse">
<stop stop-color="#00BA4A" stop-opacity="0.9"/>
<stop offset="0.4418" stop-color="#0A7033" stop-opacity="0.62"/>
<stop offset="0.714844" stop-color="#1E8240" stop-opacity="0.92"/>
<stop offset="1" stop-color="#00BA4A" stop-opacity="0.88"/>
</linearGradient>
<linearGradient id="paint1_linear_5036_12816" x1="-27.0245" y1="31.0033" x2="33.0802" y2="109.052" gradientUnits="userSpaceOnUse">
<stop stop-color="#E5F8ED"/>
<stop offset="0.5" stop-color="#E5F8ED" stop-opacity="0.2"/>
<stop offset="1" stop-color="#E5F8ED"/>
</linearGradient>
<linearGradient id="paint2_linear_5036_12816" x1="48" y1="79" x2="48" y2="115" gradientUnits="userSpaceOnUse">
<stop stop-color="#4CCF80"/>
<stop offset="1" stop-color="#4CCF80" stop-opacity="0"/>
</linearGradient>
</defs>
</svg>
