<svg width="48" height="48" viewBox="0 0 48 48" fill="none" xmlns="http://www.w3.org/2000/svg">
<g clip-path="url(#clip0_8036_96203)">
<g filter="url(#filter0_ddii_8036_96203)">
<path fill-rule="evenodd" clip-rule="evenodd" d="M13.2131 33.6595H34.7871C35.1089 33.6595 35.4172 33.7828 35.6447 34.0022C35.8722 34.2217 36 34.5193 36 34.8297C36 35.14 35.8722 35.4377 35.6447 35.6571C35.4172 35.8766 35.1086 35.9999 34.7869 35.9999H13.2131C12.8914 35.9999 12.5828 35.8766 12.3553 35.6571C12.1278 35.4377 12 35.14 12 34.8297C12 34.5193 12.1278 34.2217 12.3553 34.0022C12.5828 33.7828 12.8914 33.6595 13.2131 33.6595ZM16 30.7934C14.9027 30.5814 13.9392 29.9396 13.1347 29.1639C12.8871 28.9251 12.6392 28.6864 12.3912 28.4479C12.2768 28.3397 12.1858 28.2107 12.1234 28.0684C12.0611 27.926 12.0286 27.7732 12.0278 27.6187C12.027 27.4641 12.058 27.311 12.1189 27.1681C12.1799 27.0252 12.2696 26.8953 12.3829 26.786C12.4961 26.6768 12.6307 26.5902 12.7789 26.5314C12.927 26.4726 13.0858 26.4428 13.246 26.4435C13.4062 26.4443 13.5647 26.4756 13.7122 26.5358C13.8598 26.596 13.9935 26.6838 14.1057 26.7941L14.8064 27.47L16.1397 13.1721C16.1397 12.8618 16.2675 12.5641 16.495 12.3447C16.7225 12.1252 17.0311 12.002 17.3528 12.002C17.6746 12.002 17.9831 12.1252 18.2106 12.3447C18.4381 12.5641 18.5659 12.8618 18.5659 13.1721V29.2003C18.5663 29.5218 18.4677 29.8361 18.2827 30.1034C18.0976 30.3707 17.8344 30.579 17.5265 30.7019C17.2186 30.8247 16.3267 30.8566 16 30.7934ZM31.9262 30.7934C31.5995 30.8566 30.7076 30.8247 30.3997 30.7019C30.0918 30.579 29.8286 30.3707 29.6435 30.1034C29.4585 29.8361 29.3599 29.5218 29.3603 29.2003V13.1721C29.3603 12.8618 29.4881 12.5641 29.7156 12.3447C29.9431 12.1252 30.2516 12.002 30.5734 12.002C30.8951 12.002 31.2037 12.1252 31.4312 12.3447C31.6587 12.5641 31.7865 12.8618 31.7865 13.1721L33.1198 27.47L33.8205 26.7941C33.9327 26.6838 34.0664 26.596 34.214 26.5358C34.3615 26.4756 34.52 26.4443 34.6802 26.4435C34.8404 26.4428 34.9992 26.4726 35.1473 26.5314C35.2955 26.5902 35.4301 26.6768 35.5433 26.786C35.6566 26.8953 35.7463 27.0252 35.8073 27.1681C35.8682 27.311 35.8992 27.4641 35.8984 27.6187C35.8976 27.7732 35.8651 27.926 35.8028 28.0684C35.7404 28.2107 35.6494 28.3397 35.535 28.4479C35.287 28.6864 35.0391 28.9251 34.7915 29.1639C33.987 29.9396 33.0235 30.5814 31.9262 30.7934ZM23.9405 32.1564C24.1917 32.163 24.4284 32.1533 24.5655 32.1268C25.6628 31.9147 26.6263 31.273 27.4308 30.4972C27.6785 30.2584 27.9263 30.0198 28.1743 29.7813C28.2887 29.673 28.3797 29.544 28.4421 29.4017C28.5045 29.2594 28.537 29.1065 28.5377 28.952C28.5385 28.7975 28.5075 28.6443 28.4466 28.5014C28.3856 28.3585 28.2959 28.2286 28.1827 28.1194C28.0694 28.0101 27.9348 27.9236 27.7866 27.8648C27.6385 27.806 27.4797 27.7761 27.3195 27.7768C27.1593 27.7776 27.0009 27.809 26.8533 27.8691C26.7057 27.9293 26.572 28.0171 26.4598 28.1274L25.7924 28.7712L25.0929 13.1721C25.0929 12.8618 24.9651 12.5641 24.7376 12.3447C24.5101 12.1252 24.2015 12.002 23.8798 12.002C23.8754 12.002 23.871 12.002 23.8667 12.002C23.8623 12.002 23.8579 12.002 23.8536 12.002C23.5318 12.002 23.2233 12.1252 22.9958 12.3447C22.7683 12.5641 22.6405 12.8618 22.6405 13.1721L22.0651 28.7584L21.4113 28.1277C21.2991 28.0174 21.1653 27.9296 21.0178 27.8694C20.8702 27.8092 20.7118 27.7779 20.5516 27.7771C20.3914 27.7764 20.2326 27.8063 20.0845 27.865C19.9363 27.9238 19.8017 28.0104 19.6884 28.1196C19.5752 28.2289 19.4854 28.3588 19.4245 28.5017C19.3636 28.6446 19.3326 28.7977 19.3333 28.9523C19.3341 29.1068 19.3666 29.2596 19.429 29.402C19.4914 29.5443 19.5824 29.6733 19.6968 29.7815C19.9448 30.02 20.1926 30.2587 20.4403 30.4975C21.2448 31.2732 22.2083 31.915 23.3056 32.127C23.4445 32.1539 23.6856 32.1636 23.9405 32.1564Z" fill="white"/>
</g>
</g>
<defs>
<filter id="filter0_ddii_8036_96203" x="-3.14286" y="-3.14286" width="55.1429" height="55.1429" filterUnits="userSpaceOnUse" color-interpolation-filters="sRGB">
<feFlood flood-opacity="0" result="BackgroundImageFix"/>
<feColorMatrix in="SourceAlpha" type="matrix" values="0 0 0 0 0 0 0 0 0 0 0 0 0 0 0 0 0 0 127 0" result="hardAlpha"/>
<feOffset dx="2.57143" dy="2.57143"/>
<feGaussianBlur stdDeviation="4.71429"/>
<feComposite in2="hardAlpha" operator="out"/>
<feColorMatrix type="matrix" values="0 0 0 0 0.321569 0 0 0 0 0.435294 0 0 0 0 1 0 0 0 1 0"/>
<feBlend mode="normal" in2="BackgroundImageFix" result="effect1_dropShadow_8036_96203"/>
<feColorMatrix in="SourceAlpha" type="matrix" values="0 0 0 0 0 0 0 0 0 0 0 0 0 0 0 0 0 0 127 0" result="hardAlpha"/>
<feOffset dx="-2.57143" dy="-2.57143"/>
<feGaussianBlur stdDeviation="4.28571"/>
<feComposite in2="hardAlpha" operator="out"/>
<feColorMatrix type="matrix" values="0 0 0 0 1 0 0 0 0 1 0 0 0 0 1 0 0 0 0.4 0"/>
<feBlend mode="normal" in2="effect1_dropShadow_8036_96203" result="effect2_dropShadow_8036_96203"/>
<feBlend mode="normal" in="SourceGraphic" in2="effect2_dropShadow_8036_96203" result="shape"/>
<feColorMatrix in="SourceAlpha" type="matrix" values="0 0 0 0 0 0 0 0 0 0 0 0 0 0 0 0 0 0 127 0" result="hardAlpha"/>
<feOffset dy="-1.28571"/>
<feGaussianBlur stdDeviation="0.985714"/>
<feComposite in2="hardAlpha" operator="arithmetic" k2="-1" k3="1"/>
<feColorMatrix type="matrix" values="0 0 0 0 0 0 0 0 0 0.598039 0 0 0 0 1 0 0 0 0.4 0"/>
<feBlend mode="normal" in2="shape" result="effect3_innerShadow_8036_96203"/>
<feColorMatrix in="SourceAlpha" type="matrix" values="0 0 0 0 0 0 0 0 0 0 0 0 0 0 0 0 0 0 127 0" result="hardAlpha"/>
<feOffset dy="-0.428571"/>
<feGaussianBlur stdDeviation="0.557143"/>
<feComposite in2="hardAlpha" operator="arithmetic" k2="-1" k3="1"/>
<feColorMatrix type="matrix" values="0 0 0 0 1 0 0 0 0 1 0 0 0 0 1 0 0 0 0.6 0"/>
<feBlend mode="normal" in2="effect3_innerShadow_8036_96203" result="effect4_innerShadow_8036_96203"/>
</filter>
<clipPath id="clip0_8036_96203">
<rect width="48" height="48" fill="white"/>
</clipPath>
</defs>
</svg>
