<svg width="368" height="131" viewBox="0 0 368 131" fill="none" xmlns="http://www.w3.org/2000/svg">
<g opacity="0.6">
<g filter="url(#filter0_ddi_5816_39299)">
<path d="M12 19C12 13.4772 16.4772 9 22 9L346 9C351.523 9 356 13.4772 356 19V90.4705C356 95.9934 351.523 100.471 346 100.471H228.466C225.118 100.471 221.993 102.146 220.139 104.933L217.742 108.538C215.888 111.325 212.762 113 209.415 113H22C16.4772 113 12 108.523 12 103L12 19Z" fill="url(#paint0_linear_5816_39299)"/>
<path d="M12.5 19C12.5 13.7533 16.7533 9.5 22 9.5H346C351.247 9.5 355.5 13.7533 355.5 19V90.4705C355.5 95.7172 351.247 99.9705 346 99.9705H228.466C224.951 99.9705 221.669 101.729 219.722 104.656L217.325 108.261C215.564 110.909 212.595 112.5 209.415 112.5H22C16.7533 112.5 12.5 108.247 12.5 103V19Z" stroke="url(#paint1_linear_5816_39299)"/>
</g>
<path opacity="0.72454" fill-rule="evenodd" clip-rule="evenodd" d="M14.8496 33.3408L19.1246 42.3408V76.1124L14.8496 85.1124V33.3408ZM21.2621 44.1408L25.5371 53.1408V65.3124L21.2621 74.3124V44.1408ZM31.9496 59.2266L27.6746 53.1408V65.3124L31.9496 59.2266Z" fill="url(#paint2_linear_5816_39299)"/>
<g filter="url(#filter1_ddi_5816_39299)">
<mask id="path-4-inside-1_5816_39299" fill="white">
<path fill-rule="evenodd" clip-rule="evenodd" d="M229.301 106.671C230.066 105.471 229.204 103.9 227.781 103.9C227.166 103.9 226.593 104.214 226.262 104.733L224.286 107.832C223.521 109.031 224.382 110.603 225.805 110.603C226.421 110.603 226.994 110.289 227.325 109.77L229.301 106.671ZM236.426 106.671C237.191 105.471 236.329 103.9 234.906 103.9C234.291 103.9 233.718 104.214 233.387 104.733L231.411 107.832C230.646 109.031 231.507 110.603 232.93 110.603C233.546 110.603 234.119 110.289 234.45 109.77L236.426 106.671ZM240.512 104.733C240.843 104.214 241.416 103.9 242.031 103.9C243.454 103.9 244.316 105.471 243.551 106.671L241.575 109.77C241.244 110.289 240.671 110.603 240.055 110.603C238.632 110.603 237.771 109.031 238.536 107.832L240.512 104.733ZM250.676 106.671C251.441 105.471 250.579 103.9 249.156 103.9C248.541 103.9 247.968 104.214 247.637 104.733L245.661 107.832C244.896 109.031 245.757 110.603 247.18 110.603C247.796 110.603 248.369 110.289 248.7 109.77L250.676 106.671ZM254.762 104.733C255.093 104.214 255.666 103.9 256.281 103.9C257.704 103.9 258.566 105.471 257.801 106.671L255.825 109.77C255.494 110.289 254.921 110.603 254.305 110.603C252.882 110.603 252.021 109.031 252.786 107.832L254.762 104.733ZM264.926 106.671C265.691 105.471 264.829 103.9 263.406 103.9C262.791 103.9 262.218 104.214 261.887 104.733L259.911 107.832C259.146 109.031 260.007 110.603 261.43 110.603C262.046 110.603 262.619 110.289 262.95 109.77L264.926 106.671ZM269.012 104.733C269.343 104.214 269.916 103.9 270.531 103.9C271.954 103.9 272.816 105.471 272.051 106.671L270.075 109.77C269.744 110.289 269.171 110.603 268.555 110.603C267.132 110.603 266.271 109.031 267.036 107.832L269.012 104.733ZM279.176 106.671C279.941 105.471 279.079 103.9 277.656 103.9C277.041 103.9 276.468 104.214 276.137 104.733L274.161 107.832C273.396 109.031 274.257 110.603 275.68 110.603C276.296 110.603 276.869 110.289 277.2 109.77L279.176 106.671ZM283.262 104.733C283.593 104.214 284.166 103.9 284.781 103.9C286.204 103.9 287.066 105.471 286.301 106.671L284.325 109.77C283.994 110.289 283.421 110.603 282.805 110.603C281.382 110.603 280.521 109.031 281.286 107.832L283.262 104.733ZM293.426 106.671C294.191 105.471 293.329 103.9 291.906 103.9C291.291 103.9 290.718 104.214 290.387 104.733L288.411 107.832C287.646 109.031 288.507 110.603 289.93 110.603C290.546 110.603 291.119 110.289 291.45 109.77L293.426 106.671ZM297.512 104.733C297.843 104.214 298.416 103.9 299.031 103.9C300.454 103.9 301.316 105.471 300.551 106.671L298.575 109.77C298.244 110.289 297.671 110.603 297.055 110.603C295.632 110.603 294.771 109.031 295.536 107.832L297.512 104.733ZM307.676 106.671C308.441 105.471 307.579 103.9 306.156 103.9C305.541 103.9 304.968 104.214 304.637 104.733L302.661 107.832C301.896 109.031 302.757 110.603 304.18 110.603C304.796 110.603 305.369 110.289 305.7 109.77L307.676 106.671ZM311.762 104.733C312.093 104.214 312.666 103.9 313.281 103.9C314.704 103.9 315.566 105.471 314.801 106.671L312.825 109.77C312.494 110.289 311.921 110.603 311.305 110.603C309.882 110.603 309.021 109.031 309.786 107.832L311.762 104.733ZM321.926 106.671C322.691 105.471 321.829 103.9 320.406 103.9C319.791 103.9 319.218 104.214 318.887 104.733L316.911 107.832C316.146 109.031 317.007 110.603 318.43 110.603C319.046 110.603 319.619 110.289 319.95 109.77L321.926 106.671ZM326.012 104.733C326.343 104.214 326.916 103.9 327.531 103.9C328.954 103.9 329.816 105.471 329.051 106.671L327.075 109.77C326.744 110.289 326.171 110.603 325.555 110.603C324.132 110.603 323.271 109.031 324.036 107.832L326.012 104.733ZM336.176 106.671C336.941 105.471 336.079 103.9 334.656 103.9C334.041 103.9 333.468 104.214 333.137 104.733L331.161 107.832C330.396 109.031 331.257 110.603 332.68 110.603C333.296 110.603 333.869 110.289 334.2 109.77L336.176 106.671Z"/>
</mask>
<path fill-rule="evenodd" clip-rule="evenodd" d="M229.301 106.671C230.066 105.471 229.204 103.9 227.781 103.9C227.166 103.9 226.593 104.214 226.262 104.733L224.286 107.832C223.521 109.031 224.382 110.603 225.805 110.603C226.421 110.603 226.994 110.289 227.325 109.77L229.301 106.671ZM236.426 106.671C237.191 105.471 236.329 103.9 234.906 103.9C234.291 103.9 233.718 104.214 233.387 104.733L231.411 107.832C230.646 109.031 231.507 110.603 232.93 110.603C233.546 110.603 234.119 110.289 234.45 109.77L236.426 106.671ZM240.512 104.733C240.843 104.214 241.416 103.9 242.031 103.9C243.454 103.9 244.316 105.471 243.551 106.671L241.575 109.77C241.244 110.289 240.671 110.603 240.055 110.603C238.632 110.603 237.771 109.031 238.536 107.832L240.512 104.733ZM250.676 106.671C251.441 105.471 250.579 103.9 249.156 103.9C248.541 103.9 247.968 104.214 247.637 104.733L245.661 107.832C244.896 109.031 245.757 110.603 247.18 110.603C247.796 110.603 248.369 110.289 248.7 109.77L250.676 106.671ZM254.762 104.733C255.093 104.214 255.666 103.9 256.281 103.9C257.704 103.9 258.566 105.471 257.801 106.671L255.825 109.77C255.494 110.289 254.921 110.603 254.305 110.603C252.882 110.603 252.021 109.031 252.786 107.832L254.762 104.733ZM264.926 106.671C265.691 105.471 264.829 103.9 263.406 103.9C262.791 103.9 262.218 104.214 261.887 104.733L259.911 107.832C259.146 109.031 260.007 110.603 261.43 110.603C262.046 110.603 262.619 110.289 262.95 109.77L264.926 106.671ZM269.012 104.733C269.343 104.214 269.916 103.9 270.531 103.9C271.954 103.9 272.816 105.471 272.051 106.671L270.075 109.77C269.744 110.289 269.171 110.603 268.555 110.603C267.132 110.603 266.271 109.031 267.036 107.832L269.012 104.733ZM279.176 106.671C279.941 105.471 279.079 103.9 277.656 103.9C277.041 103.9 276.468 104.214 276.137 104.733L274.161 107.832C273.396 109.031 274.257 110.603 275.68 110.603C276.296 110.603 276.869 110.289 277.2 109.77L279.176 106.671ZM283.262 104.733C283.593 104.214 284.166 103.9 284.781 103.9C286.204 103.9 287.066 105.471 286.301 106.671L284.325 109.77C283.994 110.289 283.421 110.603 282.805 110.603C281.382 110.603 280.521 109.031 281.286 107.832L283.262 104.733ZM293.426 106.671C294.191 105.471 293.329 103.9 291.906 103.9C291.291 103.9 290.718 104.214 290.387 104.733L288.411 107.832C287.646 109.031 288.507 110.603 289.93 110.603C290.546 110.603 291.119 110.289 291.45 109.77L293.426 106.671ZM297.512 104.733C297.843 104.214 298.416 103.9 299.031 103.9C300.454 103.9 301.316 105.471 300.551 106.671L298.575 109.77C298.244 110.289 297.671 110.603 297.055 110.603C295.632 110.603 294.771 109.031 295.536 107.832L297.512 104.733ZM307.676 106.671C308.441 105.471 307.579 103.9 306.156 103.9C305.541 103.9 304.968 104.214 304.637 104.733L302.661 107.832C301.896 109.031 302.757 110.603 304.18 110.603C304.796 110.603 305.369 110.289 305.7 109.77L307.676 106.671ZM311.762 104.733C312.093 104.214 312.666 103.9 313.281 103.9C314.704 103.9 315.566 105.471 314.801 106.671L312.825 109.77C312.494 110.289 311.921 110.603 311.305 110.603C309.882 110.603 309.021 109.031 309.786 107.832L311.762 104.733ZM321.926 106.671C322.691 105.471 321.829 103.9 320.406 103.9C319.791 103.9 319.218 104.214 318.887 104.733L316.911 107.832C316.146 109.031 317.007 110.603 318.43 110.603C319.046 110.603 319.619 110.289 319.95 109.77L321.926 106.671ZM326.012 104.733C326.343 104.214 326.916 103.9 327.531 103.9C328.954 103.9 329.816 105.471 329.051 106.671L327.075 109.77C326.744 110.289 326.171 110.603 325.555 110.603C324.132 110.603 323.271 109.031 324.036 107.832L326.012 104.733ZM336.176 106.671C336.941 105.471 336.079 103.9 334.656 103.9C334.041 103.9 333.468 104.214 333.137 104.733L331.161 107.832C330.396 109.031 331.257 110.603 332.68 110.603C333.296 110.603 333.869 110.289 334.2 109.77L336.176 106.671Z" fill="url(#paint3_linear_5816_39299)"/>
<path d="M334.2 109.77L333.356 109.232L334.2 109.77ZM331.161 107.832L330.318 107.294L331.161 107.832ZM336.176 106.671L337.019 107.209L336.176 106.671ZM333.137 104.733L333.98 105.271L333.137 104.733ZM324.036 107.832L323.193 107.294L324.036 107.832ZM327.075 109.77L326.231 109.232L327.075 109.77ZM326.012 104.733L326.855 105.271L326.012 104.733ZM329.051 106.671L329.894 107.209L329.051 106.671ZM319.95 109.77L319.106 109.232L319.95 109.77ZM316.911 107.832L316.068 107.294L316.911 107.832ZM321.926 106.671L322.769 107.209L321.926 106.671ZM318.887 104.733L319.73 105.271L318.887 104.733ZM309.786 107.832L308.943 107.294L309.786 107.832ZM312.825 109.77L311.981 109.232L312.825 109.77ZM311.762 104.733L312.605 105.271L311.762 104.733ZM314.801 106.671L315.644 107.209L314.801 106.671ZM305.7 109.77L304.856 109.232L305.7 109.77ZM302.661 107.832L301.818 107.294L302.661 107.832ZM307.676 106.671L308.519 107.209L307.676 106.671ZM304.637 104.733L305.48 105.271L304.637 104.733ZM295.536 107.832L294.693 107.294L295.536 107.832ZM298.575 109.77L297.731 109.232L298.575 109.77ZM297.512 104.733L298.355 105.271L297.512 104.733ZM300.551 106.671L301.394 107.209L300.551 106.671ZM291.45 109.77L290.606 109.232L291.45 109.77ZM288.411 107.832L287.568 107.294L288.411 107.832ZM290.387 104.733L291.23 105.271L290.387 104.733ZM281.286 107.832L280.443 107.294L281.286 107.832ZM284.325 109.77L283.481 109.232L284.325 109.77ZM283.262 104.733L282.419 104.195L283.262 104.733ZM286.301 106.671L287.144 107.209L286.301 106.671ZM277.2 109.77L276.356 109.232L277.2 109.77ZM279.176 106.671L280.019 107.209L279.176 106.671ZM276.137 104.733L275.294 104.195L276.137 104.733ZM267.036 107.832L266.193 107.294L267.036 107.832ZM270.075 109.77L269.231 109.232L270.075 109.77ZM269.012 104.733L268.169 104.195L269.012 104.733ZM272.051 106.671L272.894 107.209L272.051 106.671ZM262.95 109.77L262.106 109.232L262.95 109.77ZM264.926 106.671L265.769 107.209L264.926 106.671ZM261.887 104.733L261.044 104.195L261.887 104.733ZM252.786 107.832L251.943 107.294L252.786 107.832ZM255.825 109.77L256.668 110.308L255.825 109.77ZM250.676 106.671L251.519 107.209L250.676 106.671ZM238.536 107.832L237.693 107.294L238.536 107.832ZM241.575 109.77L242.418 110.308L241.575 109.77ZM236.426 106.671L235.583 106.133L236.426 106.671ZM233.387 104.733L234.23 105.271L233.387 104.733ZM224.286 107.832L225.129 108.369L224.286 107.832ZM226.262 104.733L227.105 105.271L226.262 104.733ZM225.129 108.369L227.105 105.271L225.419 104.195L223.443 107.294L225.129 108.369ZM228.458 106.133L226.481 109.232L228.168 110.308L230.144 107.209L228.458 106.133ZM232.254 108.369L234.23 105.271L232.544 104.195L230.568 107.294L232.254 108.369ZM235.583 106.133L233.606 109.232L235.293 110.308L237.269 107.209L235.583 106.133ZM242.418 110.308L244.394 107.209L242.708 106.133L240.731 109.232L242.418 110.308ZM239.669 104.195L237.693 107.294L239.379 108.369L241.355 105.271L239.669 104.195ZM246.504 108.369L248.48 105.271L246.794 104.195L244.818 107.294L246.504 108.369ZM249.833 106.133L247.856 109.232L249.543 110.308L251.519 107.209L249.833 106.133ZM256.668 110.308L258.644 107.209L256.958 106.133L254.981 109.232L256.668 110.308ZM253.919 104.195L251.943 107.294L253.629 108.369L255.605 105.271L253.919 104.195ZM260.754 108.369L262.73 105.271L261.044 104.195L259.068 107.294L260.754 108.369ZM264.083 106.133L262.106 109.232L263.793 110.308L265.769 107.209L264.083 106.133ZM270.918 110.308L272.894 107.209L271.208 106.133L269.231 109.232L270.918 110.308ZM268.169 104.195L266.193 107.294L267.879 108.369L269.855 105.271L268.169 104.195ZM275.004 108.369L276.98 105.271L275.294 104.195L273.318 107.294L275.004 108.369ZM278.333 106.133L276.356 109.232L278.043 110.308L280.019 107.209L278.333 106.133ZM285.168 110.308L287.144 107.209L285.458 106.133L283.481 109.232L285.168 110.308ZM282.419 104.195L280.443 107.294L282.129 108.369L284.105 105.271L282.419 104.195ZM289.254 108.369L291.23 105.271L289.544 104.195L287.568 107.294L289.254 108.369ZM292.583 106.133L290.606 109.232L292.293 110.308L294.269 107.209L292.583 106.133ZM299.418 110.308L301.394 107.209L299.708 106.133L297.731 109.232L299.418 110.308ZM296.669 104.195L294.693 107.294L296.379 108.369L298.355 105.271L296.669 104.195ZM303.504 108.369L305.48 105.271L303.794 104.195L301.818 107.294L303.504 108.369ZM306.833 106.133L304.856 109.232L306.543 110.308L308.519 107.209L306.833 106.133ZM313.668 110.308L315.644 107.209L313.958 106.133L311.981 109.232L313.668 110.308ZM310.919 104.195L308.943 107.294L310.629 108.369L312.605 105.271L310.919 104.195ZM317.754 108.369L319.73 105.271L318.044 104.195L316.068 107.294L317.754 108.369ZM321.083 106.133L319.106 109.232L320.793 110.308L322.769 107.209L321.083 106.133ZM327.918 110.308L329.894 107.209L328.208 106.133L326.231 109.232L327.918 110.308ZM325.169 104.195L323.193 107.294L324.879 108.369L326.855 105.271L325.169 104.195ZM332.004 108.369L333.98 105.271L332.294 104.195L330.318 107.294L332.004 108.369ZM335.333 106.133L333.356 109.232L335.043 110.308L337.019 107.209L335.333 106.133ZM332.68 111.603C333.637 111.603 334.528 111.114 335.043 110.308L333.356 109.232C333.209 109.463 332.954 109.603 332.68 109.603V111.603ZM330.318 107.294C329.128 109.159 330.468 111.603 332.68 111.603V109.603C332.047 109.603 331.663 108.903 332.004 108.369L330.318 107.294ZM334.656 104.9C335.29 104.9 335.673 105.599 335.333 106.133L337.019 107.209C338.209 105.344 336.869 102.9 334.656 102.9V104.9ZM334.656 102.9C333.699 102.9 332.808 103.388 332.294 104.195L333.98 105.271C334.127 105.04 334.382 104.9 334.656 104.9V102.9ZM325.555 109.603C324.922 109.603 324.538 108.903 324.879 108.369L323.193 107.294C322.003 109.159 323.343 111.603 325.555 111.603V109.603ZM326.231 109.232C326.084 109.463 325.829 109.603 325.555 109.603V111.603C326.512 111.603 327.403 111.114 327.918 110.308L326.231 109.232ZM327.531 102.9C326.574 102.9 325.683 103.388 325.169 104.195L326.855 105.271C327.002 105.04 327.257 104.9 327.531 104.9V102.9ZM327.531 104.9C328.165 104.9 328.548 105.599 328.208 106.133L329.894 107.209C331.084 105.344 329.744 102.9 327.531 102.9V104.9ZM318.43 111.603C319.387 111.603 320.278 111.114 320.793 110.308L319.106 109.232C318.959 109.463 318.704 109.603 318.43 109.603V111.603ZM316.068 107.294C314.878 109.159 316.218 111.603 318.43 111.603V109.603C317.797 109.603 317.413 108.903 317.754 108.369L316.068 107.294ZM320.406 104.9C321.04 104.9 321.423 105.599 321.083 106.133L322.769 107.209C323.959 105.344 322.619 102.9 320.406 102.9V104.9ZM320.406 102.9C319.449 102.9 318.558 103.388 318.044 104.195L319.73 105.271C319.877 105.04 320.132 104.9 320.406 104.9V102.9ZM311.305 109.603C310.672 109.603 310.288 108.903 310.629 108.369L308.943 107.294C307.753 109.159 309.093 111.603 311.305 111.603V109.603ZM311.981 109.232C311.834 109.463 311.579 109.603 311.305 109.603V111.603C312.262 111.603 313.153 111.114 313.668 110.308L311.981 109.232ZM313.281 102.9C312.324 102.9 311.433 103.388 310.919 104.195L312.605 105.271C312.752 105.04 313.007 104.9 313.281 104.9V102.9ZM313.281 104.9C313.915 104.9 314.298 105.599 313.958 106.133L315.644 107.209C316.834 105.344 315.494 102.9 313.281 102.9V104.9ZM304.18 111.603C305.137 111.603 306.028 111.114 306.543 110.308L304.856 109.232C304.709 109.463 304.454 109.603 304.18 109.603V111.603ZM301.818 107.294C300.628 109.159 301.968 111.603 304.18 111.603V109.603C303.547 109.603 303.163 108.903 303.504 108.369L301.818 107.294ZM306.156 104.9C306.79 104.9 307.173 105.599 306.833 106.133L308.519 107.209C309.709 105.344 308.369 102.9 306.156 102.9V104.9ZM306.156 102.9C305.199 102.9 304.308 103.388 303.794 104.195L305.48 105.271C305.627 105.04 305.882 104.9 306.156 104.9V102.9ZM297.055 109.603C296.422 109.603 296.038 108.903 296.379 108.369L294.693 107.294C293.503 109.159 294.843 111.603 297.055 111.603V109.603ZM297.731 109.232C297.584 109.463 297.329 109.603 297.055 109.603V111.603C298.012 111.603 298.903 111.114 299.418 110.308L297.731 109.232ZM299.031 102.9C298.074 102.9 297.183 103.388 296.669 104.195L298.355 105.271C298.502 105.04 298.757 104.9 299.031 104.9V102.9ZM299.031 104.9C299.665 104.9 300.048 105.599 299.708 106.133L301.394 107.209C302.584 105.344 301.244 102.9 299.031 102.9V104.9ZM289.93 111.603C290.887 111.603 291.778 111.114 292.293 110.308L290.606 109.232C290.459 109.463 290.204 109.603 289.93 109.603V111.603ZM287.568 107.294C286.378 109.159 287.718 111.603 289.93 111.603V109.603C289.297 109.603 288.913 108.903 289.254 108.369L287.568 107.294ZM291.906 104.9C292.54 104.9 292.923 105.599 292.583 106.133L294.269 107.209C295.459 105.344 294.119 102.9 291.906 102.9V104.9ZM291.906 102.9C290.949 102.9 290.058 103.388 289.544 104.195L291.23 105.271C291.377 105.04 291.632 104.9 291.906 104.9V102.9ZM282.805 109.603C282.172 109.603 281.788 108.903 282.129 108.369L280.443 107.294C279.253 109.159 280.593 111.603 282.805 111.603V109.603ZM283.481 109.232C283.334 109.463 283.079 109.603 282.805 109.603V111.603C283.762 111.603 284.653 111.114 285.168 110.308L283.481 109.232ZM284.781 102.9C283.824 102.9 282.933 103.388 282.419 104.195L284.105 105.271C284.252 105.04 284.507 104.9 284.781 104.9V102.9ZM284.781 104.9C285.415 104.9 285.798 105.599 285.458 106.133L287.144 107.209C288.334 105.344 286.994 102.9 284.781 102.9V104.9ZM275.68 111.603C276.637 111.603 277.528 111.114 278.043 110.308L276.356 109.232C276.209 109.463 275.954 109.603 275.68 109.603V111.603ZM273.318 107.294C272.128 109.159 273.468 111.603 275.68 111.603V109.603C275.047 109.603 274.663 108.903 275.004 108.369L273.318 107.294ZM277.656 104.9C278.29 104.9 278.673 105.599 278.333 106.133L280.019 107.209C281.209 105.344 279.869 102.9 277.656 102.9V104.9ZM277.656 102.9C276.699 102.9 275.808 103.388 275.294 104.195L276.98 105.271C277.127 105.04 277.382 104.9 277.656 104.9V102.9ZM268.555 109.603C267.922 109.603 267.538 108.903 267.879 108.369L266.193 107.294C265.003 109.159 266.343 111.603 268.555 111.603V109.603ZM269.231 109.232C269.084 109.463 268.829 109.603 268.555 109.603V111.603C269.512 111.603 270.403 111.114 270.918 110.308L269.231 109.232ZM270.531 102.9C269.574 102.9 268.683 103.388 268.169 104.195L269.855 105.271C270.002 105.04 270.257 104.9 270.531 104.9V102.9ZM270.531 104.9C271.165 104.9 271.548 105.599 271.208 106.133L272.894 107.209C274.084 105.344 272.744 102.9 270.531 102.9V104.9ZM261.43 111.603C262.387 111.603 263.278 111.114 263.793 110.308L262.106 109.232C261.959 109.463 261.704 109.603 261.43 109.603V111.603ZM259.068 107.294C257.878 109.159 259.218 111.603 261.43 111.603V109.603C260.797 109.603 260.413 108.903 260.754 108.369L259.068 107.294ZM263.406 104.9C264.04 104.9 264.423 105.599 264.083 106.133L265.769 107.209C266.959 105.344 265.619 102.9 263.406 102.9V104.9ZM263.406 102.9C262.449 102.9 261.558 103.388 261.044 104.195L262.73 105.271C262.877 105.04 263.132 104.9 263.406 104.9V102.9ZM254.305 109.603C253.672 109.603 253.288 108.903 253.629 108.369L251.943 107.294C250.753 109.159 252.093 111.603 254.305 111.603V109.603ZM254.981 109.232C254.834 109.463 254.579 109.603 254.305 109.603V111.603C255.262 111.603 256.153 111.114 256.668 110.308L254.981 109.232ZM256.281 102.9C255.324 102.9 254.433 103.388 253.919 104.195L255.605 105.271C255.752 105.04 256.007 104.9 256.281 104.9V102.9ZM256.281 104.9C256.915 104.9 257.298 105.599 256.958 106.133L258.644 107.209C259.834 105.344 258.494 102.9 256.281 102.9V104.9ZM247.18 111.603C248.137 111.603 249.028 111.114 249.543 110.308L247.856 109.232C247.709 109.463 247.454 109.603 247.18 109.603V111.603ZM244.818 107.294C243.628 109.159 244.968 111.603 247.18 111.603V109.603C246.547 109.603 246.163 108.903 246.504 108.369L244.818 107.294ZM249.156 104.9C249.79 104.9 250.173 105.599 249.833 106.133L251.519 107.209C252.709 105.344 251.369 102.9 249.156 102.9V104.9ZM249.156 102.9C248.199 102.9 247.308 103.388 246.794 104.195L248.48 105.271C248.627 105.04 248.882 104.9 249.156 104.9V102.9ZM240.055 109.603C239.422 109.603 239.038 108.903 239.379 108.369L237.693 107.294C236.503 109.159 237.843 111.603 240.055 111.603V109.603ZM240.731 109.232C240.584 109.463 240.329 109.603 240.055 109.603V111.603C241.012 111.603 241.903 111.114 242.418 110.308L240.731 109.232ZM242.031 102.9C241.074 102.9 240.183 103.388 239.669 104.195L241.355 105.271C241.502 105.04 241.757 104.9 242.031 104.9V102.9ZM242.031 104.9C242.665 104.9 243.048 105.599 242.708 106.133L244.394 107.209C245.584 105.344 244.244 102.9 242.031 102.9V104.9ZM232.93 111.603C233.887 111.603 234.778 111.114 235.293 110.308L233.606 109.232C233.459 109.463 233.204 109.603 232.93 109.603V111.603ZM230.568 107.294C229.378 109.159 230.718 111.603 232.93 111.603V109.603C232.297 109.603 231.913 108.903 232.254 108.369L230.568 107.294ZM234.906 104.9C235.54 104.9 235.923 105.599 235.583 106.133L237.269 107.209C238.459 105.344 237.119 102.9 234.906 102.9V104.9ZM234.906 102.9C233.949 102.9 233.058 103.388 232.544 104.195L234.23 105.271C234.377 105.04 234.632 104.9 234.906 104.9V102.9ZM225.805 111.603C226.762 111.603 227.653 111.114 228.168 110.308L226.481 109.232C226.334 109.463 226.079 109.603 225.805 109.603V111.603ZM223.443 107.294C222.253 109.159 223.593 111.603 225.805 111.603V109.603C225.172 109.603 224.788 108.903 225.129 108.369L223.443 107.294ZM227.781 104.9C228.415 104.9 228.798 105.599 228.458 106.133L230.144 107.209C231.334 105.344 229.994 102.9 227.781 102.9V104.9ZM227.781 102.9C226.824 102.9 225.933 103.388 225.419 104.195L227.105 105.271C227.252 105.04 227.507 104.9 227.781 104.9V102.9Z" fill="url(#paint4_linear_5816_39299)" mask="url(#path-4-inside-1_5816_39299)"/>
</g>
<path d="M55.0962 77.3802C56.8062 75.7044 57.969 73.8918 57.969 72.6264C57.969 70.848 56.5326 69.822 54.1386 69.822C52.0182 69.822 49.5216 70.9848 47.4354 72.8316L45.5886 69.309C48.3588 67.1202 51.5394 65.8206 54.7884 65.8206C59.508 65.8206 62.757 68.2146 62.757 71.9424C62.757 74.4048 60.876 77.1066 58.2084 79.8426L52.0524 85.9644H63.8172V90H46.0674V86.6826L55.0962 77.3802ZM77.23 76.0464C81.5392 76.491 84.4462 78.7824 84.4462 82.5444C84.4462 87.0588 80.7868 90.2052 74.9728 90.2052C71.7238 90.2052 68.3038 89.145 66.0808 87.5034L67.9618 83.7756C69.877 85.4856 72.2368 86.409 74.6308 86.409C78.0166 86.409 79.966 84.9384 79.966 82.6128C79.966 80.2188 77.9824 78.9876 74.5966 78.9876H70.9372V76.3542L77.6062 70.0272H67.312L67.2778 66.06H83.2492V68.8986L75.862 75.9096L77.23 76.0464Z" fill="white"/>
<path d="M104.009 76.2544H106.417V90H104.009V88.4068C103.305 89.4998 102.156 90.1111 100.674 90.1111C97.8398 90.1111 95.9502 88.0363 95.9502 85.0168C95.9502 82.0157 97.8398 79.9965 100.619 79.9965C102.138 79.9965 103.286 80.6078 104.009 81.7193V76.2544ZM101.193 88.0919C102.86 88.0919 104.009 86.8508 104.009 85.0724C104.009 83.2939 102.86 82.0528 101.193 82.0528C99.5441 82.0528 98.3955 83.3125 98.377 85.0724C98.3955 86.8508 99.5255 88.0919 101.193 88.0919ZM113.635 80.015C117.117 80.015 118.618 82.2936 118.377 85.8874H111.06C111.374 87.2953 112.449 88.1475 113.894 88.1475C114.913 88.1475 115.858 87.7585 116.561 87.036L117.858 88.3883C116.876 89.4628 115.431 90.0926 113.69 90.0926C110.615 90.0926 108.596 88.0549 108.596 85.0724C108.596 82.0528 110.671 80.015 113.635 80.015ZM111.004 84.2758H116.191C116.135 82.8123 115.154 81.886 113.653 81.886C112.227 81.886 111.226 82.8123 111.004 84.2758ZM127.117 80.0891H129.525V89.0552C129.525 91.8896 127.469 93.6865 124.338 93.6865C122.745 93.6865 121.319 93.1678 120.152 92.3712L121.115 90.6299C122.023 91.2967 123.023 91.6673 124.209 91.6673C125.987 91.6673 127.117 90.6854 127.117 89.1108V87.9437C126.45 88.9441 125.376 89.4998 123.968 89.4998C121.337 89.4998 119.559 87.5732 119.559 84.7204C119.559 81.9231 121.319 80.015 123.894 80.015C125.32 79.9965 126.432 80.5708 127.117 81.5711V80.0891ZM124.486 87.6103C126.042 87.6103 127.117 86.4432 127.117 84.776C127.117 83.1087 126.042 81.9416 124.486 81.9416C122.93 81.9416 121.856 83.1272 121.837 84.776C121.856 86.4432 122.912 87.6103 124.486 87.6103ZM141.837 80.8486C140.911 79.8112 139.595 79.1629 138.317 79.1629C135.872 79.1629 133.964 81.0524 133.964 83.4607C133.964 85.8874 135.872 87.777 138.317 87.777C139.558 87.777 140.874 87.2027 141.837 86.2579L143.3 87.8881C141.967 89.2405 140.059 90.1111 138.188 90.1111C134.371 90.1111 131.426 87.2398 131.426 83.4977C131.426 79.7927 134.408 76.9584 138.28 76.9584C140.133 76.9584 142.022 77.755 143.282 79.0332L141.837 80.8486Z" fill="white"/>
<path d="M44.064 43.4H48.744V44.472H47.032V49H45.768V44.472H44.064V43.4ZM50.7134 44.656C52.2254 44.656 52.9294 45.656 52.8254 47.224H49.7374C49.8814 47.768 50.2974 48.088 50.8494 48.088C51.2574 48.088 51.6414 47.928 51.9374 47.632L52.5854 48.288C52.1534 48.768 51.5214 49.048 50.7454 49.048C49.3694 49.048 48.4974 48.168 48.4974 46.864C48.4974 45.536 49.4014 44.656 50.7134 44.656ZM49.7134 46.496H51.6734C51.6574 45.928 51.2894 45.56 50.7214 45.56C50.1774 45.56 49.8094 45.928 49.7134 46.496ZM59.3349 44.648C60.2869 44.648 60.8869 45.288 60.8869 46.296V49H59.6629V46.656C59.6629 46.104 59.3429 45.776 58.8309 45.776C58.2389 45.784 57.8789 46.248 57.8789 46.872V49H56.6549V46.656C56.6549 46.104 56.3349 45.776 55.8309 45.776C55.2309 45.784 54.8709 46.248 54.8709 46.872V49H53.6389V44.696H54.8709V45.44C55.1749 44.912 55.6789 44.656 56.3269 44.648C57.0549 44.648 57.5749 45.016 57.7829 45.64C58.0629 44.976 58.6069 44.656 59.3349 44.648ZM64.5834 44.656C65.7914 44.656 66.6074 45.544 66.6074 46.872C66.6074 48.176 65.8154 49.048 64.6074 49.048C64.0074 49.048 63.5354 48.808 63.2234 48.376V50.552H61.9914V44.696H63.2234V45.328C63.5274 44.896 63.9994 44.656 64.5834 44.656ZM64.2954 48.024C64.9274 48.024 65.3594 47.536 65.3594 46.832C65.3594 46.144 64.9274 45.648 64.2954 45.648C63.6634 45.648 63.2234 46.136 63.2234 46.832C63.2234 47.544 63.6634 48.024 64.2954 48.024ZM68.6521 45.472C68.9481 44.944 69.4361 44.656 70.0761 44.648V45.808C69.1961 45.728 68.6521 46.2 68.6521 46.928V49H67.4201V44.696H68.6521V45.472ZM72.5963 44.656C74.1083 44.656 74.8123 45.656 74.7083 47.224H71.6203C71.7643 47.768 72.1803 48.088 72.7323 48.088C73.1403 48.088 73.5243 47.928 73.8203 47.632L74.4683 48.288C74.0363 48.768 73.4043 49.048 72.6283 49.048C71.2523 49.048 70.3803 48.168 70.3803 46.864C70.3803 45.536 71.2843 44.656 72.5963 44.656ZM71.5963 46.496H73.5563C73.5403 45.928 73.1723 45.56 72.6043 45.56C72.0603 45.56 71.6923 45.928 71.5963 46.496ZM77.9297 47.856L78.1857 48.76C77.8657 48.944 77.4657 49.056 77.0657 49.056C76.2977 49.056 75.7137 48.616 75.7137 47.728V45.736H75.1137V44.888H75.7137V43.704H76.9377V44.888H78.1057V45.744H76.9377V47.52C76.9377 47.88 77.0897 48.024 77.3537 48.016C77.5137 48.016 77.7057 47.96 77.9297 47.856ZM81.7919 44.696H83.0159V49H81.7919V48.24C81.4959 48.784 80.9999 49.048 80.3519 49.048C79.3999 49.048 78.7999 48.416 78.7999 47.4V44.696H80.0319V47.048C80.0319 47.592 80.3439 47.92 80.8399 47.92C81.4319 47.912 81.7919 47.448 81.7919 46.824V44.696ZM85.4412 45.472C85.7372 44.944 86.2252 44.656 86.8652 44.648V45.808C85.9852 45.728 85.4412 46.2 85.4412 46.928V49H84.2092V44.696H85.4412V45.472ZM89.3853 44.656C90.8973 44.656 91.6013 45.656 91.4973 47.224H88.4093C88.5533 47.768 88.9693 48.088 89.5213 48.088C89.9293 48.088 90.3133 47.928 90.6093 47.632L91.2573 48.288C90.8253 48.768 90.1933 49.048 89.4173 49.048C88.0413 49.048 87.1693 48.168 87.1693 46.864C87.1693 45.536 88.0733 44.656 89.3853 44.656ZM88.3853 46.496H90.3453C90.3293 45.928 89.9613 45.56 89.3933 45.56C88.8493 45.56 88.4813 45.928 88.3853 46.496Z" fill="white"/>
<g filter="url(#filter2_ddii_5816_39299)">
<path d="M308 44.9999C308 43.9391 308.421 42.9217 309.172 42.1716C309.922 41.4214 310.939 41 312 41C313.061 41 314.078 41.4214 314.828 42.1716C315.579 42.9217 316 43.9391 316 44.9999V48.2549C317.223 49.1064 318.142 50.3261 318.624 51.7363C319.106 53.1465 319.125 54.6736 318.679 56.0955C318.233 57.5173 317.344 58.7596 316.143 59.6416C314.942 60.5236 313.49 60.9992 312 60.9992C310.51 60.9992 309.058 60.5236 307.857 59.6416C306.656 58.7596 305.767 57.5173 305.321 56.0955C304.875 54.6736 304.894 53.1465 305.376 51.7363C305.858 50.3261 306.777 49.1064 308 48.2549V44.9999ZM309.144 49.8948C308.27 50.5029 307.613 51.374 307.269 52.3814C306.924 53.3887 306.911 54.4796 307.229 55.4954C307.548 56.5112 308.182 57.3987 309.041 58.0288C309.899 58.6589 310.935 58.9987 312 58.9987C313.065 58.9987 314.101 58.6589 314.959 58.0288C315.818 57.3987 316.452 56.5112 316.771 55.4954C317.089 54.4796 317.076 53.3887 316.731 52.3814C316.387 51.374 315.73 50.5029 314.856 49.8948L314 49.2978V44.9999C314 44.4695 313.789 43.9608 313.414 43.5857C313.039 43.2107 312.53 43 312 43C311.47 43 310.961 43.2107 310.586 43.5857C310.211 43.9608 310 44.4695 310 44.9999V49.2978L309.144 49.8948ZM311 50.1258V44.9999C311 44.4477 311.448 43.9999 312 43.9999C312.552 43.9999 313 44.4477 313 44.9999V50.1258C313.94 50.3716 314.759 50.9512 315.304 51.7565C315.848 52.5618 316.081 53.5377 315.958 54.502C315.836 55.4663 315.367 56.353 314.638 56.9967C313.91 57.6403 312.972 57.9969 312 57.9997C311.026 58.0007 310.085 57.646 309.353 57.0023C308.622 56.3587 308.151 55.4702 308.028 54.5037C307.905 53.5372 308.139 52.5592 308.687 51.7531C309.234 50.9471 310.056 50.3684 311 50.1258Z" fill="white"/>
</g>
</g>
<defs>
<filter id="filter0_ddi_5816_39299" x="0" y="0" width="368" height="131" filterUnits="userSpaceOnUse" color-interpolation-filters="sRGB">
<feFlood flood-opacity="0" result="BackgroundImageFix"/>
<feColorMatrix in="SourceAlpha" type="matrix" values="0 0 0 0 0 0 0 0 0 0 0 0 0 0 0 0 0 0 127 0" result="hardAlpha"/>
<feOffset/>
<feGaussianBlur stdDeviation="4.5"/>
<feColorMatrix type="matrix" values="0 0 0 0 0.96 0 0 0 0 0.210824 0 0 0 0 0.286118 0 0 0 0.42 0"/>
<feBlend mode="normal" in2="BackgroundImageFix" result="effect1_dropShadow_5816_39299"/>
<feColorMatrix in="SourceAlpha" type="matrix" values="0 0 0 0 0 0 0 0 0 0 0 0 0 0 0 0 0 0 127 0" result="hardAlpha"/>
<feOffset dy="6"/>
<feGaussianBlur stdDeviation="6"/>
<feColorMatrix type="matrix" values="0 0 0 0 0.6 0 0 0 0 0 0 0 0 0 0.0603015 0 0 0 0.63 0"/>
<feBlend mode="normal" in2="effect1_dropShadow_5816_39299" result="effect2_dropShadow_5816_39299"/>
<feBlend mode="normal" in="SourceGraphic" in2="effect2_dropShadow_5816_39299" result="shape"/>
<feColorMatrix in="SourceAlpha" type="matrix" values="0 0 0 0 0 0 0 0 0 0 0 0 0 0 0 0 0 0 127 0" result="hardAlpha"/>
<feOffset/>
<feGaussianBlur stdDeviation="20.5"/>
<feComposite in2="hardAlpha" operator="arithmetic" k2="-1" k3="1"/>
<feColorMatrix type="matrix" values="0 0 0 0 1 0 0 0 0 0.219608 0 0 0 0 0.298039 0 0 0 0.67 0"/>
<feBlend mode="normal" in2="shape" result="effect3_innerShadow_5816_39299"/>
</filter>
<filter id="filter1_ddi_5816_39299" x="212" y="94.8999" width="136.461" height="33.7029" filterUnits="userSpaceOnUse" color-interpolation-filters="sRGB">
<feFlood flood-opacity="0" result="BackgroundImageFix"/>
<feColorMatrix in="SourceAlpha" type="matrix" values="0 0 0 0 0 0 0 0 0 0 0 0 0 0 0 0 0 0 127 0" result="hardAlpha"/>
<feOffset/>
<feGaussianBlur stdDeviation="4.5"/>
<feColorMatrix type="matrix" values="0 0 0 0 0.96 0 0 0 0 0.210824 0 0 0 0 0.286118 0 0 0 0.42 0"/>
<feBlend mode="normal" in2="BackgroundImageFix" result="effect1_dropShadow_5816_39299"/>
<feColorMatrix in="SourceAlpha" type="matrix" values="0 0 0 0 0 0 0 0 0 0 0 0 0 0 0 0 0 0 127 0" result="hardAlpha"/>
<feOffset dy="6"/>
<feGaussianBlur stdDeviation="6"/>
<feColorMatrix type="matrix" values="0 0 0 0 0.4 0 0 0 0 0.0878431 0 0 0 0 0.119216 0 0 0 0.63 0"/>
<feBlend mode="normal" in2="effect1_dropShadow_5816_39299" result="effect2_dropShadow_5816_39299"/>
<feBlend mode="normal" in="SourceGraphic" in2="effect2_dropShadow_5816_39299" result="shape"/>
<feColorMatrix in="SourceAlpha" type="matrix" values="0 0 0 0 0 0 0 0 0 0 0 0 0 0 0 0 0 0 127 0" result="hardAlpha"/>
<feOffset/>
<feGaussianBlur stdDeviation="20.5"/>
<feComposite in2="hardAlpha" operator="arithmetic" k2="-1" k3="1"/>
<feColorMatrix type="matrix" values="0 0 0 0 1 0 0 0 0 0.219608 0 0 0 0 0.298039 0 0 0 0.67 0"/>
<feBlend mode="normal" in2="shape" result="effect3_innerShadow_5816_39299"/>
</filter>
<filter id="filter2_ddii_5816_39299" x="288.857" y="27.8571" width="47.1429" height="47.1424" filterUnits="userSpaceOnUse" color-interpolation-filters="sRGB">
<feFlood flood-opacity="0" result="BackgroundImageFix"/>
<feColorMatrix in="SourceAlpha" type="matrix" values="0 0 0 0 0 0 0 0 0 0 0 0 0 0 0 0 0 0 127 0" result="hardAlpha"/>
<feOffset dx="2.57143" dy="2.57143"/>
<feGaussianBlur stdDeviation="4.71429"/>
<feComposite in2="hardAlpha" operator="out"/>
<feColorMatrix type="matrix" values="0 0 0 0 1 0 0 0 0 0.219608 0 0 0 0 0.298039 0 0 0 1 0"/>
<feBlend mode="normal" in2="BackgroundImageFix" result="effect1_dropShadow_5816_39299"/>
<feColorMatrix in="SourceAlpha" type="matrix" values="0 0 0 0 0 0 0 0 0 0 0 0 0 0 0 0 0 0 127 0" result="hardAlpha"/>
<feOffset dx="-2.57143" dy="-2.57143"/>
<feGaussianBlur stdDeviation="4.28571"/>
<feComposite in2="hardAlpha" operator="out"/>
<feColorMatrix type="matrix" values="0 0 0 0 1 0 0 0 0 1 0 0 0 0 1 0 0 0 0.4 0"/>
<feBlend mode="normal" in2="effect1_dropShadow_5816_39299" result="effect2_dropShadow_5816_39299"/>
<feBlend mode="normal" in="SourceGraphic" in2="effect2_dropShadow_5816_39299" result="shape"/>
<feColorMatrix in="SourceAlpha" type="matrix" values="0 0 0 0 0 0 0 0 0 0 0 0 0 0 0 0 0 0 127 0" result="hardAlpha"/>
<feOffset dy="-1.28571"/>
<feGaussianBlur stdDeviation="0.985714"/>
<feComposite in2="hardAlpha" operator="arithmetic" k2="-1" k3="1"/>
<feColorMatrix type="matrix" values="0 0 0 0 1 0 0 0 0 0.219608 0 0 0 0 0.298039 0 0 0 0.4 0"/>
<feBlend mode="normal" in2="shape" result="effect3_innerShadow_5816_39299"/>
<feColorMatrix in="SourceAlpha" type="matrix" values="0 0 0 0 0 0 0 0 0 0 0 0 0 0 0 0 0 0 127 0" result="hardAlpha"/>
<feOffset dy="-0.428571"/>
<feGaussianBlur stdDeviation="0.557143"/>
<feComposite in2="hardAlpha" operator="arithmetic" k2="-1" k3="1"/>
<feColorMatrix type="matrix" values="0 0 0 0 1 0 0 0 0 1 0 0 0 0 1 0 0 0 0.6 0"/>
<feBlend mode="normal" in2="effect3_innerShadow_5816_39299" result="effect4_innerShadow_5816_39299"/>
</filter>
<linearGradient id="paint0_linear_5816_39299" x1="-164.714" y1="30.4936" x2="-141.957" y2="185.577" gradientUnits="userSpaceOnUse">
<stop stop-color="#FF384C" stop-opacity="0.9"/>
<stop offset="0.4418" stop-color="#66161E" stop-opacity="0.62"/>
<stop offset="0.714844" stop-color="#99222E" stop-opacity="0.92"/>
<stop offset="1" stop-color="#FF384C" stop-opacity="0.88"/>
</linearGradient>
<linearGradient id="paint1_linear_5816_39299" x1="-222.147" y1="41.6906" x2="-188.158" y2="219.936" gradientUnits="userSpaceOnUse">
<stop stop-color="#FFCBCB"/>
<stop offset="0.509124" stop-color="#FFA8A8" stop-opacity="0.21"/>
<stop offset="1" stop-color="#FFCACA"/>
</linearGradient>
<linearGradient id="paint2_linear_5816_39299" x1="15.491" y1="84.1415" x2="31.9496" y2="84.1415" gradientUnits="userSpaceOnUse">
<stop stop-color="white"/>
<stop offset="1" stop-color="white" stop-opacity="0.01"/>
</linearGradient>
<linearGradient id="paint3_linear_5816_39299" x1="176.682" y1="105.285" x2="177.042" y2="115.483" gradientUnits="userSpaceOnUse">
<stop stop-color="#FF384C" stop-opacity="0.9"/>
<stop offset="0.4418" stop-color="#66161E" stop-opacity="0.62"/>
<stop offset="0.714844" stop-color="#99222E" stop-opacity="0.92"/>
<stop offset="1" stop-color="#FF384C" stop-opacity="0.88"/>
</linearGradient>
<linearGradient id="paint4_linear_5816_39299" x1="161.304" y1="106.007" x2="161.849" y2="117.888" gradientUnits="userSpaceOnUse">
<stop stop-color="#FFCBCB"/>
<stop offset="0.509124" stop-color="#FFA8A8" stop-opacity="0.21"/>
<stop offset="1" stop-color="#FFCACA"/>
</linearGradient>
</defs>
</svg>
