<svg width="368" height="131" viewBox="0 0 368 131" fill="none" xmlns="http://www.w3.org/2000/svg">
<g filter="url(#filter0_ddi_7816_28168)">
<path d="M12 19C12 13.4772 16.4772 9 22 9L346 9C351.523 9 356 13.4772 356 19V90.4705C356 95.9934 351.523 100.471 346 100.471H228.466C225.118 100.471 221.993 102.146 220.139 104.933L217.742 108.538C215.888 111.325 212.762 113 209.415 113H22C16.4772 113 12 108.523 12 103L12 19Z" fill="url(#paint0_linear_7816_28168)"/>
<path d="M12.5 19C12.5 13.7533 16.7533 9.5 22 9.5H346C351.247 9.5 355.5 13.7533 355.5 19V90.4705C355.5 95.7172 351.247 99.9705 346 99.9705H228.466C224.951 99.9705 221.669 101.729 219.722 104.656L217.325 108.261C215.564 110.909 212.595 112.5 209.415 112.5H22C16.7533 112.5 12.5 108.247 12.5 103V19Z" stroke="url(#paint1_linear_7816_28168)"/>
</g>
<path opacity="0.72454" fill-rule="evenodd" clip-rule="evenodd" d="M14.8496 33.3408L19.1246 42.3408V76.1124L14.8496 85.1124V33.3408ZM21.2621 44.1408L25.5371 53.1408V65.3124L21.2621 74.3124V44.1408ZM31.9496 59.2266L27.6746 53.1408V65.3124L31.9496 59.2266Z" fill="url(#paint2_linear_7816_28168)"/>
<g filter="url(#filter1_ddi_7816_28168)">
<mask id="path-4-inside-1_7816_28168" fill="white">
<path fill-rule="evenodd" clip-rule="evenodd" d="M229.301 106.671C230.066 105.471 229.204 103.9 227.781 103.9C227.166 103.9 226.593 104.214 226.262 104.733L224.286 107.832C223.521 109.031 224.382 110.603 225.805 110.603C226.421 110.603 226.994 110.289 227.325 109.77L229.301 106.671ZM236.426 106.671C237.191 105.471 236.329 103.9 234.906 103.9C234.291 103.9 233.718 104.214 233.387 104.733L231.411 107.832C230.646 109.031 231.507 110.603 232.93 110.603C233.546 110.603 234.119 110.289 234.45 109.77L236.426 106.671ZM240.512 104.733C240.843 104.214 241.416 103.9 242.031 103.9C243.454 103.9 244.316 105.471 243.551 106.671L241.575 109.77C241.244 110.289 240.671 110.603 240.055 110.603C238.632 110.603 237.771 109.031 238.536 107.832L240.512 104.733ZM250.676 106.671C251.441 105.471 250.579 103.9 249.156 103.9C248.541 103.9 247.968 104.214 247.637 104.733L245.661 107.832C244.896 109.031 245.757 110.603 247.18 110.603C247.796 110.603 248.369 110.289 248.7 109.77L250.676 106.671ZM254.762 104.733C255.093 104.214 255.666 103.9 256.281 103.9C257.704 103.9 258.566 105.471 257.801 106.671L255.825 109.77C255.494 110.289 254.921 110.603 254.305 110.603C252.882 110.603 252.021 109.031 252.786 107.832L254.762 104.733ZM264.926 106.671C265.691 105.471 264.829 103.9 263.406 103.9C262.791 103.9 262.218 104.214 261.887 104.733L259.911 107.832C259.146 109.031 260.007 110.603 261.43 110.603C262.046 110.603 262.619 110.289 262.95 109.77L264.926 106.671ZM269.012 104.733C269.343 104.214 269.916 103.9 270.531 103.9C271.954 103.9 272.816 105.471 272.051 106.671L270.075 109.77C269.744 110.289 269.171 110.603 268.555 110.603C267.132 110.603 266.271 109.031 267.036 107.832L269.012 104.733ZM279.176 106.671C279.941 105.471 279.079 103.9 277.656 103.9C277.041 103.9 276.468 104.214 276.137 104.733L274.161 107.832C273.396 109.031 274.257 110.603 275.68 110.603C276.296 110.603 276.869 110.289 277.2 109.77L279.176 106.671ZM283.262 104.733C283.593 104.214 284.166 103.9 284.781 103.9C286.204 103.9 287.066 105.471 286.301 106.671L284.325 109.77C283.994 110.289 283.421 110.603 282.805 110.603C281.382 110.603 280.521 109.031 281.286 107.832L283.262 104.733ZM293.426 106.671C294.191 105.471 293.329 103.9 291.906 103.9C291.291 103.9 290.718 104.214 290.387 104.733L288.411 107.832C287.646 109.031 288.507 110.603 289.93 110.603C290.546 110.603 291.119 110.289 291.45 109.77L293.426 106.671ZM297.512 104.733C297.843 104.214 298.416 103.9 299.031 103.9C300.454 103.9 301.316 105.471 300.551 106.671L298.575 109.77C298.244 110.289 297.671 110.603 297.055 110.603C295.632 110.603 294.771 109.031 295.536 107.832L297.512 104.733ZM307.676 106.671C308.441 105.471 307.579 103.9 306.156 103.9C305.541 103.9 304.968 104.214 304.637 104.733L302.661 107.832C301.896 109.031 302.757 110.603 304.18 110.603C304.796 110.603 305.369 110.289 305.7 109.77L307.676 106.671ZM311.762 104.733C312.093 104.214 312.666 103.9 313.281 103.9C314.704 103.9 315.566 105.471 314.801 106.671L312.825 109.77C312.494 110.289 311.921 110.603 311.305 110.603C309.882 110.603 309.021 109.031 309.786 107.832L311.762 104.733ZM321.926 106.671C322.691 105.471 321.829 103.9 320.406 103.9C319.791 103.9 319.218 104.214 318.887 104.733L316.911 107.832C316.146 109.031 317.007 110.603 318.43 110.603C319.046 110.603 319.619 110.289 319.95 109.77L321.926 106.671ZM326.012 104.733C326.343 104.214 326.916 103.9 327.531 103.9C328.954 103.9 329.816 105.471 329.051 106.671L327.075 109.77C326.744 110.289 326.171 110.603 325.555 110.603C324.132 110.603 323.271 109.031 324.036 107.832L326.012 104.733ZM336.176 106.671C336.941 105.471 336.079 103.9 334.656 103.9C334.041 103.9 333.468 104.214 333.137 104.733L331.161 107.832C330.396 109.031 331.257 110.603 332.68 110.603C333.296 110.603 333.869 110.289 334.2 109.77L336.176 106.671Z"/>
</mask>
<path fill-rule="evenodd" clip-rule="evenodd" d="M229.301 106.671C230.066 105.471 229.204 103.9 227.781 103.9C227.166 103.9 226.593 104.214 226.262 104.733L224.286 107.832C223.521 109.031 224.382 110.603 225.805 110.603C226.421 110.603 226.994 110.289 227.325 109.77L229.301 106.671ZM236.426 106.671C237.191 105.471 236.329 103.9 234.906 103.9C234.291 103.9 233.718 104.214 233.387 104.733L231.411 107.832C230.646 109.031 231.507 110.603 232.93 110.603C233.546 110.603 234.119 110.289 234.45 109.77L236.426 106.671ZM240.512 104.733C240.843 104.214 241.416 103.9 242.031 103.9C243.454 103.9 244.316 105.471 243.551 106.671L241.575 109.77C241.244 110.289 240.671 110.603 240.055 110.603C238.632 110.603 237.771 109.031 238.536 107.832L240.512 104.733ZM250.676 106.671C251.441 105.471 250.579 103.9 249.156 103.9C248.541 103.9 247.968 104.214 247.637 104.733L245.661 107.832C244.896 109.031 245.757 110.603 247.18 110.603C247.796 110.603 248.369 110.289 248.7 109.77L250.676 106.671ZM254.762 104.733C255.093 104.214 255.666 103.9 256.281 103.9C257.704 103.9 258.566 105.471 257.801 106.671L255.825 109.77C255.494 110.289 254.921 110.603 254.305 110.603C252.882 110.603 252.021 109.031 252.786 107.832L254.762 104.733ZM264.926 106.671C265.691 105.471 264.829 103.9 263.406 103.9C262.791 103.9 262.218 104.214 261.887 104.733L259.911 107.832C259.146 109.031 260.007 110.603 261.43 110.603C262.046 110.603 262.619 110.289 262.95 109.77L264.926 106.671ZM269.012 104.733C269.343 104.214 269.916 103.9 270.531 103.9C271.954 103.9 272.816 105.471 272.051 106.671L270.075 109.77C269.744 110.289 269.171 110.603 268.555 110.603C267.132 110.603 266.271 109.031 267.036 107.832L269.012 104.733ZM279.176 106.671C279.941 105.471 279.079 103.9 277.656 103.9C277.041 103.9 276.468 104.214 276.137 104.733L274.161 107.832C273.396 109.031 274.257 110.603 275.68 110.603C276.296 110.603 276.869 110.289 277.2 109.77L279.176 106.671ZM283.262 104.733C283.593 104.214 284.166 103.9 284.781 103.9C286.204 103.9 287.066 105.471 286.301 106.671L284.325 109.77C283.994 110.289 283.421 110.603 282.805 110.603C281.382 110.603 280.521 109.031 281.286 107.832L283.262 104.733ZM293.426 106.671C294.191 105.471 293.329 103.9 291.906 103.9C291.291 103.9 290.718 104.214 290.387 104.733L288.411 107.832C287.646 109.031 288.507 110.603 289.93 110.603C290.546 110.603 291.119 110.289 291.45 109.77L293.426 106.671ZM297.512 104.733C297.843 104.214 298.416 103.9 299.031 103.9C300.454 103.9 301.316 105.471 300.551 106.671L298.575 109.77C298.244 110.289 297.671 110.603 297.055 110.603C295.632 110.603 294.771 109.031 295.536 107.832L297.512 104.733ZM307.676 106.671C308.441 105.471 307.579 103.9 306.156 103.9C305.541 103.9 304.968 104.214 304.637 104.733L302.661 107.832C301.896 109.031 302.757 110.603 304.18 110.603C304.796 110.603 305.369 110.289 305.7 109.77L307.676 106.671ZM311.762 104.733C312.093 104.214 312.666 103.9 313.281 103.9C314.704 103.9 315.566 105.471 314.801 106.671L312.825 109.77C312.494 110.289 311.921 110.603 311.305 110.603C309.882 110.603 309.021 109.031 309.786 107.832L311.762 104.733ZM321.926 106.671C322.691 105.471 321.829 103.9 320.406 103.9C319.791 103.9 319.218 104.214 318.887 104.733L316.911 107.832C316.146 109.031 317.007 110.603 318.43 110.603C319.046 110.603 319.619 110.289 319.95 109.77L321.926 106.671ZM326.012 104.733C326.343 104.214 326.916 103.9 327.531 103.9C328.954 103.9 329.816 105.471 329.051 106.671L327.075 109.77C326.744 110.289 326.171 110.603 325.555 110.603C324.132 110.603 323.271 109.031 324.036 107.832L326.012 104.733ZM336.176 106.671C336.941 105.471 336.079 103.9 334.656 103.9C334.041 103.9 333.468 104.214 333.137 104.733L331.161 107.832C330.396 109.031 331.257 110.603 332.68 110.603C333.296 110.603 333.869 110.289 334.2 109.77L336.176 106.671Z" fill="url(#paint3_linear_7816_28168)"/>
<path d="M334.2 109.77L333.356 109.232L334.2 109.77ZM331.161 107.832L330.318 107.294L331.161 107.832ZM336.176 106.671L337.019 107.209L336.176 106.671ZM333.137 104.733L333.98 105.271L333.137 104.733ZM324.036 107.832L323.193 107.294L324.036 107.832ZM327.075 109.77L326.231 109.232L327.075 109.77ZM326.012 104.733L326.855 105.271L326.012 104.733ZM329.051 106.671L329.894 107.209L329.051 106.671ZM319.95 109.77L319.106 109.232L319.95 109.77ZM316.911 107.832L316.068 107.294L316.911 107.832ZM321.926 106.671L322.769 107.209L321.926 106.671ZM318.887 104.733L319.73 105.271L318.887 104.733ZM309.786 107.832L308.943 107.294L309.786 107.832ZM312.825 109.77L311.981 109.232L312.825 109.77ZM311.762 104.733L312.605 105.271L311.762 104.733ZM314.801 106.671L315.644 107.209L314.801 106.671ZM305.7 109.77L304.856 109.232L305.7 109.77ZM302.661 107.832L301.818 107.294L302.661 107.832ZM307.676 106.671L308.519 107.209L307.676 106.671ZM304.637 104.733L305.48 105.271L304.637 104.733ZM295.536 107.832L294.693 107.294L295.536 107.832ZM298.575 109.77L297.731 109.232L298.575 109.77ZM297.512 104.733L298.355 105.271L297.512 104.733ZM300.551 106.671L301.394 107.209L300.551 106.671ZM291.45 109.77L290.606 109.232L291.45 109.77ZM288.411 107.832L287.568 107.294L288.411 107.832ZM290.387 104.733L291.23 105.271L290.387 104.733ZM281.286 107.832L280.443 107.294L281.286 107.832ZM284.325 109.77L283.481 109.232L284.325 109.77ZM283.262 104.733L282.419 104.195L283.262 104.733ZM286.301 106.671L287.144 107.209L286.301 106.671ZM277.2 109.77L276.356 109.232L277.2 109.77ZM279.176 106.671L280.019 107.209L279.176 106.671ZM276.137 104.733L275.294 104.195L276.137 104.733ZM267.036 107.832L266.193 107.294L267.036 107.832ZM270.075 109.77L269.231 109.232L270.075 109.77ZM269.012 104.733L268.169 104.195L269.012 104.733ZM272.051 106.671L272.894 107.209L272.051 106.671ZM262.95 109.77L262.106 109.232L262.95 109.77ZM264.926 106.671L265.769 107.209L264.926 106.671ZM261.887 104.733L261.044 104.195L261.887 104.733ZM252.786 107.832L251.943 107.294L252.786 107.832ZM255.825 109.77L256.668 110.308L255.825 109.77ZM250.676 106.671L251.519 107.209L250.676 106.671ZM238.536 107.832L237.693 107.294L238.536 107.832ZM241.575 109.77L242.418 110.308L241.575 109.77ZM236.426 106.671L235.583 106.133L236.426 106.671ZM233.387 104.733L234.23 105.271L233.387 104.733ZM224.286 107.832L225.129 108.369L224.286 107.832ZM226.262 104.733L227.105 105.271L226.262 104.733ZM225.129 108.369L227.105 105.271L225.419 104.195L223.443 107.294L225.129 108.369ZM228.458 106.133L226.481 109.232L228.168 110.308L230.144 107.209L228.458 106.133ZM232.254 108.369L234.23 105.271L232.544 104.195L230.568 107.294L232.254 108.369ZM235.583 106.133L233.606 109.232L235.293 110.308L237.269 107.209L235.583 106.133ZM242.418 110.308L244.394 107.209L242.708 106.133L240.731 109.232L242.418 110.308ZM239.669 104.195L237.693 107.294L239.379 108.369L241.355 105.271L239.669 104.195ZM246.504 108.369L248.48 105.271L246.794 104.195L244.818 107.294L246.504 108.369ZM249.833 106.133L247.856 109.232L249.543 110.308L251.519 107.209L249.833 106.133ZM256.668 110.308L258.644 107.209L256.958 106.133L254.981 109.232L256.668 110.308ZM253.919 104.195L251.943 107.294L253.629 108.369L255.605 105.271L253.919 104.195ZM260.754 108.369L262.73 105.271L261.044 104.195L259.068 107.294L260.754 108.369ZM264.083 106.133L262.106 109.232L263.793 110.308L265.769 107.209L264.083 106.133ZM270.918 110.308L272.894 107.209L271.208 106.133L269.231 109.232L270.918 110.308ZM268.169 104.195L266.193 107.294L267.879 108.369L269.855 105.271L268.169 104.195ZM275.004 108.369L276.98 105.271L275.294 104.195L273.318 107.294L275.004 108.369ZM278.333 106.133L276.356 109.232L278.043 110.308L280.019 107.209L278.333 106.133ZM285.168 110.308L287.144 107.209L285.458 106.133L283.481 109.232L285.168 110.308ZM282.419 104.195L280.443 107.294L282.129 108.369L284.105 105.271L282.419 104.195ZM289.254 108.369L291.23 105.271L289.544 104.195L287.568 107.294L289.254 108.369ZM292.583 106.133L290.606 109.232L292.293 110.308L294.269 107.209L292.583 106.133ZM299.418 110.308L301.394 107.209L299.708 106.133L297.731 109.232L299.418 110.308ZM296.669 104.195L294.693 107.294L296.379 108.369L298.355 105.271L296.669 104.195ZM303.504 108.369L305.48 105.271L303.794 104.195L301.818 107.294L303.504 108.369ZM306.833 106.133L304.856 109.232L306.543 110.308L308.519 107.209L306.833 106.133ZM313.668 110.308L315.644 107.209L313.958 106.133L311.981 109.232L313.668 110.308ZM310.919 104.195L308.943 107.294L310.629 108.369L312.605 105.271L310.919 104.195ZM317.754 108.369L319.73 105.271L318.044 104.195L316.068 107.294L317.754 108.369ZM321.083 106.133L319.106 109.232L320.793 110.308L322.769 107.209L321.083 106.133ZM327.918 110.308L329.894 107.209L328.208 106.133L326.231 109.232L327.918 110.308ZM325.169 104.195L323.193 107.294L324.879 108.369L326.855 105.271L325.169 104.195ZM332.004 108.369L333.98 105.271L332.294 104.195L330.318 107.294L332.004 108.369ZM335.333 106.133L333.356 109.232L335.043 110.308L337.019 107.209L335.333 106.133ZM332.68 111.603C333.637 111.603 334.528 111.114 335.043 110.308L333.356 109.232C333.209 109.463 332.954 109.603 332.68 109.603V111.603ZM330.318 107.294C329.128 109.159 330.468 111.603 332.68 111.603V109.603C332.047 109.603 331.663 108.903 332.004 108.369L330.318 107.294ZM334.656 104.9C335.29 104.9 335.673 105.599 335.333 106.133L337.019 107.209C338.209 105.344 336.869 102.9 334.656 102.9V104.9ZM334.656 102.9C333.699 102.9 332.808 103.388 332.294 104.195L333.98 105.271C334.127 105.04 334.382 104.9 334.656 104.9V102.9ZM325.555 109.603C324.922 109.603 324.538 108.903 324.879 108.369L323.193 107.294C322.003 109.159 323.343 111.603 325.555 111.603V109.603ZM326.231 109.232C326.084 109.463 325.829 109.603 325.555 109.603V111.603C326.512 111.603 327.403 111.114 327.918 110.308L326.231 109.232ZM327.531 102.9C326.574 102.9 325.683 103.388 325.169 104.195L326.855 105.271C327.002 105.04 327.257 104.9 327.531 104.9V102.9ZM327.531 104.9C328.165 104.9 328.548 105.599 328.208 106.133L329.894 107.209C331.084 105.344 329.744 102.9 327.531 102.9V104.9ZM318.43 111.603C319.387 111.603 320.278 111.114 320.793 110.308L319.106 109.232C318.959 109.463 318.704 109.603 318.43 109.603V111.603ZM316.068 107.294C314.878 109.159 316.218 111.603 318.43 111.603V109.603C317.797 109.603 317.413 108.903 317.754 108.369L316.068 107.294ZM320.406 104.9C321.04 104.9 321.423 105.599 321.083 106.133L322.769 107.209C323.959 105.344 322.619 102.9 320.406 102.9V104.9ZM320.406 102.9C319.449 102.9 318.558 103.388 318.044 104.195L319.73 105.271C319.877 105.04 320.132 104.9 320.406 104.9V102.9ZM311.305 109.603C310.672 109.603 310.288 108.903 310.629 108.369L308.943 107.294C307.753 109.159 309.093 111.603 311.305 111.603V109.603ZM311.981 109.232C311.834 109.463 311.579 109.603 311.305 109.603V111.603C312.262 111.603 313.153 111.114 313.668 110.308L311.981 109.232ZM313.281 102.9C312.324 102.9 311.433 103.388 310.919 104.195L312.605 105.271C312.752 105.04 313.007 104.9 313.281 104.9V102.9ZM313.281 104.9C313.915 104.9 314.298 105.599 313.958 106.133L315.644 107.209C316.834 105.344 315.494 102.9 313.281 102.9V104.9ZM304.18 111.603C305.137 111.603 306.028 111.114 306.543 110.308L304.856 109.232C304.709 109.463 304.454 109.603 304.18 109.603V111.603ZM301.818 107.294C300.628 109.159 301.968 111.603 304.18 111.603V109.603C303.547 109.603 303.163 108.903 303.504 108.369L301.818 107.294ZM306.156 104.9C306.79 104.9 307.173 105.599 306.833 106.133L308.519 107.209C309.709 105.344 308.369 102.9 306.156 102.9V104.9ZM306.156 102.9C305.199 102.9 304.308 103.388 303.794 104.195L305.48 105.271C305.627 105.04 305.882 104.9 306.156 104.9V102.9ZM297.055 109.603C296.422 109.603 296.038 108.903 296.379 108.369L294.693 107.294C293.503 109.159 294.843 111.603 297.055 111.603V109.603ZM297.731 109.232C297.584 109.463 297.329 109.603 297.055 109.603V111.603C298.012 111.603 298.903 111.114 299.418 110.308L297.731 109.232ZM299.031 102.9C298.074 102.9 297.183 103.388 296.669 104.195L298.355 105.271C298.502 105.04 298.757 104.9 299.031 104.9V102.9ZM299.031 104.9C299.665 104.9 300.048 105.599 299.708 106.133L301.394 107.209C302.584 105.344 301.244 102.9 299.031 102.9V104.9ZM289.93 111.603C290.887 111.603 291.778 111.114 292.293 110.308L290.606 109.232C290.459 109.463 290.204 109.603 289.93 109.603V111.603ZM287.568 107.294C286.378 109.159 287.718 111.603 289.93 111.603V109.603C289.297 109.603 288.913 108.903 289.254 108.369L287.568 107.294ZM291.906 104.9C292.54 104.9 292.923 105.599 292.583 106.133L294.269 107.209C295.459 105.344 294.119 102.9 291.906 102.9V104.9ZM291.906 102.9C290.949 102.9 290.058 103.388 289.544 104.195L291.23 105.271C291.377 105.04 291.632 104.9 291.906 104.9V102.9ZM282.805 109.603C282.172 109.603 281.788 108.903 282.129 108.369L280.443 107.294C279.253 109.159 280.593 111.603 282.805 111.603V109.603ZM283.481 109.232C283.334 109.463 283.079 109.603 282.805 109.603V111.603C283.762 111.603 284.653 111.114 285.168 110.308L283.481 109.232ZM284.781 102.9C283.824 102.9 282.933 103.388 282.419 104.195L284.105 105.271C284.252 105.04 284.507 104.9 284.781 104.9V102.9ZM284.781 104.9C285.415 104.9 285.798 105.599 285.458 106.133L287.144 107.209C288.334 105.344 286.994 102.9 284.781 102.9V104.9ZM275.68 111.603C276.637 111.603 277.528 111.114 278.043 110.308L276.356 109.232C276.209 109.463 275.954 109.603 275.68 109.603V111.603ZM273.318 107.294C272.128 109.159 273.468 111.603 275.68 111.603V109.603C275.047 109.603 274.663 108.903 275.004 108.369L273.318 107.294ZM277.656 104.9C278.29 104.9 278.673 105.599 278.333 106.133L280.019 107.209C281.209 105.344 279.869 102.9 277.656 102.9V104.9ZM277.656 102.9C276.699 102.9 275.808 103.388 275.294 104.195L276.98 105.271C277.127 105.04 277.382 104.9 277.656 104.9V102.9ZM268.555 109.603C267.922 109.603 267.538 108.903 267.879 108.369L266.193 107.294C265.003 109.159 266.343 111.603 268.555 111.603V109.603ZM269.231 109.232C269.084 109.463 268.829 109.603 268.555 109.603V111.603C269.512 111.603 270.403 111.114 270.918 110.308L269.231 109.232ZM270.531 102.9C269.574 102.9 268.683 103.388 268.169 104.195L269.855 105.271C270.002 105.04 270.257 104.9 270.531 104.9V102.9ZM270.531 104.9C271.165 104.9 271.548 105.599 271.208 106.133L272.894 107.209C274.084 105.344 272.744 102.9 270.531 102.9V104.9ZM261.43 111.603C262.387 111.603 263.278 111.114 263.793 110.308L262.106 109.232C261.959 109.463 261.704 109.603 261.43 109.603V111.603ZM259.068 107.294C257.878 109.159 259.218 111.603 261.43 111.603V109.603C260.797 109.603 260.413 108.903 260.754 108.369L259.068 107.294ZM263.406 104.9C264.04 104.9 264.423 105.599 264.083 106.133L265.769 107.209C266.959 105.344 265.619 102.9 263.406 102.9V104.9ZM263.406 102.9C262.449 102.9 261.558 103.388 261.044 104.195L262.73 105.271C262.877 105.04 263.132 104.9 263.406 104.9V102.9ZM254.305 109.603C253.672 109.603 253.288 108.903 253.629 108.369L251.943 107.294C250.753 109.159 252.093 111.603 254.305 111.603V109.603ZM254.981 109.232C254.834 109.463 254.579 109.603 254.305 109.603V111.603C255.262 111.603 256.153 111.114 256.668 110.308L254.981 109.232ZM256.281 102.9C255.324 102.9 254.433 103.388 253.919 104.195L255.605 105.271C255.752 105.04 256.007 104.9 256.281 104.9V102.9ZM256.281 104.9C256.915 104.9 257.298 105.599 256.958 106.133L258.644 107.209C259.834 105.344 258.494 102.9 256.281 102.9V104.9ZM247.18 111.603C248.137 111.603 249.028 111.114 249.543 110.308L247.856 109.232C247.709 109.463 247.454 109.603 247.18 109.603V111.603ZM244.818 107.294C243.628 109.159 244.968 111.603 247.18 111.603V109.603C246.547 109.603 246.163 108.903 246.504 108.369L244.818 107.294ZM249.156 104.9C249.79 104.9 250.173 105.599 249.833 106.133L251.519 107.209C252.709 105.344 251.369 102.9 249.156 102.9V104.9ZM249.156 102.9C248.199 102.9 247.308 103.388 246.794 104.195L248.48 105.271C248.627 105.04 248.882 104.9 249.156 104.9V102.9ZM240.055 109.603C239.422 109.603 239.038 108.903 239.379 108.369L237.693 107.294C236.503 109.159 237.843 111.603 240.055 111.603V109.603ZM240.731 109.232C240.584 109.463 240.329 109.603 240.055 109.603V111.603C241.012 111.603 241.903 111.114 242.418 110.308L240.731 109.232ZM242.031 102.9C241.074 102.9 240.183 103.388 239.669 104.195L241.355 105.271C241.502 105.04 241.757 104.9 242.031 104.9V102.9ZM242.031 104.9C242.665 104.9 243.048 105.599 242.708 106.133L244.394 107.209C245.584 105.344 244.244 102.9 242.031 102.9V104.9ZM232.93 111.603C233.887 111.603 234.778 111.114 235.293 110.308L233.606 109.232C233.459 109.463 233.204 109.603 232.93 109.603V111.603ZM230.568 107.294C229.378 109.159 230.718 111.603 232.93 111.603V109.603C232.297 109.603 231.913 108.903 232.254 108.369L230.568 107.294ZM234.906 104.9C235.54 104.9 235.923 105.599 235.583 106.133L237.269 107.209C238.459 105.344 237.119 102.9 234.906 102.9V104.9ZM234.906 102.9C233.949 102.9 233.058 103.388 232.544 104.195L234.23 105.271C234.377 105.04 234.632 104.9 234.906 104.9V102.9ZM225.805 111.603C226.762 111.603 227.653 111.114 228.168 110.308L226.481 109.232C226.334 109.463 226.079 109.603 225.805 109.603V111.603ZM223.443 107.294C222.253 109.159 223.593 111.603 225.805 111.603V109.603C225.172 109.603 224.788 108.903 225.129 108.369L223.443 107.294ZM227.781 104.9C228.415 104.9 228.798 105.599 228.458 106.133L230.144 107.209C231.334 105.344 229.994 102.9 227.781 102.9V104.9ZM227.781 102.9C226.824 102.9 225.933 103.388 225.419 104.195L227.105 105.271C227.252 105.04 227.507 104.9 227.781 104.9V102.9Z" fill="url(#paint4_linear_7816_28168)" mask="url(#path-4-inside-1_7816_28168)"/>
</g>
<path d="M55.7802 90.2736C53.9106 90.2736 52.2348 89.7948 50.7528 88.8372C49.2936 87.8796 48.1308 86.4888 47.2644 84.6648C46.4208 82.8408 45.999 80.6292 45.999 78.03C45.999 75.4308 46.4208 73.2192 47.2644 71.3952C48.1308 69.5712 49.2936 68.1804 50.7528 67.2228C52.2348 66.2652 53.9106 65.7864 55.7802 65.7864C57.627 65.7864 59.2914 66.2652 60.7734 67.2228C62.2554 68.1804 63.4182 69.5712 64.2618 71.3952C65.1054 73.2192 65.5272 75.4308 65.5272 78.03C65.5272 80.6292 65.1054 82.8408 64.2618 84.6648C63.4182 86.4888 62.2554 87.8796 60.7734 88.8372C59.2914 89.7948 57.627 90.2736 55.7802 90.2736ZM55.7802 87.2298C57.0342 87.2298 58.1286 86.8878 59.0634 86.2038C60.021 85.5198 60.762 84.4938 61.2864 83.1258C61.8336 81.7578 62.1072 80.0592 62.1072 78.03C62.1072 76.0008 61.8336 74.3022 61.2864 72.9342C60.762 71.5662 60.021 70.5402 59.0634 69.8562C58.1286 69.1722 57.0342 68.8302 55.7802 68.8302C54.5262 68.8302 53.4204 69.1722 52.4628 69.8562C51.5052 70.5402 50.7528 71.5662 50.2056 72.9342C49.6812 74.3022 49.419 76.0008 49.419 78.03C49.419 80.0592 49.6812 81.7578 50.2056 83.1258C50.7528 84.4938 51.5052 85.5198 52.4628 86.2038C53.4204 86.8878 54.5262 87.2298 55.7802 87.2298ZM70.6666 90.2052C70.0282 90.2052 69.481 89.9886 69.025 89.5554C68.569 89.0994 68.341 88.5294 68.341 87.8454C68.341 87.1614 68.569 86.6028 69.025 86.1696C69.481 85.7364 70.0282 85.5198 70.6666 85.5198C71.2822 85.5198 71.8066 85.7364 72.2398 86.1696C72.6958 86.6028 72.9238 87.1614 72.9238 87.8454C72.9238 88.5294 72.6958 89.0994 72.2398 89.5554C71.8066 89.9886 71.2822 90.2052 70.6666 90.2052ZM83.8106 90.2736C82.1234 90.2736 80.4818 90.0114 78.8858 89.487C77.3126 88.9626 76.0244 88.2558 75.0212 87.3666L76.5944 84.6648C77.3924 85.4172 78.4298 86.0328 79.7066 86.5116C80.9834 86.9904 82.3514 87.2298 83.8106 87.2298C85.589 87.2298 86.9684 86.8536 87.9488 86.1012C88.952 85.326 89.4536 84.2886 89.4536 82.989C89.4536 81.735 88.9748 80.7318 88.0172 79.9794C87.0824 79.2042 85.589 78.8166 83.537 78.8166H81.6218V76.4226L88.7354 67.6674L89.2142 69.0354H76.1156V66.06H91.916V68.3856L84.8366 77.1066L83.0582 76.0464H84.1868C87.0824 76.0464 89.2484 76.6962 90.6848 77.9958C92.144 79.2954 92.8736 80.9484 92.8736 82.9548C92.8736 84.3 92.543 85.5312 91.8818 86.6484C91.2206 87.7656 90.2174 88.6548 88.8722 89.316C87.5498 89.9544 85.8626 90.2736 83.8106 90.2736Z" fill="white"/>
<path d="M117.325 80.0891C118.116 80.0891 118.813 80.2435 119.419 80.5522C120.024 80.861 120.493 81.3303 120.826 81.9601C121.172 82.59 121.345 83.3866 121.345 84.3499V90H119.567V84.5537C119.567 83.6027 119.344 82.8864 118.9 82.4047C118.455 81.9231 117.832 81.6823 117.029 81.6823C116.436 81.6823 115.917 81.8058 115.473 82.0528C115.028 82.2998 114.682 82.6641 114.435 83.1458C114.201 83.6274 114.083 84.2264 114.083 84.9427V90H112.305V84.5537C112.305 83.6027 112.083 82.8864 111.638 82.4047C111.206 81.9231 110.582 81.6823 109.767 81.6823C109.187 81.6823 108.674 81.8058 108.229 82.0528C107.785 82.2998 107.439 82.6641 107.192 83.1458C106.945 83.6274 106.822 84.2264 106.822 84.9427V90H105.043V80.1817H106.747V82.7938L106.47 82.1269C106.778 81.4847 107.254 80.9845 107.896 80.6263C108.538 80.2682 109.285 80.0891 110.138 80.0891C111.076 80.0891 111.885 80.3238 112.564 80.7931C113.244 81.25 113.688 81.9478 113.898 82.8864L113.176 82.59C113.472 81.8366 113.991 81.2315 114.732 80.7745C115.473 80.3176 116.337 80.0891 117.325 80.0891ZM128.915 93.705C128.014 93.705 127.137 93.5753 126.285 93.316C125.445 93.069 124.759 92.7108 124.228 92.2415L125.081 90.8707C125.538 91.2659 126.099 91.5746 126.766 91.7969C127.433 92.0316 128.131 92.1489 128.86 92.1489C130.021 92.1489 130.873 91.8772 131.416 91.3338C131.96 90.7904 132.231 89.9629 132.231 88.8514V86.7766L132.416 84.8315L132.324 82.8679V80.1817H134.01V88.6662C134.01 90.3952 133.577 91.6673 132.713 92.4824C131.848 93.2974 130.583 93.705 128.915 93.705ZM128.693 89.5924C127.742 89.5924 126.89 89.3948 126.137 88.9996C125.396 88.5921 124.803 88.0302 124.358 87.3139C123.926 86.5976 123.71 85.7701 123.71 84.8315C123.71 83.8806 123.926 83.0531 124.358 82.3492C124.803 81.6329 125.396 81.0771 126.137 80.6819C126.89 80.2867 127.742 80.0891 128.693 80.0891C129.533 80.0891 130.298 80.262 130.99 80.6078C131.682 80.9413 132.231 81.46 132.639 82.1639C133.059 82.8679 133.269 83.7571 133.269 84.8315C133.269 85.8936 133.059 86.7766 132.639 87.4806C132.231 88.1845 131.682 88.7156 130.99 89.0738C130.298 89.4195 129.533 89.5924 128.693 89.5924ZM128.897 88.0363C129.551 88.0363 130.132 87.9005 130.638 87.6288C131.144 87.3571 131.54 86.9804 131.824 86.4988C132.12 86.0171 132.268 85.4614 132.268 84.8315C132.268 84.2017 132.12 83.6459 131.824 83.1643C131.54 82.6826 131.144 82.3121 130.638 82.0528C130.132 81.7811 129.551 81.6452 128.897 81.6452C128.242 81.6452 127.656 81.7811 127.137 82.0528C126.631 82.3121 126.229 82.6826 125.933 83.1643C125.649 83.6459 125.507 84.2017 125.507 84.8315C125.507 85.4614 125.649 86.0171 125.933 86.4988C126.229 86.9804 126.631 87.3571 127.137 87.6288C127.656 87.9005 128.242 88.0363 128.897 88.0363ZM135.203 91.8525L141.316 74.4019H142.928L136.815 91.8525H135.203ZM154.954 80.0891C155.745 80.0891 156.442 80.2435 157.048 80.5522C157.653 80.861 158.122 81.3303 158.455 81.9601C158.801 82.59 158.974 83.3866 158.974 84.3499V90H157.196V84.5537C157.196 83.6027 156.973 82.8864 156.529 82.4047C156.084 81.9231 155.461 81.6823 154.658 81.6823C154.065 81.6823 153.546 81.8058 153.102 82.0528C152.657 82.2998 152.311 82.6641 152.064 83.1458C151.83 83.6274 151.712 84.2264 151.712 84.9427V90H149.934V84.5537C149.934 83.6027 149.712 82.8864 149.267 82.4047C148.835 81.9231 148.211 81.6823 147.396 81.6823C146.816 81.6823 146.303 81.8058 145.858 82.0528C145.414 82.2998 145.068 82.6641 144.821 83.1458C144.574 83.6274 144.451 84.2264 144.451 84.9427V90H142.672V80.1817H144.376V82.7938L144.099 82.1269C144.407 81.4847 144.883 80.9845 145.525 80.6263C146.167 80.2682 146.914 80.0891 147.766 80.0891C148.705 80.0891 149.514 80.3238 150.193 80.7931C150.873 81.25 151.317 81.9478 151.527 82.8864L150.805 82.59C151.101 81.8366 151.62 81.2315 152.361 80.7745C153.102 80.3176 153.966 80.0891 154.954 80.0891ZM164.284 84.0349C163.617 84.0349 162.987 83.9485 162.395 83.7756C161.814 83.6027 161.37 83.3742 161.061 83.0902L161.579 82.1083C161.876 82.3553 162.265 82.5529 162.747 82.7011C163.228 82.8493 163.741 82.9234 164.284 82.9234C164.976 82.9234 165.488 82.8123 165.822 82.59C166.155 82.3553 166.322 82.0466 166.322 81.6637C166.322 81.2809 166.161 80.9783 165.84 80.756C165.519 80.5337 165.025 80.4226 164.358 80.4226H163.488V79.5519L166.025 76.8287L166.248 77.3289H161.302V76.2544H167.248V77.0881L164.71 79.8112L164.117 79.4222H164.581C165.581 79.4222 166.334 79.6322 166.841 80.0521C167.359 80.472 167.619 81.0092 167.619 81.6637C167.619 82.096 167.495 82.4912 167.248 82.8494C167.001 83.2075 166.631 83.4977 166.137 83.72C165.643 83.93 165.025 84.0349 164.284 84.0349Z" fill="white"/>
<path d="M45.9232 49V44.28H44.0672V43.4H48.8192V44.28H46.9632V49H45.9232ZM51.1697 49L48.7217 43.4H49.8497L52.0337 48.464H51.3857L53.5937 43.4H54.6337L52.1937 49H51.1697ZM57.794 49.08C57.3566 49.08 56.954 49.008 56.586 48.864C56.218 48.72 55.898 48.52 55.626 48.264C55.354 48.0027 55.1433 47.6987 54.994 47.352C54.8446 47 54.77 46.616 54.77 46.2C54.77 45.784 54.8446 45.4027 54.994 45.056C55.1433 44.704 55.354 44.4 55.626 44.144C55.898 43.8827 56.218 43.68 56.586 43.536C56.954 43.392 57.354 43.32 57.786 43.32C58.2233 43.32 58.6233 43.392 58.986 43.536C59.354 43.68 59.674 43.8827 59.946 44.144C60.218 44.4 60.4286 44.704 60.578 45.056C60.7273 45.4027 60.802 45.784 60.802 46.2C60.802 46.616 60.7273 47 60.578 47.352C60.4286 47.704 60.218 48.008 59.946 48.264C59.674 48.52 59.354 48.72 58.986 48.864C58.6233 49.008 58.226 49.08 57.794 49.08ZM57.786 48.168C58.0686 48.168 58.33 48.12 58.57 48.024C58.81 47.928 59.018 47.792 59.194 47.616C59.37 47.4347 59.506 47.2267 59.602 46.992C59.7033 46.752 59.754 46.488 59.754 46.2C59.754 45.912 59.7033 45.6507 59.602 45.416C59.506 45.176 59.37 44.968 59.194 44.792C59.018 44.6107 58.81 44.472 58.57 44.376C58.33 44.28 58.0686 44.232 57.786 44.232C57.5033 44.232 57.242 44.28 57.002 44.376C56.7673 44.472 56.5593 44.6107 56.378 44.792C56.202 44.968 56.0633 45.176 55.962 45.416C55.866 45.6507 55.818 45.912 55.818 46.2C55.818 46.4827 55.866 46.744 55.962 46.984C56.0633 47.224 56.202 47.4347 56.378 47.616C56.554 47.792 56.762 47.928 57.002 48.024C57.242 48.12 57.5033 48.168 57.786 48.168ZM64.4963 49.08C64.0697 49.08 63.6723 49.0107 63.3043 48.872C62.9417 48.728 62.6243 48.528 62.3523 48.272C62.0857 48.0107 61.8777 47.704 61.7283 47.352C61.579 47 61.5043 46.616 61.5043 46.2C61.5043 45.784 61.579 45.4 61.7283 45.048C61.8777 44.696 62.0883 44.392 62.3603 44.136C62.6323 43.8747 62.9497 43.6747 63.3123 43.536C63.675 43.392 64.0723 43.32 64.5043 43.32C64.963 43.32 65.3817 43.4 65.7603 43.56C66.139 43.7147 66.459 43.9467 66.7203 44.256L66.0483 44.888C65.8457 44.6693 65.619 44.5067 65.3683 44.4C65.1177 44.288 64.8457 44.232 64.5523 44.232C64.259 44.232 63.9897 44.28 63.7443 44.376C63.5043 44.472 63.2937 44.608 63.1123 44.784C62.9363 44.96 62.7977 45.168 62.6963 45.408C62.6003 45.648 62.5523 45.912 62.5523 46.2C62.5523 46.488 62.6003 46.752 62.6963 46.992C62.7977 47.232 62.9363 47.44 63.1123 47.616C63.2937 47.792 63.5043 47.928 63.7443 48.024C63.9897 48.12 64.259 48.168 64.5523 48.168C64.8457 48.168 65.1177 48.1147 65.3683 48.008C65.619 47.896 65.8457 47.728 66.0483 47.504L66.7203 48.144C66.459 48.448 66.139 48.68 65.7603 48.84C65.3817 49 64.9603 49.08 64.4963 49.08Z" fill="white"/>
<g filter="url(#filter2_ddii_7816_28168)">
<path d="M315.999 64.3334C316.53 64.3334 317.038 64.5441 317.414 64.9192C317.789 65.2943 317.999 65.803 317.999 66.3334C317.999 66.8638 317.789 67.3726 317.414 67.7476C317.038 68.1227 316.53 68.3334 315.999 68.3334C315.469 68.3334 314.96 68.1227 314.585 67.7476C314.21 67.3726 313.999 66.8638 313.999 66.3334C313.999 65.803 314.21 65.2943 314.585 64.9192C314.96 64.5441 315.469 64.3334 315.999 64.3334ZM325.999 64.3334C326.53 64.3334 327.038 64.5441 327.414 64.9192C327.789 65.2943 327.999 65.803 327.999 66.3334C327.999 66.8638 327.789 67.3726 327.414 67.7476C327.038 68.1227 326.53 68.3334 325.999 68.3334C325.469 68.3334 324.96 68.1227 324.585 67.7476C324.21 67.3726 323.999 66.8638 323.999 66.3334C323.999 65.803 324.21 65.2943 324.585 64.9192C324.96 64.5441 325.469 64.3334 325.999 64.3334ZM305.999 64.3334C306.53 64.3334 307.038 64.5441 307.414 64.9192C307.789 65.2943 307.999 65.803 307.999 66.3334C307.999 66.8638 307.789 67.3726 307.414 67.7476C307.038 68.1227 306.53 68.3334 305.999 68.3334C305.469 68.3334 304.96 68.1227 304.585 67.7476C304.21 67.3726 303.999 66.8638 303.999 66.3334C303.999 65.803 304.21 65.2943 304.585 64.9192C304.96 64.5441 305.469 64.3334 305.999 64.3334ZM322.666 48.3334C324.434 48.3334 326.13 49.0358 327.38 50.286C328.63 51.5363 329.333 53.232 329.333 55.0001C329.333 56.7682 328.63 58.4639 327.38 59.7141C326.13 60.9644 324.434 61.6667 322.666 61.6667C320.207 61.6667 317.986 60.2801 315.999 57.5041C314.013 60.2801 311.791 61.6667 309.333 61.6667C307.565 61.6667 305.869 60.9644 304.619 59.7141C303.368 58.4639 302.666 56.7682 302.666 55.0001C302.666 53.232 303.368 51.5363 304.619 50.286C305.869 49.0358 307.565 48.3334 309.333 48.3334C311.791 48.3334 314.013 49.7201 315.999 52.4961C317.986 49.7201 320.207 48.3334 322.666 48.3334ZM315.999 41.6667C316.262 41.6667 316.522 41.7185 316.765 41.819C317.007 41.9195 317.228 42.0668 317.414 42.2525C317.599 42.4383 317.747 42.6587 317.847 42.9014C317.948 43.144 317.999 43.4041 317.999 43.6667C317.999 43.9294 317.948 44.1895 317.847 44.4321C317.747 44.6748 317.599 44.8952 317.414 45.081C317.228 45.2667 317.007 45.414 316.765 45.5145C316.522 45.615 316.262 45.6667 315.999 45.6667C315.469 45.6667 314.96 45.456 314.585 45.081C314.21 44.7059 313.999 44.1972 313.999 43.6667C313.999 43.1363 314.21 42.6276 314.585 42.2525C314.96 41.8775 315.469 41.6667 315.999 41.6667ZM305.999 41.6667C306.262 41.6667 306.522 41.7185 306.765 41.819C307.007 41.9195 307.228 42.0668 307.414 42.2525C307.599 42.4383 307.747 42.6587 307.847 42.9014C307.948 43.144 307.999 43.4041 307.999 43.6667C307.999 43.9294 307.948 44.1895 307.847 44.4321C307.747 44.6748 307.599 44.8952 307.414 45.081C307.228 45.2667 307.007 45.414 306.765 45.5145C306.522 45.615 306.262 45.6667 305.999 45.6667C305.469 45.6667 304.96 45.456 304.585 45.081C304.21 44.7059 303.999 44.1972 303.999 43.6667C303.999 43.1363 304.21 42.6276 304.585 42.2525C304.96 41.8775 305.469 41.6667 305.999 41.6667ZM325.999 41.6667C326.262 41.6667 326.522 41.7185 326.765 41.819C327.007 41.9195 327.228 42.0668 327.414 42.2525C327.599 42.4383 327.747 42.6587 327.847 42.9014C327.948 43.144 327.999 43.4041 327.999 43.6667C327.999 43.9294 327.948 44.1895 327.847 44.4321C327.747 44.6748 327.599 44.8952 327.414 45.081C327.228 45.2667 327.007 45.414 326.765 45.5145C326.522 45.615 326.262 45.6667 325.999 45.6667C325.469 45.6667 324.96 45.456 324.585 45.081C324.21 44.7059 323.999 44.1972 323.999 43.6667C323.999 43.1363 324.21 42.6276 324.585 42.2525C324.96 41.8775 325.469 41.6667 325.999 41.6667Z" fill="white"/>
</g>
<defs>
<filter id="filter0_ddi_7816_28168" x="0" y="0" width="368" height="131" filterUnits="userSpaceOnUse" color-interpolation-filters="sRGB">
<feFlood flood-opacity="0" result="BackgroundImageFix"/>
<feColorMatrix in="SourceAlpha" type="matrix" values="0 0 0 0 0 0 0 0 0 0 0 0 0 0 0 0 0 0 127 0" result="hardAlpha"/>
<feOffset/>
<feGaussianBlur stdDeviation="4.5"/>
<feColorMatrix type="matrix" values="0 0 0 0 0.96 0 0 0 0 0.210824 0 0 0 0 0.286118 0 0 0 0.42 0"/>
<feBlend mode="normal" in2="BackgroundImageFix" result="effect1_dropShadow_7816_28168"/>
<feColorMatrix in="SourceAlpha" type="matrix" values="0 0 0 0 0 0 0 0 0 0 0 0 0 0 0 0 0 0 127 0" result="hardAlpha"/>
<feOffset dy="6"/>
<feGaussianBlur stdDeviation="6"/>
<feColorMatrix type="matrix" values="0 0 0 0 0.6 0 0 0 0 0 0 0 0 0 0.0603015 0 0 0 0.63 0"/>
<feBlend mode="normal" in2="effect1_dropShadow_7816_28168" result="effect2_dropShadow_7816_28168"/>
<feBlend mode="normal" in="SourceGraphic" in2="effect2_dropShadow_7816_28168" result="shape"/>
<feColorMatrix in="SourceAlpha" type="matrix" values="0 0 0 0 0 0 0 0 0 0 0 0 0 0 0 0 0 0 127 0" result="hardAlpha"/>
<feOffset/>
<feGaussianBlur stdDeviation="20.5"/>
<feComposite in2="hardAlpha" operator="arithmetic" k2="-1" k3="1"/>
<feColorMatrix type="matrix" values="0 0 0 0 1 0 0 0 0 0.219608 0 0 0 0 0.298039 0 0 0 0.67 0"/>
<feBlend mode="normal" in2="shape" result="effect3_innerShadow_7816_28168"/>
</filter>
<filter id="filter1_ddi_7816_28168" x="212" y="94.8999" width="136.461" height="33.7029" filterUnits="userSpaceOnUse" color-interpolation-filters="sRGB">
<feFlood flood-opacity="0" result="BackgroundImageFix"/>
<feColorMatrix in="SourceAlpha" type="matrix" values="0 0 0 0 0 0 0 0 0 0 0 0 0 0 0 0 0 0 127 0" result="hardAlpha"/>
<feOffset/>
<feGaussianBlur stdDeviation="4.5"/>
<feColorMatrix type="matrix" values="0 0 0 0 0.96 0 0 0 0 0.210824 0 0 0 0 0.286118 0 0 0 0.42 0"/>
<feBlend mode="normal" in2="BackgroundImageFix" result="effect1_dropShadow_7816_28168"/>
<feColorMatrix in="SourceAlpha" type="matrix" values="0 0 0 0 0 0 0 0 0 0 0 0 0 0 0 0 0 0 127 0" result="hardAlpha"/>
<feOffset dy="6"/>
<feGaussianBlur stdDeviation="6"/>
<feColorMatrix type="matrix" values="0 0 0 0 0.4 0 0 0 0 0.0878431 0 0 0 0 0.119216 0 0 0 0.63 0"/>
<feBlend mode="normal" in2="effect1_dropShadow_7816_28168" result="effect2_dropShadow_7816_28168"/>
<feBlend mode="normal" in="SourceGraphic" in2="effect2_dropShadow_7816_28168" result="shape"/>
<feColorMatrix in="SourceAlpha" type="matrix" values="0 0 0 0 0 0 0 0 0 0 0 0 0 0 0 0 0 0 127 0" result="hardAlpha"/>
<feOffset/>
<feGaussianBlur stdDeviation="20.5"/>
<feComposite in2="hardAlpha" operator="arithmetic" k2="-1" k3="1"/>
<feColorMatrix type="matrix" values="0 0 0 0 1 0 0 0 0 0.219608 0 0 0 0 0.298039 0 0 0 0.67 0"/>
<feBlend mode="normal" in2="shape" result="effect3_innerShadow_7816_28168"/>
</filter>
<filter id="filter2_ddii_7816_28168" x="288.857" y="27.8571" width="55.1429" height="55.1429" filterUnits="userSpaceOnUse" color-interpolation-filters="sRGB">
<feFlood flood-opacity="0" result="BackgroundImageFix"/>
<feColorMatrix in="SourceAlpha" type="matrix" values="0 0 0 0 0 0 0 0 0 0 0 0 0 0 0 0 0 0 127 0" result="hardAlpha"/>
<feOffset dx="2.57143" dy="2.57143"/>
<feGaussianBlur stdDeviation="4.71429"/>
<feComposite in2="hardAlpha" operator="out"/>
<feColorMatrix type="matrix" values="0 0 0 0 1 0 0 0 0 0.219608 0 0 0 0 0.298039 0 0 0 1 0"/>
<feBlend mode="normal" in2="BackgroundImageFix" result="effect1_dropShadow_7816_28168"/>
<feColorMatrix in="SourceAlpha" type="matrix" values="0 0 0 0 0 0 0 0 0 0 0 0 0 0 0 0 0 0 127 0" result="hardAlpha"/>
<feOffset dx="-2.57143" dy="-2.57143"/>
<feGaussianBlur stdDeviation="4.28571"/>
<feComposite in2="hardAlpha" operator="out"/>
<feColorMatrix type="matrix" values="0 0 0 0 1 0 0 0 0 1 0 0 0 0 1 0 0 0 0.4 0"/>
<feBlend mode="normal" in2="effect1_dropShadow_7816_28168" result="effect2_dropShadow_7816_28168"/>
<feBlend mode="normal" in="SourceGraphic" in2="effect2_dropShadow_7816_28168" result="shape"/>
<feColorMatrix in="SourceAlpha" type="matrix" values="0 0 0 0 0 0 0 0 0 0 0 0 0 0 0 0 0 0 127 0" result="hardAlpha"/>
<feOffset dy="-1.28571"/>
<feGaussianBlur stdDeviation="0.985714"/>
<feComposite in2="hardAlpha" operator="arithmetic" k2="-1" k3="1"/>
<feColorMatrix type="matrix" values="0 0 0 0 1 0 0 0 0 0.219608 0 0 0 0 0.298039 0 0 0 0.4 0"/>
<feBlend mode="normal" in2="shape" result="effect3_innerShadow_7816_28168"/>
<feColorMatrix in="SourceAlpha" type="matrix" values="0 0 0 0 0 0 0 0 0 0 0 0 0 0 0 0 0 0 127 0" result="hardAlpha"/>
<feOffset dy="-0.428571"/>
<feGaussianBlur stdDeviation="0.557143"/>
<feComposite in2="hardAlpha" operator="arithmetic" k2="-1" k3="1"/>
<feColorMatrix type="matrix" values="0 0 0 0 1 0 0 0 0 1 0 0 0 0 1 0 0 0 0.6 0"/>
<feBlend mode="normal" in2="effect3_innerShadow_7816_28168" result="effect4_innerShadow_7816_28168"/>
</filter>
<linearGradient id="paint0_linear_7816_28168" x1="-164.714" y1="30.4936" x2="-141.957" y2="185.577" gradientUnits="userSpaceOnUse">
<stop stop-color="#FF384C" stop-opacity="0.9"/>
<stop offset="0.4418" stop-color="#66161E" stop-opacity="0.62"/>
<stop offset="0.714844" stop-color="#99222E" stop-opacity="0.92"/>
<stop offset="1" stop-color="#FF384C" stop-opacity="0.88"/>
</linearGradient>
<linearGradient id="paint1_linear_7816_28168" x1="-222.147" y1="41.6906" x2="-188.158" y2="219.936" gradientUnits="userSpaceOnUse">
<stop stop-color="#FFCBCB"/>
<stop offset="0.509124" stop-color="#FFA8A8" stop-opacity="0.21"/>
<stop offset="1" stop-color="#FFCACA"/>
</linearGradient>
<linearGradient id="paint2_linear_7816_28168" x1="15.491" y1="84.1415" x2="31.9496" y2="84.1415" gradientUnits="userSpaceOnUse">
<stop stop-color="white"/>
<stop offset="1" stop-color="white" stop-opacity="0.01"/>
</linearGradient>
<linearGradient id="paint3_linear_7816_28168" x1="176.682" y1="105.285" x2="177.042" y2="115.483" gradientUnits="userSpaceOnUse">
<stop stop-color="#FF384C" stop-opacity="0.9"/>
<stop offset="0.4418" stop-color="#66161E" stop-opacity="0.62"/>
<stop offset="0.714844" stop-color="#99222E" stop-opacity="0.92"/>
<stop offset="1" stop-color="#FF384C" stop-opacity="0.88"/>
</linearGradient>
<linearGradient id="paint4_linear_7816_28168" x1="161.304" y1="106.007" x2="161.849" y2="117.888" gradientUnits="userSpaceOnUse">
<stop stop-color="#FFCBCB"/>
<stop offset="0.509124" stop-color="#FFA8A8" stop-opacity="0.21"/>
<stop offset="1" stop-color="#FFCACA"/>
</linearGradient>
</defs>
</svg>
