<?xml version="1.0" standalone="no"?><!DOCTYPE svg PUBLIC "-//W3C//DTD SVG 1.1//EN" "http://www.w3.org/Graphics/SVG/1.1/DTD/svg11.dtd"><svg t="1738921877248" class="icon" viewBox="0 0 1024 1024" version="1.1" xmlns="http://www.w3.org/2000/svg" p-id="5603" xmlns:xlink="http://www.w3.org/1999/xlink" width="200" height="200"><path d="M596.042667 197.674667l-16.586667 61.813333a261.013333 261.013333 0 0 0-142.922667 2.314667l-10.186666-30.357334-9.194667-30.656 0.938667-0.277333a325.610667 325.610667 0 0 1 177.952-2.837333zM261.802667 587.466667a245.013333 245.013333 0 0 1-2.037334-7.125334l-61.76 16.768a325.258667 325.258667 0 0 0 91.733334 152.522667l43.68-46.773333a261.12 261.12 0 0 1-71.616-115.392z m504.725333-16.010667a262.016 262.016 0 0 1-69.408 125.088l45.376 45.141333c42.666667-42.890667 72.522667-96.693333 86.346667-155.605333l-62.314667-14.624zM682.176 449.386667c16.725333 45.450667 14.752 94.698667-5.557333 138.666666s-56.544 77.397333-102.005334 94.122667a181.397333 181.397333 0 0 1-62.72 11.253333 180.8 180.8 0 0 1-75.957333-16.810666 180.138667 180.138667 0 0 1-94.122667-102.005334c-16.725333-45.450667-14.752-94.698667 5.568-138.666666s56.544-77.397333 102.005334-94.122667a180.213333 180.213333 0 0 1 138.666666 5.568 180.117333 180.117333 0 0 1 94.122667 101.994667z m-80.085333 29.472a95.392 95.392 0 0 0-49.834667-54.005334 95.573333 95.573333 0 0 0-40.202667-8.906666c-11.178667 0-22.4 1.984-33.205333 5.962666-24.064 8.853333-43.242667 26.549333-54.005333 49.824s-11.797333 49.344-2.944 73.418667a95.36 95.36 0 0 0 49.824 53.994667 95.36 95.36 0 0 0 73.418666 2.944 95.338667 95.338667 0 0 0 53.994667-49.834667 95.253333 95.253333 0 0 0 2.954667-73.397333z m-236.192-363.946667a423.125333 423.125333 0 0 1 289.290666-1.077333l21.685334-60.213334a487.466667 487.466667 0 0 0-333.077334 1.226667l-1.162666 0.437333c-0.405333 0.149333 22.410667 59.946667 22.410666 59.946667l0.853334-0.32z m-250.986667 543.189333A427.082667 427.082667 0 0 1 95.68 587.946667l-62.944 11.562666a490.954667 490.954667 0 0 0 22.112 80.693334 486.933333 486.933333 0 0 0 146.122667 206.773333l40.810666-49.290667a422.901333 422.901333 0 0 1-126.869333-179.584z m814.186667-74.517333a424.661333 424.661333 0 0 1-143.445334 251.328l41.376 48.810667c87.029333-73.770667 145.674667-176.501333 165.130667-289.237334l-63.061333-10.901333z" p-id="5604" fill="#0099FF"></path></svg>