<svg width="94" height="139" viewBox="0 0 94 139" fill="none" xmlns="http://www.w3.org/2000/svg">
<g filter="url(#filter0_ddi_3778_32703)">
<path d="M12 19C12 13.4772 16.4772 9 22 9L72 9C77.5229 9 82 13.4772 82 19V69C82 74.5229 77.5229 79 72 79H37.3325H29H22C16.4772 79 12 74.5229 12 69L12 19Z" fill="url(#paint0_linear_3778_32703)"/>
<path d="M12.5 19C12.5 13.7533 16.7533 9.5 22 9.5H72C77.2467 9.5 81.5 13.7533 81.5 19V69C81.5 74.2467 77.2467 78.5 72 78.5H37.3325H29H22C16.7533 78.5 12.5 74.2467 12.5 69V19Z" stroke="url(#paint1_linear_3778_32703)"/>
</g>
<path d="M20.8809 67V60.64H18.4209V60H24.0809V60.64H21.6209V67H20.8809ZM26.7962 67.05C26.2495 67.05 25.7695 66.9367 25.3562 66.71C24.9428 66.4767 24.6195 66.16 24.3862 65.76C24.1528 65.3533 24.0362 64.89 24.0362 64.37C24.0362 63.85 24.1462 63.39 24.3662 62.99C24.5928 62.59 24.8995 62.2767 25.2862 62.05C25.6795 61.8167 26.1195 61.7 26.6062 61.7C27.0995 61.7 27.5362 61.8133 27.9162 62.04C28.3028 62.26 28.6062 62.5733 28.8262 62.98C29.0462 63.38 29.1562 63.8433 29.1562 64.37C29.1562 64.4033 29.1528 64.44 29.1462 64.48C29.1462 64.5133 29.1462 64.55 29.1462 64.59H24.5762V64.06H28.7662L28.4862 64.27C28.4862 63.89 28.4028 63.5533 28.2362 63.26C28.0762 62.96 27.8562 62.7267 27.5762 62.56C27.2962 62.3933 26.9728 62.31 26.6062 62.31C26.2462 62.31 25.9228 62.3933 25.6362 62.56C25.3495 62.7267 25.1262 62.96 24.9662 63.26C24.8062 63.56 24.7262 63.9033 24.7262 64.29V64.4C24.7262 64.8 24.8128 65.1533 24.9862 65.46C25.1662 65.76 25.4128 65.9967 25.7262 66.17C26.0462 66.3367 26.4095 66.42 26.8162 66.42C27.1362 66.42 27.4328 66.3633 27.7062 66.25C27.9862 66.1367 28.2262 65.9633 28.4262 65.73L28.8262 66.19C28.5928 66.47 28.2995 66.6833 27.9462 66.83C27.5995 66.9767 27.2162 67.05 26.7962 67.05ZM37.1613 61.7C37.588 61.7 37.958 61.7833 38.2713 61.95C38.5913 62.11 38.838 62.3567 39.0113 62.69C39.1913 63.0233 39.2813 63.4433 39.2813 63.95V67H38.5713V64.02C38.5713 63.4667 38.438 63.05 38.1713 62.77C37.9113 62.4833 37.5413 62.34 37.0613 62.34C36.7013 62.34 36.388 62.4167 36.1213 62.57C35.8613 62.7167 35.658 62.9333 35.5113 63.22C35.3713 63.5 35.3013 63.84 35.3013 64.24V67H34.5913V64.02C34.5913 63.4667 34.458 63.05 34.1913 62.77C33.9247 62.4833 33.5513 62.34 33.0713 62.34C32.718 62.34 32.408 62.4167 32.1413 62.57C31.8747 62.7167 31.668 62.9333 31.5213 63.22C31.3813 63.5 31.3113 63.84 31.3113 64.24V67H30.6013V61.75H31.2813V63.17L31.1713 62.92C31.3313 62.54 31.588 62.2433 31.9413 62.03C32.3013 61.81 32.7247 61.7 33.2113 61.7C33.7247 61.7 34.1613 61.83 34.5213 62.09C34.8813 62.3433 35.1147 62.7267 35.2213 63.24L34.9413 63.13C35.0947 62.7033 35.3647 62.36 35.7513 62.1C36.1447 61.8333 36.6147 61.7 37.1613 61.7ZM43.9168 67.05C43.4635 67.05 43.0535 66.9467 42.6868 66.74C42.3201 66.5267 42.0268 66.2233 41.8068 65.83C41.5935 65.43 41.4868 64.9433 41.4868 64.37C41.4868 63.7967 41.5935 63.3133 41.8068 62.92C42.0201 62.52 42.3101 62.2167 42.6768 62.01C43.0435 61.8033 43.4568 61.7 43.9168 61.7C44.4168 61.7 44.8635 61.8133 45.2568 62.04C45.6568 62.26 45.9701 62.5733 46.1968 62.98C46.4235 63.38 46.5368 63.8433 46.5368 64.37C46.5368 64.9033 46.4235 65.37 46.1968 65.77C45.9701 66.17 45.6568 66.4833 45.2568 66.71C44.8635 66.9367 44.4168 67.05 43.9168 67.05ZM41.2068 68.94V61.75H41.8868V63.33L41.8168 64.38L41.9168 65.44V68.94H41.2068ZM43.8668 66.42C44.2401 66.42 44.5735 66.3367 44.8668 66.17C45.1601 65.9967 45.3935 65.7567 45.5668 65.45C45.7401 65.1367 45.8268 64.7767 45.8268 64.37C45.8268 63.9633 45.7401 63.6067 45.5668 63.3C45.3935 62.9933 45.1601 62.7533 44.8668 62.58C44.5735 62.4067 44.2401 62.32 43.8668 62.32C43.4935 62.32 43.1568 62.4067 42.8568 62.58C42.5635 62.7533 42.3301 62.9933 42.1568 63.3C41.9901 63.6067 41.9068 63.9633 41.9068 64.37C41.9068 64.7767 41.9901 65.1367 42.1568 65.45C42.3301 65.7567 42.5635 65.9967 42.8568 66.17C43.1568 66.3367 43.4935 66.42 43.8668 66.42ZM47.9841 67V61.75H48.6641V63.18L48.5941 62.93C48.7408 62.53 48.9875 62.2267 49.3341 62.02C49.6808 61.8067 50.1108 61.7 50.6241 61.7V62.39C50.5975 62.39 50.5708 62.39 50.5441 62.39C50.5175 62.3833 50.4908 62.38 50.4641 62.38C49.9108 62.38 49.4775 62.55 49.1641 62.89C48.8508 63.2233 48.6941 63.7 48.6941 64.32V67H47.9841ZM54.1009 67.05C53.5542 67.05 53.0742 66.9367 52.6609 66.71C52.2475 66.4767 51.9242 66.16 51.6909 65.76C51.4575 65.3533 51.3409 64.89 51.3409 64.37C51.3409 63.85 51.4509 63.39 51.6709 62.99C51.8975 62.59 52.2042 62.2767 52.5909 62.05C52.9842 61.8167 53.4242 61.7 53.9109 61.7C54.4042 61.7 54.8409 61.8133 55.2209 62.04C55.6075 62.26 55.9109 62.5733 56.1309 62.98C56.3509 63.38 56.4609 63.8433 56.4609 64.37C56.4609 64.4033 56.4575 64.44 56.4509 64.48C56.4509 64.5133 56.4509 64.55 56.4509 64.59H51.8809V64.06H56.0709L55.7909 64.27C55.7909 63.89 55.7075 63.5533 55.5409 63.26C55.3809 62.96 55.1609 62.7267 54.8809 62.56C54.6009 62.3933 54.2775 62.31 53.9109 62.31C53.5509 62.31 53.2275 62.3933 52.9409 62.56C52.6542 62.7267 52.4309 62.96 52.2709 63.26C52.1109 63.56 52.0309 63.9033 52.0309 64.29V64.4C52.0309 64.8 52.1175 65.1533 52.2909 65.46C52.4709 65.76 52.7175 65.9967 53.0309 66.17C53.3509 66.3367 53.7142 66.42 54.1209 66.42C54.4409 66.42 54.7375 66.3633 55.0109 66.25C55.2909 66.1367 55.5309 65.9633 55.7309 65.73L56.1309 66.19C55.8975 66.47 55.6042 66.6833 55.2509 66.83C54.9042 66.9767 54.5209 67.05 54.1009 67.05ZM59.566 67.05C59.0727 67.05 58.6927 66.9167 58.426 66.65C58.1593 66.3833 58.026 66.0067 58.026 65.52V60.59H58.736V65.48C58.736 65.7867 58.8127 66.0233 58.966 66.19C59.126 66.3567 59.3527 66.44 59.646 66.44C59.9593 66.44 60.2193 66.35 60.426 66.17L60.676 66.68C60.536 66.8067 60.366 66.9 60.166 66.96C59.9727 67.02 59.7727 67.05 59.566 67.05ZM57.086 62.34V61.75H60.336V62.34H57.086ZM64.1385 67.05C63.6918 67.05 63.3018 66.9667 62.9685 66.8C62.6352 66.6333 62.3752 66.3833 62.1885 66.05C62.0085 65.7167 61.9185 65.3 61.9185 64.8V61.75H62.6285V64.72C62.6285 65.28 62.7652 65.7033 63.0385 65.99C63.3185 66.27 63.7085 66.41 64.2085 66.41C64.5752 66.41 64.8918 66.3367 65.1585 66.19C65.4318 66.0367 65.6385 65.8167 65.7785 65.53C65.9252 65.2433 65.9985 64.9 65.9985 64.5V61.75H66.7085V67H66.0285V65.56L66.1385 65.82C65.9718 66.2067 65.7118 66.51 65.3585 66.73C65.0118 66.9433 64.6052 67.05 64.1385 67.05ZM68.6873 67V61.75H69.3673V63.18L69.2973 62.93C69.4439 62.53 69.6906 62.2267 70.0373 62.02C70.3839 61.8067 70.8139 61.7 71.3273 61.7V62.39C71.3006 62.39 71.2739 62.39 71.2473 62.39C71.2206 62.3833 71.1939 62.38 71.1673 62.38C70.6139 62.38 70.1806 62.55 69.8673 62.89C69.5539 63.2233 69.3973 63.7 69.3973 64.32V67H68.6873ZM74.804 67.05C74.2573 67.05 73.7773 66.9367 73.364 66.71C72.9507 66.4767 72.6273 66.16 72.394 65.76C72.1607 65.3533 72.044 64.89 72.044 64.37C72.044 63.85 72.154 63.39 72.374 62.99C72.6007 62.59 72.9073 62.2767 73.294 62.05C73.6873 61.8167 74.1273 61.7 74.614 61.7C75.1073 61.7 75.544 61.8133 75.924 62.04C76.3107 62.26 76.614 62.5733 76.834 62.98C77.054 63.38 77.164 63.8433 77.164 64.37C77.164 64.4033 77.1607 64.44 77.154 64.48C77.154 64.5133 77.154 64.55 77.154 64.59H72.584V64.06H76.774L76.494 64.27C76.494 63.89 76.4107 63.5533 76.244 63.26C76.084 62.96 75.864 62.7267 75.584 62.56C75.304 62.3933 74.9807 62.31 74.614 62.31C74.254 62.31 73.9307 62.3933 73.644 62.56C73.3573 62.7267 73.134 62.96 72.974 63.26C72.814 63.56 72.734 63.9033 72.734 64.29V64.4C72.734 64.8 72.8207 65.1533 72.994 65.46C73.174 65.76 73.4207 65.9967 73.734 66.17C74.054 66.3367 74.4173 66.42 74.824 66.42C75.144 66.42 75.4407 66.3633 75.714 66.25C75.994 66.1367 76.234 65.9633 76.434 65.73L76.834 66.19C76.6007 66.47 76.3073 66.6833 75.954 66.83C75.6073 66.9767 75.224 67.05 74.804 67.05Z" fill="white"/>
<g filter="url(#filter1_ddii_3778_32703)">
<path d="M41.6665 28.9998C41.6665 27.5853 42.2284 26.2288 43.2286 25.2286C44.2288 24.2284 45.5853 23.6665 46.9998 23.6665C48.4143 23.6665 49.7709 24.2284 50.7711 25.2286C51.7713 26.2288 52.3332 27.5853 52.3332 28.9998V33.3398C53.9638 34.4753 55.1895 36.1015 55.8319 37.9818C56.4743 39.8621 56.4999 41.8983 55.9049 43.7942C55.3098 45.69 54.1253 47.3465 52.5237 48.5225C50.922 49.6984 48.9869 50.3326 46.9998 50.3326C45.0128 50.3326 43.0777 49.6984 41.476 48.5225C39.8744 47.3465 38.6898 45.69 38.0948 43.7942C37.4998 41.8983 37.5253 39.8621 38.1677 37.9818C38.8101 36.1015 40.0359 34.4753 41.6665 33.3398V28.9998ZM43.1918 35.5265C42.0267 36.3373 41.1508 37.4988 40.6916 38.8419C40.2325 40.1851 40.2139 41.6397 40.6388 42.9941C41.0637 44.3484 41.9098 45.5319 43.0539 46.372C44.198 47.2122 45.5804 47.6652 46.9998 47.6652C48.4193 47.6652 49.8017 47.2122 50.9458 46.372C52.0899 45.5319 52.936 44.3484 53.3608 42.9941C53.7857 41.6397 53.7672 40.1851 53.308 38.8419C52.8488 37.4988 51.9729 36.3373 50.8078 35.5265L49.6665 34.7305V28.9998C49.6665 28.2926 49.3856 27.6143 48.8855 27.1142C48.3854 26.6141 47.7071 26.3332 46.9998 26.3332C46.2926 26.3332 45.6143 26.6141 45.1142 27.1142C44.6141 27.6143 44.3332 28.2926 44.3332 28.9998V34.7305L43.1918 35.5265ZM45.6665 35.8345V28.9998C45.6665 28.2635 46.2635 27.6665 46.9998 27.6665C47.7362 27.6665 48.3332 28.2635 48.3332 28.9998V35.8345C49.5872 36.1621 50.679 36.935 51.4049 38.0087C52.1308 39.0825 52.441 40.3837 52.2778 41.6695C52.1145 42.9552 51.4888 44.1376 50.5175 44.9958C49.5463 45.854 48.2959 46.3294 46.9998 46.3332C45.7008 46.3345 44.446 45.8616 43.4709 45.0033C42.4958 44.1451 41.8674 42.9604 41.7037 41.6718C41.5401 40.3831 41.8524 39.079 42.582 38.0043C43.3116 36.9295 44.4084 36.158 45.6665 35.8345Z" fill="white"/>
</g>
<path d="M47 114.943L47 79.0223" stroke="url(#paint2_linear_3778_32703)" stroke-width="1.15425" stroke-linecap="square"/>
<mask id="mask0_3778_32703" style="mask-type:alpha" maskUnits="userSpaceOnUse" x="34" y="114" width="26" height="26">
<circle cx="47" cy="127" r="12.3041" fill="white" stroke="#B2E0FF" stroke-width="0.60819"/>
</mask>
<g mask="url(#mask0_3778_32703)">
<g filter="url(#filter2_if_3778_32703)">
<circle cx="47.1521" cy="126.873" r="3.64914" fill="white"/>
</g>
<circle opacity="0.537993" cx="47" cy="127.025" r="9.57899" stroke="#B2E0FF" stroke-width="0.60819"/>
<circle cx="47.0003" cy="127.025" r="9.88309" transform="rotate(8 47.0003 127.025)" stroke="#B2E0FF" stroke-width="1.21638" stroke-dasharray="15.2"/>
<circle cx="47.0004" cy="127.025" r="8.00209" stroke="#B2E0FF" stroke-width="1.21638" stroke-dasharray="0 0.91"/>
</g>
<defs>
<filter id="filter0_ddi_3778_32703" x="0" y="0" width="94" height="97" filterUnits="userSpaceOnUse" color-interpolation-filters="sRGB">
<feFlood flood-opacity="0" result="BackgroundImageFix"/>
<feColorMatrix in="SourceAlpha" type="matrix" values="0 0 0 0 0 0 0 0 0 0 0 0 0 0 0 0 0 0 127 0" result="hardAlpha"/>
<feOffset/>
<feGaussianBlur stdDeviation="4.5"/>
<feColorMatrix type="matrix" values="0 0 0 0 0 0 0 0 0 0.6 0 0 0 0 1 0 0 0 0.42 0"/>
<feBlend mode="normal" in2="BackgroundImageFix" result="effect1_dropShadow_3778_32703"/>
<feColorMatrix in="SourceAlpha" type="matrix" values="0 0 0 0 0 0 0 0 0 0 0 0 0 0 0 0 0 0 127 0" result="hardAlpha"/>
<feOffset dy="6"/>
<feGaussianBlur stdDeviation="6"/>
<feColorMatrix type="matrix" values="0 0 0 0 0.0352941 0 0 0 0 0.168627 0 0 0 0 0.345098 0 0 0 0.63 0"/>
<feBlend mode="normal" in2="effect1_dropShadow_3778_32703" result="effect2_dropShadow_3778_32703"/>
<feBlend mode="normal" in="SourceGraphic" in2="effect2_dropShadow_3778_32703" result="shape"/>
<feColorMatrix in="SourceAlpha" type="matrix" values="0 0 0 0 0 0 0 0 0 0 0 0 0 0 0 0 0 0 127 0" result="hardAlpha"/>
<feOffset/>
<feGaussianBlur stdDeviation="20.5"/>
<feComposite in2="hardAlpha" operator="arithmetic" k2="-1" k3="1"/>
<feColorMatrix type="matrix" values="0 0 0 0 0 0 0 0 0 0.6 0 0 0 0 1 0 0 0 0.67 0"/>
<feBlend mode="normal" in2="shape" result="effect3_innerShadow_3778_32703"/>
</filter>
<filter id="filter1_ddii_3778_32703" x="19.8571" y="9.85714" width="55.1429" height="55.1429" filterUnits="userSpaceOnUse" color-interpolation-filters="sRGB">
<feFlood flood-opacity="0" result="BackgroundImageFix"/>
<feColorMatrix in="SourceAlpha" type="matrix" values="0 0 0 0 0 0 0 0 0 0 0 0 0 0 0 0 0 0 127 0" result="hardAlpha"/>
<feOffset dx="2.57143" dy="2.57143"/>
<feGaussianBlur stdDeviation="4.71429"/>
<feComposite in2="hardAlpha" operator="out"/>
<feColorMatrix type="matrix" values="0 0 0 0 0.321569 0 0 0 0 0.435294 0 0 0 0 1 0 0 0 1 0"/>
<feBlend mode="normal" in2="BackgroundImageFix" result="effect1_dropShadow_3778_32703"/>
<feColorMatrix in="SourceAlpha" type="matrix" values="0 0 0 0 0 0 0 0 0 0 0 0 0 0 0 0 0 0 127 0" result="hardAlpha"/>
<feOffset dx="-2.57143" dy="-2.57143"/>
<feGaussianBlur stdDeviation="4.28571"/>
<feComposite in2="hardAlpha" operator="out"/>
<feColorMatrix type="matrix" values="0 0 0 0 1 0 0 0 0 1 0 0 0 0 1 0 0 0 0.4 0"/>
<feBlend mode="normal" in2="effect1_dropShadow_3778_32703" result="effect2_dropShadow_3778_32703"/>
<feBlend mode="normal" in="SourceGraphic" in2="effect2_dropShadow_3778_32703" result="shape"/>
<feColorMatrix in="SourceAlpha" type="matrix" values="0 0 0 0 0 0 0 0 0 0 0 0 0 0 0 0 0 0 127 0" result="hardAlpha"/>
<feOffset dy="-1.28571"/>
<feGaussianBlur stdDeviation="0.985714"/>
<feComposite in2="hardAlpha" operator="arithmetic" k2="-1" k3="1"/>
<feColorMatrix type="matrix" values="0 0 0 0 0 0 0 0 0 0.598039 0 0 0 0 1 0 0 0 0.4 0"/>
<feBlend mode="normal" in2="shape" result="effect3_innerShadow_3778_32703"/>
<feColorMatrix in="SourceAlpha" type="matrix" values="0 0 0 0 0 0 0 0 0 0 0 0 0 0 0 0 0 0 127 0" result="hardAlpha"/>
<feOffset dy="-0.428571"/>
<feGaussianBlur stdDeviation="0.557143"/>
<feComposite in2="hardAlpha" operator="arithmetic" k2="-1" k3="1"/>
<feColorMatrix type="matrix" values="0 0 0 0 1 0 0 0 0 1 0 0 0 0 1 0 0 0 0.6 0"/>
<feBlend mode="normal" in2="effect3_innerShadow_3778_32703" result="effect4_innerShadow_3778_32703"/>
</filter>
<filter id="filter2_if_3778_32703" x="42.6763" y="122.397" width="8.95157" height="8.95157" filterUnits="userSpaceOnUse" color-interpolation-filters="sRGB">
<feFlood flood-opacity="0" result="BackgroundImageFix"/>
<feBlend mode="normal" in="SourceGraphic" in2="BackgroundImageFix" result="shape"/>
<feColorMatrix in="SourceAlpha" type="matrix" values="0 0 0 0 0 0 0 0 0 0 0 0 0 0 0 0 0 0 127 0" result="hardAlpha"/>
<feOffset/>
<feGaussianBlur stdDeviation="1.5"/>
<feComposite in2="hardAlpha" operator="arithmetic" k2="-1" k3="1"/>
<feColorMatrix type="matrix" values="0 0 0 0 0.498039 0 0 0 0 0.8 0 0 0 0 1 0 0 0 1 0"/>
<feBlend mode="normal" in2="shape" result="effect1_innerShadow_3778_32703"/>
<feGaussianBlur stdDeviation="0.413308" result="effect2_foregroundBlur_3778_32703"/>
</filter>
<linearGradient id="paint0_linear_3778_32703" x1="-17.4523" y1="23.4668" x2="29.314" y2="102.383" gradientUnits="userSpaceOnUse">
<stop stop-color="#005BCD" stop-opacity="0.9"/>
<stop offset="0.4418" stop-color="#002E5E" stop-opacity="0.62"/>
<stop offset="0.714844" stop-color="#003E90" stop-opacity="0.92"/>
<stop offset="1" stop-color="#0059CD" stop-opacity="0.88"/>
</linearGradient>
<linearGradient id="paint1_linear_3778_32703" x1="-27.0245" y1="31.0033" x2="33.0802" y2="109.052" gradientUnits="userSpaceOnUse">
<stop stop-color="#E5F5FF"/>
<stop offset="0.5" stop-color="#E5F5FF" stop-opacity="0.2"/>
<stop offset="1" stop-color="#E5F5FF"/>
</linearGradient>
<linearGradient id="paint2_linear_3778_32703" x1="47" y1="79" x2="47" y2="115" gradientUnits="userSpaceOnUse">
<stop stop-color="#B2E0FF"/>
<stop offset="1" stop-color="#B2E0FF" stop-opacity="0"/>
</linearGradient>
</defs>
</svg>
