<svg width="368" height="131" viewBox="0 0 368 131" fill="none" xmlns="http://www.w3.org/2000/svg">
<g opacity="0.6">
<g filter="url(#filter0_ddi_5816_39309)">
<path d="M12 19C12 13.4772 16.4772 9 22 9L346 9C351.523 9 356 13.4772 356 19V90.4705C356 95.9934 351.523 100.471 346 100.471H228.466C225.118 100.471 221.993 102.146 220.139 104.933L217.742 108.538C215.888 111.325 212.762 113 209.415 113H22C16.4772 113 12 108.523 12 103L12 19Z" fill="url(#paint0_linear_5816_39309)"/>
<path d="M12.5 19C12.5 13.7533 16.7533 9.5 22 9.5H346C351.247 9.5 355.5 13.7533 355.5 19V90.4705C355.5 95.7172 351.247 99.9705 346 99.9705H228.466C224.951 99.9705 221.669 101.729 219.722 104.656L217.325 108.261C215.564 110.909 212.595 112.5 209.415 112.5H22C16.7533 112.5 12.5 108.247 12.5 103V19Z" stroke="url(#paint1_linear_5816_39309)"/>
</g>
<path opacity="0.72454" fill-rule="evenodd" clip-rule="evenodd" d="M14.8496 33.3408L19.1246 42.3408V76.1124L14.8496 85.1124V33.3408ZM21.2621 44.1408L25.5371 53.1408V65.3124L21.2621 74.3124V44.1408ZM31.9496 59.2266L27.6746 53.1408V65.3124L31.9496 59.2266Z" fill="url(#paint2_linear_5816_39309)"/>
<g filter="url(#filter1_ddi_5816_39309)">
<mask id="path-4-inside-1_5816_39309" fill="white">
<path fill-rule="evenodd" clip-rule="evenodd" d="M229.301 106.671C230.066 105.471 229.204 103.9 227.781 103.9C227.166 103.9 226.593 104.214 226.262 104.733L224.286 107.832C223.521 109.031 224.382 110.603 225.805 110.603C226.421 110.603 226.994 110.289 227.325 109.77L229.301 106.671ZM236.426 106.671C237.191 105.471 236.329 103.9 234.906 103.9C234.291 103.9 233.718 104.214 233.387 104.733L231.411 107.832C230.646 109.031 231.507 110.603 232.93 110.603C233.546 110.603 234.119 110.289 234.45 109.77L236.426 106.671ZM240.512 104.733C240.843 104.214 241.416 103.9 242.031 103.9C243.454 103.9 244.316 105.471 243.551 106.671L241.575 109.77C241.244 110.289 240.671 110.603 240.055 110.603C238.632 110.603 237.771 109.031 238.536 107.832L240.512 104.733ZM250.676 106.671C251.441 105.471 250.579 103.9 249.156 103.9C248.541 103.9 247.968 104.214 247.637 104.733L245.661 107.832C244.896 109.031 245.757 110.603 247.18 110.603C247.796 110.603 248.369 110.289 248.7 109.77L250.676 106.671ZM254.762 104.733C255.093 104.214 255.666 103.9 256.281 103.9C257.704 103.9 258.566 105.471 257.801 106.671L255.825 109.77C255.494 110.289 254.921 110.603 254.305 110.603C252.882 110.603 252.021 109.031 252.786 107.832L254.762 104.733ZM264.926 106.671C265.691 105.471 264.829 103.9 263.406 103.9C262.791 103.9 262.218 104.214 261.887 104.733L259.911 107.832C259.146 109.031 260.007 110.603 261.43 110.603C262.046 110.603 262.619 110.289 262.95 109.77L264.926 106.671ZM269.012 104.733C269.343 104.214 269.916 103.9 270.531 103.9C271.954 103.9 272.816 105.471 272.051 106.671L270.075 109.77C269.744 110.289 269.171 110.603 268.555 110.603C267.132 110.603 266.271 109.031 267.036 107.832L269.012 104.733ZM279.176 106.671C279.941 105.471 279.079 103.9 277.656 103.9C277.041 103.9 276.468 104.214 276.137 104.733L274.161 107.832C273.396 109.031 274.257 110.603 275.68 110.603C276.296 110.603 276.869 110.289 277.2 109.77L279.176 106.671ZM283.262 104.733C283.593 104.214 284.166 103.9 284.781 103.9C286.204 103.9 287.066 105.471 286.301 106.671L284.325 109.77C283.994 110.289 283.421 110.603 282.805 110.603C281.382 110.603 280.521 109.031 281.286 107.832L283.262 104.733ZM293.426 106.671C294.191 105.471 293.329 103.9 291.906 103.9C291.291 103.9 290.718 104.214 290.387 104.733L288.411 107.832C287.646 109.031 288.507 110.603 289.93 110.603C290.546 110.603 291.119 110.289 291.45 109.77L293.426 106.671ZM297.512 104.733C297.843 104.214 298.416 103.9 299.031 103.9C300.454 103.9 301.316 105.471 300.551 106.671L298.575 109.77C298.244 110.289 297.671 110.603 297.055 110.603C295.632 110.603 294.771 109.031 295.536 107.832L297.512 104.733ZM307.676 106.671C308.441 105.471 307.579 103.9 306.156 103.9C305.541 103.9 304.968 104.214 304.637 104.733L302.661 107.832C301.896 109.031 302.757 110.603 304.18 110.603C304.796 110.603 305.369 110.289 305.7 109.77L307.676 106.671ZM311.762 104.733C312.093 104.214 312.666 103.9 313.281 103.9C314.704 103.9 315.566 105.471 314.801 106.671L312.825 109.77C312.494 110.289 311.921 110.603 311.305 110.603C309.882 110.603 309.021 109.031 309.786 107.832L311.762 104.733ZM321.926 106.671C322.691 105.471 321.829 103.9 320.406 103.9C319.791 103.9 319.218 104.214 318.887 104.733L316.911 107.832C316.146 109.031 317.007 110.603 318.43 110.603C319.046 110.603 319.619 110.289 319.95 109.77L321.926 106.671ZM326.012 104.733C326.343 104.214 326.916 103.9 327.531 103.9C328.954 103.9 329.816 105.471 329.051 106.671L327.075 109.77C326.744 110.289 326.171 110.603 325.555 110.603C324.132 110.603 323.271 109.031 324.036 107.832L326.012 104.733ZM336.176 106.671C336.941 105.471 336.079 103.9 334.656 103.9C334.041 103.9 333.468 104.214 333.137 104.733L331.161 107.832C330.396 109.031 331.257 110.603 332.68 110.603C333.296 110.603 333.869 110.289 334.2 109.77L336.176 106.671Z"/>
</mask>
<path fill-rule="evenodd" clip-rule="evenodd" d="M229.301 106.671C230.066 105.471 229.204 103.9 227.781 103.9C227.166 103.9 226.593 104.214 226.262 104.733L224.286 107.832C223.521 109.031 224.382 110.603 225.805 110.603C226.421 110.603 226.994 110.289 227.325 109.77L229.301 106.671ZM236.426 106.671C237.191 105.471 236.329 103.9 234.906 103.9C234.291 103.9 233.718 104.214 233.387 104.733L231.411 107.832C230.646 109.031 231.507 110.603 232.93 110.603C233.546 110.603 234.119 110.289 234.45 109.77L236.426 106.671ZM240.512 104.733C240.843 104.214 241.416 103.9 242.031 103.9C243.454 103.9 244.316 105.471 243.551 106.671L241.575 109.77C241.244 110.289 240.671 110.603 240.055 110.603C238.632 110.603 237.771 109.031 238.536 107.832L240.512 104.733ZM250.676 106.671C251.441 105.471 250.579 103.9 249.156 103.9C248.541 103.9 247.968 104.214 247.637 104.733L245.661 107.832C244.896 109.031 245.757 110.603 247.18 110.603C247.796 110.603 248.369 110.289 248.7 109.77L250.676 106.671ZM254.762 104.733C255.093 104.214 255.666 103.9 256.281 103.9C257.704 103.9 258.566 105.471 257.801 106.671L255.825 109.77C255.494 110.289 254.921 110.603 254.305 110.603C252.882 110.603 252.021 109.031 252.786 107.832L254.762 104.733ZM264.926 106.671C265.691 105.471 264.829 103.9 263.406 103.9C262.791 103.9 262.218 104.214 261.887 104.733L259.911 107.832C259.146 109.031 260.007 110.603 261.43 110.603C262.046 110.603 262.619 110.289 262.95 109.77L264.926 106.671ZM269.012 104.733C269.343 104.214 269.916 103.9 270.531 103.9C271.954 103.9 272.816 105.471 272.051 106.671L270.075 109.77C269.744 110.289 269.171 110.603 268.555 110.603C267.132 110.603 266.271 109.031 267.036 107.832L269.012 104.733ZM279.176 106.671C279.941 105.471 279.079 103.9 277.656 103.9C277.041 103.9 276.468 104.214 276.137 104.733L274.161 107.832C273.396 109.031 274.257 110.603 275.68 110.603C276.296 110.603 276.869 110.289 277.2 109.77L279.176 106.671ZM283.262 104.733C283.593 104.214 284.166 103.9 284.781 103.9C286.204 103.9 287.066 105.471 286.301 106.671L284.325 109.77C283.994 110.289 283.421 110.603 282.805 110.603C281.382 110.603 280.521 109.031 281.286 107.832L283.262 104.733ZM293.426 106.671C294.191 105.471 293.329 103.9 291.906 103.9C291.291 103.9 290.718 104.214 290.387 104.733L288.411 107.832C287.646 109.031 288.507 110.603 289.93 110.603C290.546 110.603 291.119 110.289 291.45 109.77L293.426 106.671ZM297.512 104.733C297.843 104.214 298.416 103.9 299.031 103.9C300.454 103.9 301.316 105.471 300.551 106.671L298.575 109.77C298.244 110.289 297.671 110.603 297.055 110.603C295.632 110.603 294.771 109.031 295.536 107.832L297.512 104.733ZM307.676 106.671C308.441 105.471 307.579 103.9 306.156 103.9C305.541 103.9 304.968 104.214 304.637 104.733L302.661 107.832C301.896 109.031 302.757 110.603 304.18 110.603C304.796 110.603 305.369 110.289 305.7 109.77L307.676 106.671ZM311.762 104.733C312.093 104.214 312.666 103.9 313.281 103.9C314.704 103.9 315.566 105.471 314.801 106.671L312.825 109.77C312.494 110.289 311.921 110.603 311.305 110.603C309.882 110.603 309.021 109.031 309.786 107.832L311.762 104.733ZM321.926 106.671C322.691 105.471 321.829 103.9 320.406 103.9C319.791 103.9 319.218 104.214 318.887 104.733L316.911 107.832C316.146 109.031 317.007 110.603 318.43 110.603C319.046 110.603 319.619 110.289 319.95 109.77L321.926 106.671ZM326.012 104.733C326.343 104.214 326.916 103.9 327.531 103.9C328.954 103.9 329.816 105.471 329.051 106.671L327.075 109.77C326.744 110.289 326.171 110.603 325.555 110.603C324.132 110.603 323.271 109.031 324.036 107.832L326.012 104.733ZM336.176 106.671C336.941 105.471 336.079 103.9 334.656 103.9C334.041 103.9 333.468 104.214 333.137 104.733L331.161 107.832C330.396 109.031 331.257 110.603 332.68 110.603C333.296 110.603 333.869 110.289 334.2 109.77L336.176 106.671Z" fill="url(#paint3_linear_5816_39309)"/>
<path d="M334.2 109.77L333.356 109.232L334.2 109.77ZM331.161 107.832L330.318 107.294L331.161 107.832ZM336.176 106.671L337.019 107.209L336.176 106.671ZM333.137 104.733L333.98 105.271L333.137 104.733ZM324.036 107.832L323.193 107.294L324.036 107.832ZM327.075 109.77L326.231 109.232L327.075 109.77ZM326.012 104.733L326.855 105.271L326.012 104.733ZM329.051 106.671L329.894 107.209L329.051 106.671ZM319.95 109.77L319.106 109.232L319.95 109.77ZM316.911 107.832L316.068 107.294L316.911 107.832ZM321.926 106.671L322.769 107.209L321.926 106.671ZM318.887 104.733L319.73 105.271L318.887 104.733ZM309.786 107.832L308.943 107.294L309.786 107.832ZM312.825 109.77L311.981 109.232L312.825 109.77ZM311.762 104.733L312.605 105.271L311.762 104.733ZM314.801 106.671L315.644 107.209L314.801 106.671ZM305.7 109.77L304.856 109.232L305.7 109.77ZM302.661 107.832L301.818 107.294L302.661 107.832ZM307.676 106.671L308.519 107.209L307.676 106.671ZM304.637 104.733L305.48 105.271L304.637 104.733ZM295.536 107.832L294.693 107.294L295.536 107.832ZM298.575 109.77L297.731 109.232L298.575 109.77ZM297.512 104.733L298.355 105.271L297.512 104.733ZM300.551 106.671L301.394 107.209L300.551 106.671ZM291.45 109.77L290.606 109.232L291.45 109.77ZM288.411 107.832L287.568 107.294L288.411 107.832ZM290.387 104.733L291.23 105.271L290.387 104.733ZM281.286 107.832L280.443 107.294L281.286 107.832ZM284.325 109.77L283.481 109.232L284.325 109.77ZM283.262 104.733L282.419 104.195L283.262 104.733ZM286.301 106.671L287.144 107.209L286.301 106.671ZM277.2 109.77L276.356 109.232L277.2 109.77ZM279.176 106.671L280.019 107.209L279.176 106.671ZM276.137 104.733L275.294 104.195L276.137 104.733ZM267.036 107.832L266.193 107.294L267.036 107.832ZM270.075 109.77L269.231 109.232L270.075 109.77ZM269.012 104.733L268.169 104.195L269.012 104.733ZM272.051 106.671L272.894 107.209L272.051 106.671ZM262.95 109.77L262.106 109.232L262.95 109.77ZM264.926 106.671L265.769 107.209L264.926 106.671ZM261.887 104.733L261.044 104.195L261.887 104.733ZM252.786 107.832L251.943 107.294L252.786 107.832ZM255.825 109.77L256.668 110.308L255.825 109.77ZM250.676 106.671L251.519 107.209L250.676 106.671ZM238.536 107.832L237.693 107.294L238.536 107.832ZM241.575 109.77L242.418 110.308L241.575 109.77ZM236.426 106.671L235.583 106.133L236.426 106.671ZM233.387 104.733L234.23 105.271L233.387 104.733ZM224.286 107.832L225.129 108.369L224.286 107.832ZM226.262 104.733L227.105 105.271L226.262 104.733ZM225.129 108.369L227.105 105.271L225.419 104.195L223.443 107.294L225.129 108.369ZM228.458 106.133L226.481 109.232L228.168 110.308L230.144 107.209L228.458 106.133ZM232.254 108.369L234.23 105.271L232.544 104.195L230.568 107.294L232.254 108.369ZM235.583 106.133L233.606 109.232L235.293 110.308L237.269 107.209L235.583 106.133ZM242.418 110.308L244.394 107.209L242.708 106.133L240.731 109.232L242.418 110.308ZM239.669 104.195L237.693 107.294L239.379 108.369L241.355 105.271L239.669 104.195ZM246.504 108.369L248.48 105.271L246.794 104.195L244.818 107.294L246.504 108.369ZM249.833 106.133L247.856 109.232L249.543 110.308L251.519 107.209L249.833 106.133ZM256.668 110.308L258.644 107.209L256.958 106.133L254.981 109.232L256.668 110.308ZM253.919 104.195L251.943 107.294L253.629 108.369L255.605 105.271L253.919 104.195ZM260.754 108.369L262.73 105.271L261.044 104.195L259.068 107.294L260.754 108.369ZM264.083 106.133L262.106 109.232L263.793 110.308L265.769 107.209L264.083 106.133ZM270.918 110.308L272.894 107.209L271.208 106.133L269.231 109.232L270.918 110.308ZM268.169 104.195L266.193 107.294L267.879 108.369L269.855 105.271L268.169 104.195ZM275.004 108.369L276.98 105.271L275.294 104.195L273.318 107.294L275.004 108.369ZM278.333 106.133L276.356 109.232L278.043 110.308L280.019 107.209L278.333 106.133ZM285.168 110.308L287.144 107.209L285.458 106.133L283.481 109.232L285.168 110.308ZM282.419 104.195L280.443 107.294L282.129 108.369L284.105 105.271L282.419 104.195ZM289.254 108.369L291.23 105.271L289.544 104.195L287.568 107.294L289.254 108.369ZM292.583 106.133L290.606 109.232L292.293 110.308L294.269 107.209L292.583 106.133ZM299.418 110.308L301.394 107.209L299.708 106.133L297.731 109.232L299.418 110.308ZM296.669 104.195L294.693 107.294L296.379 108.369L298.355 105.271L296.669 104.195ZM303.504 108.369L305.48 105.271L303.794 104.195L301.818 107.294L303.504 108.369ZM306.833 106.133L304.856 109.232L306.543 110.308L308.519 107.209L306.833 106.133ZM313.668 110.308L315.644 107.209L313.958 106.133L311.981 109.232L313.668 110.308ZM310.919 104.195L308.943 107.294L310.629 108.369L312.605 105.271L310.919 104.195ZM317.754 108.369L319.73 105.271L318.044 104.195L316.068 107.294L317.754 108.369ZM321.083 106.133L319.106 109.232L320.793 110.308L322.769 107.209L321.083 106.133ZM327.918 110.308L329.894 107.209L328.208 106.133L326.231 109.232L327.918 110.308ZM325.169 104.195L323.193 107.294L324.879 108.369L326.855 105.271L325.169 104.195ZM332.004 108.369L333.98 105.271L332.294 104.195L330.318 107.294L332.004 108.369ZM335.333 106.133L333.356 109.232L335.043 110.308L337.019 107.209L335.333 106.133ZM332.68 111.603C333.637 111.603 334.528 111.114 335.043 110.308L333.356 109.232C333.209 109.463 332.954 109.603 332.68 109.603V111.603ZM330.318 107.294C329.128 109.159 330.468 111.603 332.68 111.603V109.603C332.047 109.603 331.663 108.903 332.004 108.369L330.318 107.294ZM334.656 104.9C335.29 104.9 335.673 105.599 335.333 106.133L337.019 107.209C338.209 105.344 336.869 102.9 334.656 102.9V104.9ZM334.656 102.9C333.699 102.9 332.808 103.388 332.294 104.195L333.98 105.271C334.127 105.04 334.382 104.9 334.656 104.9V102.9ZM325.555 109.603C324.922 109.603 324.538 108.903 324.879 108.369L323.193 107.294C322.003 109.159 323.343 111.603 325.555 111.603V109.603ZM326.231 109.232C326.084 109.463 325.829 109.603 325.555 109.603V111.603C326.512 111.603 327.403 111.114 327.918 110.308L326.231 109.232ZM327.531 102.9C326.574 102.9 325.683 103.388 325.169 104.195L326.855 105.271C327.002 105.04 327.257 104.9 327.531 104.9V102.9ZM327.531 104.9C328.165 104.9 328.548 105.599 328.208 106.133L329.894 107.209C331.084 105.344 329.744 102.9 327.531 102.9V104.9ZM318.43 111.603C319.387 111.603 320.278 111.114 320.793 110.308L319.106 109.232C318.959 109.463 318.704 109.603 318.43 109.603V111.603ZM316.068 107.294C314.878 109.159 316.218 111.603 318.43 111.603V109.603C317.797 109.603 317.413 108.903 317.754 108.369L316.068 107.294ZM320.406 104.9C321.04 104.9 321.423 105.599 321.083 106.133L322.769 107.209C323.959 105.344 322.619 102.9 320.406 102.9V104.9ZM320.406 102.9C319.449 102.9 318.558 103.388 318.044 104.195L319.73 105.271C319.877 105.04 320.132 104.9 320.406 104.9V102.9ZM311.305 109.603C310.672 109.603 310.288 108.903 310.629 108.369L308.943 107.294C307.753 109.159 309.093 111.603 311.305 111.603V109.603ZM311.981 109.232C311.834 109.463 311.579 109.603 311.305 109.603V111.603C312.262 111.603 313.153 111.114 313.668 110.308L311.981 109.232ZM313.281 102.9C312.324 102.9 311.433 103.388 310.919 104.195L312.605 105.271C312.752 105.04 313.007 104.9 313.281 104.9V102.9ZM313.281 104.9C313.915 104.9 314.298 105.599 313.958 106.133L315.644 107.209C316.834 105.344 315.494 102.9 313.281 102.9V104.9ZM304.18 111.603C305.137 111.603 306.028 111.114 306.543 110.308L304.856 109.232C304.709 109.463 304.454 109.603 304.18 109.603V111.603ZM301.818 107.294C300.628 109.159 301.968 111.603 304.18 111.603V109.603C303.547 109.603 303.163 108.903 303.504 108.369L301.818 107.294ZM306.156 104.9C306.79 104.9 307.173 105.599 306.833 106.133L308.519 107.209C309.709 105.344 308.369 102.9 306.156 102.9V104.9ZM306.156 102.9C305.199 102.9 304.308 103.388 303.794 104.195L305.48 105.271C305.627 105.04 305.882 104.9 306.156 104.9V102.9ZM297.055 109.603C296.422 109.603 296.038 108.903 296.379 108.369L294.693 107.294C293.503 109.159 294.843 111.603 297.055 111.603V109.603ZM297.731 109.232C297.584 109.463 297.329 109.603 297.055 109.603V111.603C298.012 111.603 298.903 111.114 299.418 110.308L297.731 109.232ZM299.031 102.9C298.074 102.9 297.183 103.388 296.669 104.195L298.355 105.271C298.502 105.04 298.757 104.9 299.031 104.9V102.9ZM299.031 104.9C299.665 104.9 300.048 105.599 299.708 106.133L301.394 107.209C302.584 105.344 301.244 102.9 299.031 102.9V104.9ZM289.93 111.603C290.887 111.603 291.778 111.114 292.293 110.308L290.606 109.232C290.459 109.463 290.204 109.603 289.93 109.603V111.603ZM287.568 107.294C286.378 109.159 287.718 111.603 289.93 111.603V109.603C289.297 109.603 288.913 108.903 289.254 108.369L287.568 107.294ZM291.906 104.9C292.54 104.9 292.923 105.599 292.583 106.133L294.269 107.209C295.459 105.344 294.119 102.9 291.906 102.9V104.9ZM291.906 102.9C290.949 102.9 290.058 103.388 289.544 104.195L291.23 105.271C291.377 105.04 291.632 104.9 291.906 104.9V102.9ZM282.805 109.603C282.172 109.603 281.788 108.903 282.129 108.369L280.443 107.294C279.253 109.159 280.593 111.603 282.805 111.603V109.603ZM283.481 109.232C283.334 109.463 283.079 109.603 282.805 109.603V111.603C283.762 111.603 284.653 111.114 285.168 110.308L283.481 109.232ZM284.781 102.9C283.824 102.9 282.933 103.388 282.419 104.195L284.105 105.271C284.252 105.04 284.507 104.9 284.781 104.9V102.9ZM284.781 104.9C285.415 104.9 285.798 105.599 285.458 106.133L287.144 107.209C288.334 105.344 286.994 102.9 284.781 102.9V104.9ZM275.68 111.603C276.637 111.603 277.528 111.114 278.043 110.308L276.356 109.232C276.209 109.463 275.954 109.603 275.68 109.603V111.603ZM273.318 107.294C272.128 109.159 273.468 111.603 275.68 111.603V109.603C275.047 109.603 274.663 108.903 275.004 108.369L273.318 107.294ZM277.656 104.9C278.29 104.9 278.673 105.599 278.333 106.133L280.019 107.209C281.209 105.344 279.869 102.9 277.656 102.9V104.9ZM277.656 102.9C276.699 102.9 275.808 103.388 275.294 104.195L276.98 105.271C277.127 105.04 277.382 104.9 277.656 104.9V102.9ZM268.555 109.603C267.922 109.603 267.538 108.903 267.879 108.369L266.193 107.294C265.003 109.159 266.343 111.603 268.555 111.603V109.603ZM269.231 109.232C269.084 109.463 268.829 109.603 268.555 109.603V111.603C269.512 111.603 270.403 111.114 270.918 110.308L269.231 109.232ZM270.531 102.9C269.574 102.9 268.683 103.388 268.169 104.195L269.855 105.271C270.002 105.04 270.257 104.9 270.531 104.9V102.9ZM270.531 104.9C271.165 104.9 271.548 105.599 271.208 106.133L272.894 107.209C274.084 105.344 272.744 102.9 270.531 102.9V104.9ZM261.43 111.603C262.387 111.603 263.278 111.114 263.793 110.308L262.106 109.232C261.959 109.463 261.704 109.603 261.43 109.603V111.603ZM259.068 107.294C257.878 109.159 259.218 111.603 261.43 111.603V109.603C260.797 109.603 260.413 108.903 260.754 108.369L259.068 107.294ZM263.406 104.9C264.04 104.9 264.423 105.599 264.083 106.133L265.769 107.209C266.959 105.344 265.619 102.9 263.406 102.9V104.9ZM263.406 102.9C262.449 102.9 261.558 103.388 261.044 104.195L262.73 105.271C262.877 105.04 263.132 104.9 263.406 104.9V102.9ZM254.305 109.603C253.672 109.603 253.288 108.903 253.629 108.369L251.943 107.294C250.753 109.159 252.093 111.603 254.305 111.603V109.603ZM254.981 109.232C254.834 109.463 254.579 109.603 254.305 109.603V111.603C255.262 111.603 256.153 111.114 256.668 110.308L254.981 109.232ZM256.281 102.9C255.324 102.9 254.433 103.388 253.919 104.195L255.605 105.271C255.752 105.04 256.007 104.9 256.281 104.9V102.9ZM256.281 104.9C256.915 104.9 257.298 105.599 256.958 106.133L258.644 107.209C259.834 105.344 258.494 102.9 256.281 102.9V104.9ZM247.18 111.603C248.137 111.603 249.028 111.114 249.543 110.308L247.856 109.232C247.709 109.463 247.454 109.603 247.18 109.603V111.603ZM244.818 107.294C243.628 109.159 244.968 111.603 247.18 111.603V109.603C246.547 109.603 246.163 108.903 246.504 108.369L244.818 107.294ZM249.156 104.9C249.79 104.9 250.173 105.599 249.833 106.133L251.519 107.209C252.709 105.344 251.369 102.9 249.156 102.9V104.9ZM249.156 102.9C248.199 102.9 247.308 103.388 246.794 104.195L248.48 105.271C248.627 105.04 248.882 104.9 249.156 104.9V102.9ZM240.055 109.603C239.422 109.603 239.038 108.903 239.379 108.369L237.693 107.294C236.503 109.159 237.843 111.603 240.055 111.603V109.603ZM240.731 109.232C240.584 109.463 240.329 109.603 240.055 109.603V111.603C241.012 111.603 241.903 111.114 242.418 110.308L240.731 109.232ZM242.031 102.9C241.074 102.9 240.183 103.388 239.669 104.195L241.355 105.271C241.502 105.04 241.757 104.9 242.031 104.9V102.9ZM242.031 104.9C242.665 104.9 243.048 105.599 242.708 106.133L244.394 107.209C245.584 105.344 244.244 102.9 242.031 102.9V104.9ZM232.93 111.603C233.887 111.603 234.778 111.114 235.293 110.308L233.606 109.232C233.459 109.463 233.204 109.603 232.93 109.603V111.603ZM230.568 107.294C229.378 109.159 230.718 111.603 232.93 111.603V109.603C232.297 109.603 231.913 108.903 232.254 108.369L230.568 107.294ZM234.906 104.9C235.54 104.9 235.923 105.599 235.583 106.133L237.269 107.209C238.459 105.344 237.119 102.9 234.906 102.9V104.9ZM234.906 102.9C233.949 102.9 233.058 103.388 232.544 104.195L234.23 105.271C234.377 105.04 234.632 104.9 234.906 104.9V102.9ZM225.805 111.603C226.762 111.603 227.653 111.114 228.168 110.308L226.481 109.232C226.334 109.463 226.079 109.603 225.805 109.603V111.603ZM223.443 107.294C222.253 109.159 223.593 111.603 225.805 111.603V109.603C225.172 109.603 224.788 108.903 225.129 108.369L223.443 107.294ZM227.781 104.9C228.415 104.9 228.798 105.599 228.458 106.133L230.144 107.209C231.334 105.344 229.994 102.9 227.781 102.9V104.9ZM227.781 102.9C226.824 102.9 225.933 103.388 225.419 104.195L227.105 105.271C227.252 105.04 227.507 104.9 227.781 104.9V102.9Z" fill="url(#paint4_linear_5816_39309)" mask="url(#path-4-inside-1_5816_39309)"/>
</g>
<path d="M45.6228 90V87.6744L55.3698 78.2694C56.2362 77.4486 56.8746 76.7304 57.285 76.1148C57.7182 75.4764 58.0032 74.895 58.14 74.3706C58.2996 73.8234 58.3794 73.299 58.3794 72.7974C58.3794 71.5662 57.9462 70.5972 57.0798 69.8904C56.2134 69.1836 54.948 68.8302 53.2836 68.8302C52.0068 68.8302 50.8554 69.0468 49.8294 69.48C48.8034 69.8904 47.9142 70.5402 47.1618 71.4294L44.8362 69.4116C45.7482 68.2488 46.968 67.3596 48.4956 66.744C50.046 66.1056 51.7446 65.7864 53.5914 65.7864C55.2558 65.7864 56.7036 66.06 57.9348 66.6072C59.166 67.1316 60.1122 67.8954 60.7734 68.8986C61.4574 69.9018 61.7994 71.0874 61.7994 72.4554C61.7994 73.2306 61.6968 73.9944 61.4916 74.7468C61.2864 75.4992 60.8988 76.2972 60.3288 77.1408C59.7588 77.9844 58.938 78.9306 57.8664 79.9794L49.1796 88.3584L48.3588 87.0246H62.8254V90H45.6228ZM72.9561 90.2736C71.2689 90.2736 69.6273 90.0114 68.0313 89.487C66.4581 88.9626 65.1699 88.2558 64.1667 87.3666L65.7399 84.6648C66.5379 85.4172 67.5753 86.0328 68.8521 86.5116C70.1289 86.9904 71.4969 87.2298 72.9561 87.2298C74.7345 87.2298 76.1139 86.8536 77.0943 86.1012C78.0975 85.326 78.5991 84.2886 78.5991 82.989C78.5991 81.735 78.1203 80.7318 77.1627 79.9794C76.2279 79.2042 74.7345 78.8166 72.6825 78.8166H70.7673V76.4226L77.8809 67.6674L78.3597 69.0354H65.2611V66.06H81.0615V68.3856L73.9821 77.1066L72.2037 76.0464H73.3323C76.2279 76.0464 78.3939 76.6962 79.8303 77.9958C81.2895 79.2954 82.0191 80.9484 82.0191 82.9548C82.0191 84.3 81.6885 85.5312 81.0273 86.6484C80.3661 87.7656 79.3629 88.6548 78.0177 89.316C76.6953 89.9544 75.0081 90.2736 72.9561 90.2736Z" fill="white"/>
<path d="M98.1002 90.1111C97.1492 90.1111 96.2971 89.9012 95.5437 89.4813C94.8027 89.0614 94.2161 88.4748 93.7838 87.7214C93.3516 86.9681 93.1355 86.0912 93.1355 85.0909C93.1355 84.0905 93.3516 83.2198 93.7838 82.4788C94.2161 81.7255 94.8027 81.1389 95.5437 80.719C96.2971 80.2991 97.1492 80.0891 98.1002 80.0891C98.9276 80.0891 99.6748 80.2744 100.342 80.6449C101.009 81.0154 101.54 81.5711 101.935 82.3121C102.342 83.0531 102.546 83.9794 102.546 85.0909C102.546 86.2024 102.349 87.1286 101.953 87.8696C101.571 88.6106 101.046 89.1725 100.379 89.5554C99.7118 89.9259 98.9523 90.1111 98.1002 90.1111ZM98.2484 88.555C98.8659 88.555 99.4216 88.413 99.9156 88.129C100.422 87.8449 100.817 87.4435 101.101 86.9248C101.398 86.3938 101.546 85.7825 101.546 85.0909C101.546 84.3869 101.398 83.7818 101.101 83.2754C100.817 82.7567 100.422 82.3553 99.9156 82.0713C99.4216 81.7872 98.8659 81.6452 98.2484 81.6452C97.6185 81.6452 97.0566 81.7872 96.5626 82.0713C96.0686 82.3553 95.6734 82.7567 95.377 83.2754C95.0806 83.7818 94.9324 84.3869 94.9324 85.0909C94.9324 85.7825 95.0806 86.3938 95.377 86.9248C95.6734 87.4435 96.0686 87.8449 96.5626 88.129C97.0566 88.413 97.6185 88.555 98.2484 88.555ZM101.601 90V87.3509L101.713 85.0724L101.527 82.7938V76.2544H103.306V90H101.601ZM111.042 90.1111C109.993 90.1111 109.066 89.895 108.264 89.4628C107.473 89.0305 106.856 88.4377 106.411 87.6844C105.979 86.931 105.763 86.0665 105.763 85.0909C105.763 84.1152 105.973 83.2507 106.393 82.4974C106.825 81.744 107.412 81.1574 108.153 80.7375C108.906 80.3052 109.752 80.0891 110.691 80.0891C111.641 80.0891 112.481 80.2991 113.21 80.719C113.939 81.1389 114.507 81.7317 114.914 82.4974C115.334 83.2507 115.544 84.1337 115.544 85.1464C115.544 85.2205 115.538 85.307 115.526 85.4058C115.526 85.5046 115.519 85.5972 115.507 85.6837H107.152V84.4054H114.581L113.858 84.85C113.871 84.2202 113.741 83.6583 113.469 83.1643C113.198 82.6703 112.821 82.2874 112.339 82.0157C111.87 81.7317 111.32 81.5896 110.691 81.5896C110.073 81.5896 109.523 81.7317 109.042 82.0157C108.56 82.2874 108.183 82.6764 107.912 83.1828C107.64 83.6768 107.504 84.2449 107.504 84.8871V85.1835C107.504 85.838 107.652 86.4247 107.949 86.9434C108.258 87.4497 108.684 87.8449 109.227 88.129C109.77 88.413 110.394 88.555 111.098 88.555C111.679 88.555 112.203 88.4562 112.673 88.2586C113.154 88.061 113.574 87.7646 113.932 87.3694L114.914 88.518C114.47 89.0367 113.914 89.4319 113.247 89.7036C112.592 89.9753 111.858 90.1111 111.042 90.1111ZM122.311 93.705C121.41 93.705 120.533 93.5753 119.681 93.316C118.841 93.069 118.156 92.7108 117.625 92.2415L118.477 90.8707C118.934 91.2659 119.496 91.5746 120.162 91.7969C120.829 92.0316 121.527 92.1489 122.256 92.1489C123.417 92.1489 124.269 91.8772 124.812 91.3338C125.356 90.7904 125.627 89.9629 125.627 88.8514V86.7766L125.813 84.8315L125.72 82.8679V80.1817H127.406V88.6662C127.406 90.3952 126.973 91.6673 126.109 92.4824C125.244 93.2974 123.979 93.705 122.311 93.705ZM122.089 89.5924C121.138 89.5924 120.286 89.3948 119.533 88.9996C118.792 88.5921 118.199 88.0302 117.754 87.3139C117.322 86.5976 117.106 85.7701 117.106 84.8315C117.106 83.8806 117.322 83.0531 117.754 82.3492C118.199 81.6329 118.792 81.0771 119.533 80.6819C120.286 80.2867 121.138 80.0891 122.089 80.0891C122.929 80.0891 123.695 80.262 124.386 80.6078C125.078 80.9413 125.627 81.46 126.035 82.1639C126.455 82.8679 126.665 83.7571 126.665 84.8315C126.665 85.8936 126.455 86.7766 126.035 87.4806C125.627 88.1845 125.078 88.7156 124.386 89.0738C123.695 89.4195 122.929 89.5924 122.089 89.5924ZM122.293 88.0363C122.947 88.0363 123.528 87.9005 124.034 87.6288C124.541 87.3571 124.936 86.9804 125.22 86.4988C125.516 86.0171 125.664 85.4614 125.664 84.8315C125.664 84.2017 125.516 83.6459 125.22 83.1643C124.936 82.6826 124.541 82.3121 124.034 82.0528C123.528 81.7811 122.947 81.6452 122.293 81.6452C121.638 81.6452 121.052 81.7811 120.533 82.0528C120.027 82.3121 119.625 82.6826 119.329 83.1643C119.045 83.6459 118.903 84.2017 118.903 84.8315C118.903 85.4614 119.045 86.0171 119.329 86.4988C119.625 86.9804 120.027 87.3571 120.533 87.6288C121.052 87.9005 121.638 88.0363 122.293 88.0363ZM136.861 90.1482C135.873 90.1482 134.96 89.9876 134.12 89.6665C133.292 89.3331 132.57 88.87 131.952 88.2772C131.347 87.672 130.872 86.9681 130.526 86.1653C130.18 85.3626 130.007 84.4795 130.007 83.5162C130.007 82.5529 130.18 81.6699 130.526 80.8672C130.872 80.0644 131.353 79.3666 131.971 78.7739C132.588 78.1687 133.311 77.7056 134.138 77.3845C134.978 77.051 135.892 76.8843 136.88 76.8843C137.88 76.8843 138.8 77.0572 139.64 77.403C140.492 77.7364 141.215 78.2366 141.808 78.9035L140.603 80.0706C140.109 79.5519 139.554 79.169 138.936 78.922C138.319 78.6627 137.658 78.533 136.954 78.533C136.225 78.533 135.546 78.6565 134.916 78.9035C134.299 79.1505 133.762 79.4963 133.305 79.9409C132.848 80.3855 132.49 80.9166 132.23 81.5341C131.983 82.1392 131.86 82.7999 131.86 83.5162C131.86 84.2325 131.983 84.8994 132.23 85.5169C132.49 86.1221 132.848 86.647 133.305 87.0916C133.762 87.5362 134.299 87.882 134.916 88.129C135.546 88.376 136.225 88.4995 136.954 88.4995C137.658 88.4995 138.319 88.376 138.936 88.129C139.554 87.8696 140.109 87.4744 140.603 86.9434L141.808 88.1104C141.215 88.7773 140.492 89.2837 139.64 89.6295C138.8 89.9753 137.874 90.1482 136.861 90.1482Z" fill="white"/>
<path d="M47.776 45V35.56H44.064V33.8H53.568V35.56H49.856V45H47.776ZM58.078 45.112C57.1287 45.112 56.2967 44.9253 55.582 44.552C54.878 44.168 54.3287 43.6453 53.934 42.984C53.55 42.3227 53.358 41.5707 53.358 40.728C53.358 39.8747 53.5447 39.1227 53.918 38.472C54.302 37.8107 54.8247 37.2933 55.486 36.92C56.158 36.5467 56.9207 36.36 57.774 36.36C58.606 36.36 59.3473 36.5413 59.998 36.904C60.6487 37.2667 61.1607 37.7787 61.534 38.44C61.9073 39.1013 62.094 39.88 62.094 40.776C62.094 40.8613 62.0887 40.9573 62.078 41.064C62.078 41.1707 62.0727 41.272 62.062 41.368H54.942V40.04H61.006L60.222 40.456C60.2327 39.9653 60.1313 39.5333 59.918 39.16C59.7047 38.7867 59.4113 38.4933 59.038 38.28C58.6753 38.0667 58.254 37.96 57.774 37.96C57.2833 37.96 56.8513 38.0667 56.478 38.28C56.1153 38.4933 55.8273 38.792 55.614 39.176C55.4113 39.5493 55.31 39.992 55.31 40.504V40.824C55.31 41.336 55.4273 41.7893 55.662 42.184C55.8967 42.5787 56.2273 42.8827 56.654 43.096C57.0807 43.3093 57.5713 43.416 58.126 43.416C58.606 43.416 59.038 43.3413 59.422 43.192C59.806 43.0427 60.1473 42.808 60.446 42.488L61.518 43.72C61.134 44.168 60.6487 44.5147 60.062 44.76C59.486 44.9947 58.8247 45.112 58.078 45.112ZM74.7991 36.36C75.4818 36.36 76.0845 36.4933 76.6071 36.76C77.1405 37.0267 77.5565 37.4373 77.8551 37.992C78.1538 38.536 78.3031 39.24 78.3031 40.104V45H76.3031V40.36C76.3031 39.6027 76.1378 39.0373 75.8071 38.664C75.4765 38.2907 75.0018 38.104 74.3831 38.104C73.9458 38.104 73.5565 38.2 73.2151 38.392C72.8845 38.584 72.6231 38.8667 72.4311 39.24C72.2498 39.6133 72.1591 40.088 72.1591 40.664V45H70.1591V40.36C70.1591 39.6027 69.9938 39.0373 69.6631 38.664C69.3325 38.2907 68.8578 38.104 68.2391 38.104C67.8018 38.104 67.4125 38.2 67.0711 38.392C66.7405 38.584 66.4791 38.8667 66.2871 39.24C66.1058 39.6133 66.0151 40.088 66.0151 40.664V45H64.0151V36.456H65.9191V38.728L65.5831 38.056C65.8711 37.5013 66.2871 37.08 66.8311 36.792C67.3858 36.504 68.0151 36.36 68.7191 36.36C69.5191 36.36 70.2125 36.5573 70.7991 36.952C71.3965 37.3467 71.7911 37.944 71.9831 38.744L71.1991 38.472C71.4765 37.832 71.9351 37.32 72.5751 36.936C73.2151 36.552 73.9565 36.36 74.7991 36.36ZM85.5949 45.112C84.9015 45.112 84.2669 44.952 83.6909 44.632C83.1255 44.312 82.6722 43.832 82.3309 43.192C82.0002 42.5413 81.8349 41.72 81.8349 40.728C81.8349 39.7253 81.9949 38.904 82.3149 38.264C82.6455 37.624 83.0935 37.1493 83.6589 36.84C84.2242 36.52 84.8695 36.36 85.5949 36.36C86.4375 36.36 87.1789 36.5413 87.8189 36.904C88.4695 37.2667 88.9815 37.7733 89.3549 38.424C89.7389 39.0747 89.9309 39.8427 89.9309 40.728C89.9309 41.6133 89.7389 42.3867 89.3549 43.048C88.9815 43.6987 88.4695 44.2053 87.8189 44.568C87.1789 44.9307 86.4375 45.112 85.5949 45.112ZM80.8589 48.104V36.456H82.7629V38.472L82.6989 40.744L82.8589 43.016V48.104H80.8589ZM85.3709 43.4C85.8509 43.4 86.2775 43.2933 86.6509 43.08C87.0349 42.8667 87.3389 42.5573 87.5629 42.152C87.7869 41.7467 87.8989 41.272 87.8989 40.728C87.8989 40.1733 87.7869 39.6987 87.5629 39.304C87.3389 38.8987 87.0349 38.5893 86.6509 38.376C86.2775 38.1627 85.8509 38.056 85.3709 38.056C84.8909 38.056 84.4589 38.1627 84.0749 38.376C83.6909 38.5893 83.3869 38.8987 83.1629 39.304C82.9389 39.6987 82.8269 40.1733 82.8269 40.728C82.8269 41.272 82.9389 41.7467 83.1629 42.152C83.3869 42.5573 83.6909 42.8667 84.0749 43.08C84.4589 43.2933 84.8909 43.4 85.3709 43.4ZM91.8276 45V36.456H93.7316V38.808L93.5076 38.12C93.7636 37.544 94.1636 37.1067 94.7076 36.808C95.2623 36.5093 95.9503 36.36 96.7716 36.36V38.264C96.6863 38.2427 96.6063 38.232 96.5316 38.232C96.457 38.2213 96.3823 38.216 96.3076 38.216C95.5503 38.216 94.9476 38.44 94.4996 38.888C94.0516 39.3253 93.8276 39.9813 93.8276 40.856V45H91.8276ZM102.406 45.112C101.457 45.112 100.625 44.9253 99.9101 44.552C99.2061 44.168 98.6568 43.6453 98.2621 42.984C97.8781 42.3227 97.6861 41.5707 97.6861 40.728C97.6861 39.8747 97.8728 39.1227 98.2461 38.472C98.6301 37.8107 99.1528 37.2933 99.8141 36.92C100.486 36.5467 101.249 36.36 102.102 36.36C102.934 36.36 103.675 36.5413 104.326 36.904C104.977 37.2667 105.489 37.7787 105.862 38.44C106.235 39.1013 106.422 39.88 106.422 40.776C106.422 40.8613 106.417 40.9573 106.406 41.064C106.406 41.1707 106.401 41.272 106.39 41.368H99.2701V40.04H105.334L104.55 40.456C104.561 39.9653 104.459 39.5333 104.246 39.16C104.033 38.7867 103.739 38.4933 103.366 38.28C103.003 38.0667 102.582 37.96 102.102 37.96C101.611 37.96 101.179 38.0667 100.806 38.28C100.443 38.4933 100.155 38.792 99.9421 39.176C99.7395 39.5493 99.6381 39.992 99.6381 40.504V40.824C99.6381 41.336 99.7555 41.7893 99.9901 42.184C100.225 42.5787 100.555 42.8827 100.982 43.096C101.409 43.3093 101.899 43.416 102.454 43.416C102.934 43.416 103.366 43.3413 103.75 43.192C104.134 43.0427 104.475 42.808 104.774 42.488L105.846 43.72C105.462 44.168 104.977 44.5147 104.39 44.76C103.814 44.9947 103.153 45.112 102.406 45.112ZM111.559 45.112C110.621 45.112 109.895 44.872 109.383 44.392C108.871 43.9013 108.615 43.1813 108.615 42.232V34.568H110.615V42.184C110.615 42.5893 110.717 42.904 110.919 43.128C111.133 43.352 111.426 43.464 111.799 43.464C112.247 43.464 112.621 43.3467 112.919 43.112L113.479 44.536C113.245 44.728 112.957 44.872 112.615 44.968C112.274 45.064 111.922 45.112 111.559 45.112ZM107.207 38.12V36.52H112.903V38.12H107.207ZM118.741 45.112C118.015 45.112 117.375 44.9787 116.821 44.712C116.266 44.4347 115.834 44.0187 115.525 43.464C115.215 42.8987 115.061 42.1893 115.061 41.336V36.456H117.061V41.064C117.061 41.832 117.231 42.408 117.573 42.792C117.925 43.1653 118.421 43.352 119.061 43.352C119.53 43.352 119.935 43.256 120.277 43.064C120.629 42.872 120.901 42.584 121.093 42.2C121.295 41.816 121.397 41.3413 121.397 40.776V36.456H123.397V45H121.493V42.696L121.829 43.4C121.541 43.9547 121.119 44.3813 120.565 44.68C120.01 44.968 119.402 45.112 118.741 45.112ZM126.015 45V36.456H127.919V38.808L127.695 38.12C127.951 37.544 128.351 37.1067 128.895 36.808C129.45 36.5093 130.138 36.36 130.959 36.36V38.264C130.874 38.2427 130.794 38.232 130.719 38.232C130.644 38.2213 130.57 38.216 130.495 38.216C129.738 38.216 129.135 38.44 128.687 38.888C128.239 39.3253 128.015 39.9813 128.015 40.856V45H126.015ZM136.594 45.112C135.644 45.112 134.812 44.9253 134.098 44.552C133.394 44.168 132.844 43.6453 132.45 42.984C132.066 42.3227 131.874 41.5707 131.874 40.728C131.874 39.8747 132.06 39.1227 132.434 38.472C132.818 37.8107 133.34 37.2933 134.002 36.92C134.674 36.5467 135.436 36.36 136.29 36.36C137.122 36.36 137.863 36.5413 138.514 36.904C139.164 37.2667 139.676 37.7787 140.05 38.44C140.423 39.1013 140.61 39.88 140.61 40.776C140.61 40.8613 140.604 40.9573 140.594 41.064C140.594 41.1707 140.588 41.272 140.578 41.368H133.458V40.04H139.522L138.738 40.456C138.748 39.9653 138.647 39.5333 138.434 39.16C138.22 38.7867 137.927 38.4933 137.554 38.28C137.191 38.0667 136.77 37.96 136.29 37.96C135.799 37.96 135.367 38.0667 134.994 38.28C134.631 38.4933 134.343 38.792 134.13 39.176C133.927 39.5493 133.826 39.992 133.826 40.504V40.824C133.826 41.336 133.943 41.7893 134.178 42.184C134.412 42.5787 134.743 42.8827 135.17 43.096C135.596 43.3093 136.087 43.416 136.642 43.416C137.122 43.416 137.554 43.3413 137.938 43.192C138.322 43.0427 138.663 42.808 138.962 42.488L140.034 43.72C139.65 44.168 139.164 44.5147 138.578 44.76C138.002 44.9947 137.34 45.112 136.594 45.112Z" fill="white"/>
<g filter="url(#filter2_ddii_5816_39309)">
<path d="M308 44.9999C308 43.9391 308.421 42.9217 309.172 42.1716C309.922 41.4214 310.939 41 312 41C313.061 41 314.078 41.4214 314.828 42.1716C315.579 42.9217 316 43.9391 316 44.9999V48.2549C317.223 49.1064 318.142 50.3261 318.624 51.7363C319.106 53.1465 319.125 54.6736 318.679 56.0955C318.233 57.5173 317.344 58.7596 316.143 59.6416C314.942 60.5236 313.49 60.9992 312 60.9992C310.51 60.9992 309.058 60.5236 307.857 59.6416C306.656 58.7596 305.767 57.5173 305.321 56.0955C304.875 54.6736 304.894 53.1465 305.376 51.7363C305.858 50.3261 306.777 49.1064 308 48.2549V44.9999ZM309.144 49.8948C308.27 50.5029 307.613 51.374 307.269 52.3814C306.924 53.3887 306.911 54.4796 307.229 55.4954C307.548 56.5112 308.182 57.3987 309.041 58.0288C309.899 58.6589 310.935 58.9987 312 58.9987C313.065 58.9987 314.101 58.6589 314.959 58.0288C315.818 57.3987 316.452 56.5112 316.771 55.4954C317.089 54.4796 317.076 53.3887 316.731 52.3814C316.387 51.374 315.73 50.5029 314.856 49.8948L314 49.2978V44.9999C314 44.4695 313.789 43.9608 313.414 43.5857C313.039 43.2107 312.53 43 312 43C311.47 43 310.961 43.2107 310.586 43.5857C310.211 43.9608 310 44.4695 310 44.9999V49.2978L309.144 49.8948ZM311 50.1258V44.9999C311 44.4477 311.448 43.9999 312 43.9999C312.552 43.9999 313 44.4477 313 44.9999V50.1258C313.94 50.3716 314.759 50.9512 315.304 51.7565C315.848 52.5618 316.081 53.5377 315.958 54.502C315.836 55.4663 315.367 56.353 314.638 56.9967C313.91 57.6403 312.972 57.9969 312 57.9997C311.026 58.0007 310.085 57.646 309.353 57.0023C308.622 56.3587 308.151 55.4702 308.028 54.5037C307.905 53.5372 308.139 52.5592 308.687 51.7531C309.234 50.9471 310.056 50.3684 311 50.1258Z" fill="white"/>
</g>
</g>
<defs>
<filter id="filter0_ddi_5816_39309" x="0" y="0" width="368" height="131" filterUnits="userSpaceOnUse" color-interpolation-filters="sRGB">
<feFlood flood-opacity="0" result="BackgroundImageFix"/>
<feColorMatrix in="SourceAlpha" type="matrix" values="0 0 0 0 0 0 0 0 0 0 0 0 0 0 0 0 0 0 127 0" result="hardAlpha"/>
<feOffset/>
<feGaussianBlur stdDeviation="4.5"/>
<feColorMatrix type="matrix" values="0 0 0 0 0.96 0 0 0 0 0.737215 0 0 0 0 0.00405063 0 0 0 0.42 0"/>
<feBlend mode="normal" in2="BackgroundImageFix" result="effect1_dropShadow_5816_39309"/>
<feColorMatrix in="SourceAlpha" type="matrix" values="0 0 0 0 0 0 0 0 0 0 0 0 0 0 0 0 0 0 127 0" result="hardAlpha"/>
<feOffset dy="6"/>
<feGaussianBlur stdDeviation="6"/>
<feColorMatrix type="matrix" values="0 0 0 0 0.6 0 0 0 0 0.46076 0 0 0 0 0.00253165 0 0 0 0.63 0"/>
<feBlend mode="normal" in2="effect1_dropShadow_5816_39309" result="effect2_dropShadow_5816_39309"/>
<feBlend mode="normal" in="SourceGraphic" in2="effect2_dropShadow_5816_39309" result="shape"/>
<feColorMatrix in="SourceAlpha" type="matrix" values="0 0 0 0 0 0 0 0 0 0 0 0 0 0 0 0 0 0 127 0" result="hardAlpha"/>
<feOffset/>
<feGaussianBlur stdDeviation="20.5"/>
<feComposite in2="hardAlpha" operator="arithmetic" k2="-1" k3="1"/>
<feColorMatrix type="matrix" values="0 0 0 0 0.929412 0 0 0 0 0.713726 0 0 0 0 0.00392157 0 0 0 0.67 0"/>
<feBlend mode="normal" in2="shape" result="effect3_innerShadow_5816_39309"/>
</filter>
<filter id="filter1_ddi_5816_39309" x="212" y="94.8999" width="136.461" height="33.7029" filterUnits="userSpaceOnUse" color-interpolation-filters="sRGB">
<feFlood flood-opacity="0" result="BackgroundImageFix"/>
<feColorMatrix in="SourceAlpha" type="matrix" values="0 0 0 0 0 0 0 0 0 0 0 0 0 0 0 0 0 0 127 0" result="hardAlpha"/>
<feOffset/>
<feGaussianBlur stdDeviation="4.5"/>
<feColorMatrix type="matrix" values="0 0 0 0 0.96 0 0 0 0 0.737215 0 0 0 0 0.00405063 0 0 0 0.42 0"/>
<feBlend mode="normal" in2="BackgroundImageFix" result="effect1_dropShadow_5816_39309"/>
<feColorMatrix in="SourceAlpha" type="matrix" values="0 0 0 0 0 0 0 0 0 0 0 0 0 0 0 0 0 0 127 0" result="hardAlpha"/>
<feOffset dy="6"/>
<feGaussianBlur stdDeviation="6"/>
<feColorMatrix type="matrix" values="0 0 0 0 0.4 0 0 0 0 0.307173 0 0 0 0 0.00168776 0 0 0 0.63 0"/>
<feBlend mode="normal" in2="effect1_dropShadow_5816_39309" result="effect2_dropShadow_5816_39309"/>
<feBlend mode="normal" in="SourceGraphic" in2="effect2_dropShadow_5816_39309" result="shape"/>
<feColorMatrix in="SourceAlpha" type="matrix" values="0 0 0 0 0 0 0 0 0 0 0 0 0 0 0 0 0 0 127 0" result="hardAlpha"/>
<feOffset/>
<feGaussianBlur stdDeviation="20.5"/>
<feComposite in2="hardAlpha" operator="arithmetic" k2="-1" k3="1"/>
<feColorMatrix type="matrix" values="0 0 0 0 0.929412 0 0 0 0 0.713726 0 0 0 0 0.00392157 0 0 0 0.67 0"/>
<feBlend mode="normal" in2="shape" result="effect3_innerShadow_5816_39309"/>
</filter>
<filter id="filter2_ddii_5816_39309" x="288.857" y="27.8571" width="47.1429" height="47.1424" filterUnits="userSpaceOnUse" color-interpolation-filters="sRGB">
<feFlood flood-opacity="0" result="BackgroundImageFix"/>
<feColorMatrix in="SourceAlpha" type="matrix" values="0 0 0 0 0 0 0 0 0 0 0 0 0 0 0 0 0 0 127 0" result="hardAlpha"/>
<feOffset dx="2.57143" dy="2.57143"/>
<feGaussianBlur stdDeviation="4.71429"/>
<feComposite in2="hardAlpha" operator="out"/>
<feColorMatrix type="matrix" values="0 0 0 0 1 0 0 0 0 0.517647 0 0 0 0 0.00392157 0 0 0 1 0"/>
<feBlend mode="normal" in2="BackgroundImageFix" result="effect1_dropShadow_5816_39309"/>
<feColorMatrix in="SourceAlpha" type="matrix" values="0 0 0 0 0 0 0 0 0 0 0 0 0 0 0 0 0 0 127 0" result="hardAlpha"/>
<feOffset dx="-2.57143" dy="-2.57143"/>
<feGaussianBlur stdDeviation="4.28571"/>
<feComposite in2="hardAlpha" operator="out"/>
<feColorMatrix type="matrix" values="0 0 0 0 1 0 0 0 0 1 0 0 0 0 1 0 0 0 0.4 0"/>
<feBlend mode="normal" in2="effect1_dropShadow_5816_39309" result="effect2_dropShadow_5816_39309"/>
<feBlend mode="normal" in="SourceGraphic" in2="effect2_dropShadow_5816_39309" result="shape"/>
<feColorMatrix in="SourceAlpha" type="matrix" values="0 0 0 0 0 0 0 0 0 0 0 0 0 0 0 0 0 0 127 0" result="hardAlpha"/>
<feOffset dy="-1.28571"/>
<feGaussianBlur stdDeviation="0.985714"/>
<feComposite in2="hardAlpha" operator="arithmetic" k2="-1" k3="1"/>
<feColorMatrix type="matrix" values="0 0 0 0 0.929412 0 0 0 0 0.713726 0 0 0 0 0.00392157 0 0 0 0.4 0"/>
<feBlend mode="normal" in2="shape" result="effect3_innerShadow_5816_39309"/>
<feColorMatrix in="SourceAlpha" type="matrix" values="0 0 0 0 0 0 0 0 0 0 0 0 0 0 0 0 0 0 127 0" result="hardAlpha"/>
<feOffset dy="-0.428571"/>
<feGaussianBlur stdDeviation="0.557143"/>
<feComposite in2="hardAlpha" operator="arithmetic" k2="-1" k3="1"/>
<feColorMatrix type="matrix" values="0 0 0 0 1 0 0 0 0 1 0 0 0 0 1 0 0 0 0.6 0"/>
<feBlend mode="normal" in2="effect3_innerShadow_5816_39309" result="effect4_innerShadow_5816_39309"/>
</filter>
<linearGradient id="paint0_linear_5816_39309" x1="-164.714" y1="30.4936" x2="-141.957" y2="185.577" gradientUnits="userSpaceOnUse">
<stop stop-color="#EDB601" stop-opacity="0.9"/>
<stop offset="0.4418" stop-color="#664E00" stop-opacity="0.62"/>
<stop offset="0.714844" stop-color="#997501" stop-opacity="0.92"/>
<stop offset="1" stop-color="#EDB601" stop-opacity="0.88"/>
</linearGradient>
<linearGradient id="paint1_linear_5816_39309" x1="-222.147" y1="41.6906" x2="-188.158" y2="219.936" gradientUnits="userSpaceOnUse">
<stop stop-color="#FFFFCB"/>
<stop offset="0.509124" stop-color="#FFFFA8" stop-opacity="0.21"/>
<stop offset="1" stop-color="#FFFFCA"/>
</linearGradient>
<linearGradient id="paint2_linear_5816_39309" x1="15.491" y1="84.1415" x2="31.9496" y2="84.1415" gradientUnits="userSpaceOnUse">
<stop stop-color="white"/>
<stop offset="1" stop-color="white" stop-opacity="0.01"/>
</linearGradient>
<linearGradient id="paint3_linear_5816_39309" x1="176.682" y1="105.285" x2="177.042" y2="115.483" gradientUnits="userSpaceOnUse">
<stop stop-color="#EDB601" stop-opacity="0.9"/>
<stop offset="0.4418" stop-color="#664E00" stop-opacity="0.62"/>
<stop offset="0.714844" stop-color="#997501" stop-opacity="0.92"/>
<stop offset="1" stop-color="#EDB601" stop-opacity="0.88"/>
</linearGradient>
<linearGradient id="paint4_linear_5816_39309" x1="161.304" y1="106.007" x2="161.849" y2="117.888" gradientUnits="userSpaceOnUse">
<stop stop-color="#FFFFCB"/>
<stop offset="0.509124" stop-color="#FFFFA8" stop-opacity="0.21"/>
<stop offset="1" stop-color="#FFFFCA"/>
</linearGradient>
</defs>
</svg>
