<svg width="48" height="48" viewBox="0 0 48 48" fill="none" xmlns="http://www.w3.org/2000/svg">
<g filter="url(#filter0_ddii_8036_95777)">
<path d="M33.0004 27.7723C33.0004 26.7238 32.1618 25.8538 31.1147 25.8438C30.6399 25.8394 30.1805 26.0122 29.8262 26.3284C29.472 26.6446 29.2484 27.0815 29.199 27.5538C29.1966 27.5786 29.1994 27.6037 29.2073 27.6274C29.2152 27.6511 29.228 27.6728 29.2448 27.6913C29.2616 27.7097 29.2821 27.7244 29.305 27.7345C29.3279 27.7445 29.3526 27.7496 29.3775 27.7495H30.279C30.3618 27.7495 30.4333 27.6923 30.4533 27.6123V27.6066C30.4864 27.4573 30.5706 27.3243 30.6914 27.2304C30.8121 27.1365 30.9618 27.0877 31.1147 27.0923C31.4718 27.1038 31.7504 27.4066 31.7504 27.7638V28.4395C31.75 28.6135 31.6806 28.7803 31.5574 28.9032C31.4342 29.0262 31.2673 29.0952 31.0932 29.0952H30.7261C30.6787 29.0952 30.6333 29.114 30.5998 29.1475C30.5664 29.181 30.5475 29.2264 30.5475 29.2738V30.1666C30.5475 30.2652 30.6275 30.3452 30.7261 30.3452H31.0947C31.2685 30.3456 31.435 30.4148 31.5579 30.5377C31.6808 30.6605 31.75 30.8271 31.7504 31.0009V32.0795C31.7504 32.4366 31.4718 32.7395 31.1147 32.7509C30.9635 32.7553 30.8154 32.7074 30.6954 32.6152C30.5754 32.5231 30.4909 32.3924 30.4561 32.2452L30.4533 32.2366C30.445 32.1964 30.4232 32.1602 30.3915 32.1342C30.3597 32.1082 30.32 32.0939 30.279 32.0938H29.3761C29.3511 32.0936 29.3264 32.0988 29.3036 32.1088C29.2807 32.1188 29.2602 32.1335 29.2434 32.152C29.2265 32.1704 29.2138 32.1922 29.2059 32.2159C29.198 32.2395 29.1951 32.2646 29.1975 32.2895C29.2466 32.7622 29.4703 33.1997 29.8249 33.5162C30.1795 33.8327 30.6394 34.0056 31.1147 34.0009C31.6198 33.9919 32.101 33.7843 32.4542 33.4231C32.8074 33.0619 33.0041 32.5761 33.0018 32.0709V31.0009C33.0019 30.5274 32.8251 30.0709 32.5061 29.7209C32.8257 29.3702 33.0026 28.9126 33.0018 28.4381V27.7738L33.0004 27.7723ZM22.2361 14.001C23.6103 14.0012 24.9293 14.5413 25.909 15.5049C26.8886 16.4685 27.4504 17.7784 27.4733 19.1524V28.7623C27.4545 30.1317 26.9003 31.4393 25.9292 32.405C24.9582 33.3707 23.6475 33.9178 22.2781 33.929C20.9086 33.9402 19.5892 33.4147 18.6025 32.465C17.6158 31.5153 17.0402 30.2169 16.999 28.8481V19.241C16.9986 17.8519 17.55 16.5195 18.5318 15.5368C19.5137 14.5542 20.8456 14.0017 22.2347 14.001H22.2361ZM22.2361 15.6981C21.3071 15.6984 20.4153 16.0635 19.7529 16.715C19.0905 17.3664 18.7105 18.252 18.6947 19.181V28.7623C18.7122 29.6851 19.089 30.5647 19.7451 31.2138C20.4012 31.863 21.2847 32.2305 22.2076 32.2381C23.1306 32.2457 24.02 31.8929 24.6868 31.2547C25.3535 30.6165 25.7449 29.7433 25.7776 28.8209V19.2395C25.7776 18.3002 25.4045 17.3992 24.7404 16.7349C24.0763 16.0705 23.1755 15.6971 22.2361 15.6967V15.6981Z" fill="white" stroke="white" stroke-width="0.476188"/>
</g>
<defs>
<filter id="filter0_ddii_8036_95777" x="0.857143" y="0.85812" width="47.1429" height="47.1429" filterUnits="userSpaceOnUse" color-interpolation-filters="sRGB">
<feFlood flood-opacity="0" result="BackgroundImageFix"/>
<feColorMatrix in="SourceAlpha" type="matrix" values="0 0 0 0 0 0 0 0 0 0 0 0 0 0 0 0 0 0 127 0" result="hardAlpha"/>
<feOffset dx="2.57143" dy="2.57143"/>
<feGaussianBlur stdDeviation="4.71429"/>
<feComposite in2="hardAlpha" operator="out"/>
<feColorMatrix type="matrix" values="0 0 0 0 1 0 0 0 0 0.517647 0 0 0 0 0.00392157 0 0 0 1 0"/>
<feBlend mode="normal" in2="BackgroundImageFix" result="effect1_dropShadow_8036_95777"/>
<feColorMatrix in="SourceAlpha" type="matrix" values="0 0 0 0 0 0 0 0 0 0 0 0 0 0 0 0 0 0 127 0" result="hardAlpha"/>
<feOffset dx="-2.57143" dy="-2.57143"/>
<feGaussianBlur stdDeviation="4.28571"/>
<feComposite in2="hardAlpha" operator="out"/>
<feColorMatrix type="matrix" values="0 0 0 0 1 0 0 0 0 1 0 0 0 0 1 0 0 0 0.4 0"/>
<feBlend mode="normal" in2="effect1_dropShadow_8036_95777" result="effect2_dropShadow_8036_95777"/>
<feBlend mode="normal" in="SourceGraphic" in2="effect2_dropShadow_8036_95777" result="shape"/>
<feColorMatrix in="SourceAlpha" type="matrix" values="0 0 0 0 0 0 0 0 0 0 0 0 0 0 0 0 0 0 127 0" result="hardAlpha"/>
<feOffset dy="-1.28571"/>
<feGaussianBlur stdDeviation="0.985714"/>
<feComposite in2="hardAlpha" operator="arithmetic" k2="-1" k3="1"/>
<feColorMatrix type="matrix" values="0 0 0 0 0.929412 0 0 0 0 0.713726 0 0 0 0 0.00392157 0 0 0 0.4 0"/>
<feBlend mode="normal" in2="shape" result="effect3_innerShadow_8036_95777"/>
<feColorMatrix in="SourceAlpha" type="matrix" values="0 0 0 0 0 0 0 0 0 0 0 0 0 0 0 0 0 0 127 0" result="hardAlpha"/>
<feOffset dy="-0.428571"/>
<feGaussianBlur stdDeviation="0.557143"/>
<feComposite in2="hardAlpha" operator="arithmetic" k2="-1" k3="1"/>
<feColorMatrix type="matrix" values="0 0 0 0 1 0 0 0 0 1 0 0 0 0 1 0 0 0 0.6 0"/>
<feBlend mode="normal" in2="effect3_innerShadow_8036_95777" result="effect4_innerShadow_8036_95777"/>
</filter>
</defs>
</svg>
