<svg width="50" height="50" viewBox="0 0 50 50" fill="none" xmlns="http://www.w3.org/2000/svg">
<g filter="url(#filter0_dd_11579_64859)">
<path d="M5 21C5 9.95431 13.9543 1 25 1C36.0457 1 45 9.95431 45 21C45 32.0457 36.0457 41 25 41C13.9543 41 5 32.0457 5 21Z" fill="url(#paint0_linear_11579_64859)"/>
<path d="M5.5 21C5.5 10.2304 14.2304 1.5 25 1.5C35.7696 1.5 44.5 10.2304 44.5 21C44.5 31.7696 35.7696 40.5 25 40.5C14.2304 40.5 5.5 31.7696 5.5 21Z" stroke="#0099FF" stroke-opacity="0.05"/>
<path fill-rule="evenodd" clip-rule="evenodd" d="M29.3374 12C29.809 12 30.1861 12.3771 30.1861 12.8478V14.9682C30.2094 14.9915 30.2445 15.0147 30.2798 15.0381C30.3154 15.0618 30.3512 15.0855 30.3751 15.1095C31.5532 15.9573 32.4487 17.2289 33.0148 18.6896C34.0984 18.8309 34.8994 19.7255 34.8994 20.8091V22.7873C34.8994 23.8709 34.1452 24.7186 33.1084 24.9076C32.5423 26.5564 31.5055 27.9694 30.1384 28.8172C28.7236 29.7595 27.1208 30.0412 24.905 29.9953H24.6692C22.7837 29.9476 21.5102 29.7118 20.3321 29.0998C18.9651 28.3465 17.8338 27.0748 17.1264 25.5196L16.8438 24.8131C16.3401 24.6576 15.8992 24.3452 15.5854 23.9216C15.2717 23.4979 15.1015 22.9851 15.0996 22.4579V21.0917C15.0996 19.9613 15.9006 18.9722 16.9383 18.6887C17.5035 17.1821 18.3999 15.8628 19.6725 15.015L19.8138 14.9205V12.8955C19.8138 12.4239 20.1917 12.0468 20.6624 12.0468C21.134 12.0468 21.5111 12.4248 21.5111 12.8946V14.214C21.8882 14.0727 22.3121 13.9782 22.7369 13.9314L22.9727 13.8846L23.2085 13.8369C23.6324 13.7901 24.104 13.7433 24.5756 13.7433H24.8582C26.1785 13.7433 27.3566 13.8846 28.3934 14.214V12.8946C28.4879 12.378 28.8649 12 29.3374 12ZM18.6279 20.7387C18.6279 19.2763 19.5581 17.9833 21.0014 17.7482C22.0428 17.5785 23.3962 17.4355 24.9999 17.4355C26.6035 17.4355 27.9569 17.5785 28.9983 17.7482C30.4416 17.9833 31.3718 19.2763 31.3718 20.7387V21.2553C31.3718 23.3485 29.5257 24.9611 27.4515 24.6799L26.451 24.5442C25.488 24.4136 24.5117 24.4136 23.5487 24.5442L22.5482 24.6799C20.474 24.9611 18.6279 23.3485 18.6279 21.2553V20.7387ZM25.4348 22.083C25.5106 22.1723 25.6049 22.2441 25.7112 22.2934C25.8249 22.3461 26.0495 22.3683 26.0495 22.3683L28.0691 22.3575C28.2881 22.3544 28.4969 22.2645 28.6496 22.1076C28.8023 21.9506 28.8865 21.7395 28.8836 21.5205C28.8843 21.4121 28.8636 21.3045 28.8228 21.2041C28.7819 21.1036 28.7216 21.0122 28.6454 20.935C28.5691 20.8579 28.4785 20.7965 28.3785 20.7544C28.2785 20.7124 28.1713 20.6904 28.0628 20.6898L26.4221 20.7006L25.3529 19.4496C25.2719 19.3543 25.1699 19.279 25.0548 19.2296C24.9398 19.1803 24.8149 19.1583 24.69 19.1654C24.565 19.1725 24.4434 19.2084 24.3347 19.2704C24.2259 19.3323 24.133 19.4186 24.0633 19.5225L23.2641 20.7024H22.1445C21.6927 20.7024 21.3273 21.0759 21.3273 21.5367C21.3262 21.6451 21.3465 21.7526 21.387 21.8532C21.4275 21.9537 21.4874 22.0453 21.5633 22.1227C21.6392 22.2 21.7295 22.2617 21.8293 22.3042C21.929 22.3466 22.0361 22.369 22.1445 22.3701H23.6916C23.9598 22.3701 24.2109 22.2351 24.3639 22.0101L24.8093 21.3531L25.4348 22.083Z" fill="white"/>
</g>
<defs>
<filter id="filter0_dd_11579_64859" x="0" y="0" width="50" height="50" filterUnits="userSpaceOnUse" color-interpolation-filters="sRGB">
<feFlood flood-opacity="0" result="BackgroundImageFix"/>
<feColorMatrix in="SourceAlpha" type="matrix" values="0 0 0 0 0 0 0 0 0 0 0 0 0 0 0 0 0 0 127 0" result="hardAlpha"/>
<feMorphology radius="1" operator="erode" in="SourceAlpha" result="effect1_dropShadow_11579_64859"/>
<feOffset dy="2"/>
<feGaussianBlur stdDeviation="2"/>
<feColorMatrix type="matrix" values="0 0 0 0 0.0666667 0 0 0 0 0.0980392 0 0 0 0 0.117647 0 0 0 0.05 0"/>
<feBlend mode="normal" in2="BackgroundImageFix" result="effect1_dropShadow_11579_64859"/>
<feColorMatrix in="SourceAlpha" type="matrix" values="0 0 0 0 0 0 0 0 0 0 0 0 0 0 0 0 0 0 127 0" result="hardAlpha"/>
<feMorphology radius="1" operator="erode" in="SourceAlpha" result="effect2_dropShadow_11579_64859"/>
<feOffset dy="4"/>
<feGaussianBlur stdDeviation="3"/>
<feColorMatrix type="matrix" values="0 0 0 0 0.0666667 0 0 0 0 0.0980392 0 0 0 0 0.117647 0 0 0 0.1 0"/>
<feBlend mode="normal" in2="effect1_dropShadow_11579_64859" result="effect2_dropShadow_11579_64859"/>
<feBlend mode="normal" in="SourceGraphic" in2="effect2_dropShadow_11579_64859" result="shape"/>
</filter>
<linearGradient id="paint0_linear_11579_64859" x1="8.10399" y1="20.7354" x2="44.9707" y2="20.7354" gradientUnits="userSpaceOnUse">
<stop stop-color="#4C90CD"/>
<stop offset="0.15" stop-color="#4677BA"/>
<stop offset="0.34" stop-color="#415DA8"/>
<stop offset="0.53" stop-color="#3D4B9B"/>
<stop offset="0.74" stop-color="#3A4093"/>
<stop offset="0.97" stop-color="#3A3D91"/>
<stop offset="1" stop-color="#3A3D91"/>
</linearGradient>
</defs>
</svg>
