<svg width="28" height="28" viewBox="0 0 28 28" fill="none" xmlns="http://www.w3.org/2000/svg">
<path d="M21.4247 19.6571L14.8108 26.0494C14.3586 26.4864 13.6414 26.4864 13.1892 26.0494L6.57534 19.6571C5.1069 18.2378 4.10688 16.4296 3.70175 14.461C3.29662 12.4925 3.50456 10.452 4.29928 8.59765C5.094 6.74331 6.43982 5.15838 8.16653 4.04328C9.89324 2.92819 11.9233 2.33301 14 2.33301C16.0767 2.33301 18.1068 2.92819 19.8335 4.04328C21.5602 5.15838 22.906 6.74331 23.7007 8.59765C24.4954 10.452 24.7034 12.4925 24.2982 14.461C23.8931 16.4296 22.8931 18.2378 21.4247 19.6571ZM13.2188 15.7781C13.7303 15.8981 14.2697 15.8981 14.7812 15.7781C16.0238 15.4867 17.0061 14.5188 17.3068 13.2783C17.4338 12.7545 17.4338 12.2078 17.3068 11.684C17.0061 10.4436 16.0238 9.4756 14.7812 9.18418C14.2697 9.06424 13.7303 9.06424 13.2188 9.18418C11.9762 9.4756 10.9939 10.4436 10.6932 11.684C10.5662 12.2078 10.5662 12.7545 10.6932 13.2783C10.9939 14.5188 11.9762 15.4867 13.2188 15.7781Z" fill="white"/>
</svg>
