<svg width="24" height="24" viewBox="0 0 24 24" fill="none" xmlns="http://www.w3.org/2000/svg">
<g id="Emojis">
<g id="Vector">
<path fill-rule="evenodd" clip-rule="evenodd" d="M12.0004 4.5999C7.91348 4.5999 4.60039 7.91299 4.60039 11.9999C4.60039 16.0868 7.91348 19.3999 12.0004 19.3999C16.0873 19.3999 19.4004 16.0868 19.4004 11.9999C19.4004 7.91299 16.0873 4.5999 12.0004 4.5999ZM3.40039 11.9999C3.40039 7.25025 7.25074 3.3999 12.0004 3.3999C16.75 3.3999 20.6004 7.25025 20.6004 11.9999C20.6004 16.7496 16.75 20.5999 12.0004 20.5999C7.25074 20.5999 3.40039 16.7496 3.40039 11.9999ZM9.11837 14.8426C9.3157 14.5764 9.69147 14.5206 9.95768 14.7179C10.5404 15.1498 11.2437 15.3999 12.0004 15.3999C12.7571 15.3999 13.4604 15.1498 14.0431 14.7179C14.3093 14.5206 14.6851 14.5764 14.8824 14.8426C15.0797 15.1088 15.0239 15.4846 14.7577 15.6819C13.9798 16.2585 13.0284 16.5999 12.0004 16.5999C10.9724 16.5999 10.021 16.2585 9.2431 15.6819C8.97689 15.4846 8.92104 15.1088 9.11837 14.8426Z" fill="#11191E"/>
<path d="M15.2004 10.7999C15.2004 11.4626 14.8422 11.9999 14.4004 11.9999C13.9586 11.9999 13.6004 11.4626 13.6004 10.7999C13.6004 10.1372 13.9586 9.5999 14.4004 9.5999C14.8422 9.5999 15.2004 10.1372 15.2004 10.7999Z" fill="#11191E"/>
<path d="M10.4004 10.7999C10.4004 11.4626 10.0422 11.9999 9.60039 11.9999C9.15856 11.9999 8.80039 11.4626 8.80039 10.7999C8.80039 10.1372 9.15856 9.5999 9.60039 9.5999C10.0422 9.5999 10.4004 10.1372 10.4004 10.7999Z" fill="#11191E"/>
</g>
</g>
</svg>
