<svg width="24" height="24" viewBox="0 0 24 24" fill="none" xmlns="http://www.w3.org/2000/svg">
<path fill-rule="evenodd" clip-rule="evenodd" d="M9.50768 5.08999C11.8619 2.83654 15.6683 2.83654 18.0225 5.08999C20.3915 7.35762 20.3915 11.0455 18.0225 13.3131L11.664 19.3995C9.99199 21 7.29147 21 5.61942 19.3995C3.93257 17.7848 3.93257 15.1556 5.61942 13.5409L11.8864 7.54207C12.8763 6.5945 14.4709 6.5945 15.4608 7.54207C16.4655 8.50382 16.4655 10.0744 15.4608 11.0362L9.14811 17.0788C8.90873 17.3079 8.52892 17.2996 8.29979 17.0603C8.07065 16.8209 8.07895 16.4411 8.31833 16.2119L14.631 10.1693C15.1421 9.68007 15.1421 8.89818 14.631 8.40894C14.1051 7.90554 13.2421 7.90554 12.7162 8.40894L6.4492 14.4078C5.25598 15.55 5.25598 17.3905 6.4492 18.5326C7.65723 19.689 9.62624 19.689 10.8343 18.5326L17.1927 12.4462C19.0681 10.6511 19.0681 7.75198 17.1927 5.95686C15.3026 4.14758 12.2276 4.14758 10.3375 5.95686L5.21411 10.861C4.97473 11.0902 4.59492 11.0819 4.36579 10.8425C4.13665 10.6031 4.14495 10.2233 4.38433 9.99415L9.50768 5.08999Z" fill="#11191E"/>
</svg>
