<svg width="24" height="24" viewBox="0 0 24 24" fill="none" xmlns="http://www.w3.org/2000/svg">
<g id="ICON-SPIT">
<path id="Vector" d="M20.8889 20.9472C20.8889 21.2264 20.7718 21.4942 20.5635 21.6917C20.3551 21.8891 20.0725 22 19.7778 22H4.22222C3.92754 22 3.64492 21.8891 3.43655 21.6917C3.22817 21.4942 3.11111 21.2264 3.11111 20.9472L2 9.69726C1.99993 9.53824 2.03789 9.38127 2.11101 9.23814C2.18414 9.09501 2.29054 8.96943 2.42222 8.87083L11.3111 2.22677C11.5073 2.07989 11.75 2 12 2C12.25 2 12.4927 2.07989 12.6889 2.22677L21.5778 8.86978C21.7096 8.96848 21.8161 9.09423 21.8892 9.23756C21.9624 9.38089 22.0002 9.53806 22 9.69726L20.8889 20.9472ZM6.44444 12.525C6.44444 13.9211 7.02976 15.26 8.07163 16.2471C9.1135 17.2343 10.5266 17.7889 12 17.7889C13.4734 17.7889 14.8865 17.2343 15.9284 16.2471C16.9702 15.26 17.5556 13.9211 17.5556 12.525H15.3333C15.3333 13.3627 14.9821 14.166 14.357 14.7583C13.7319 15.3506 12.8841 15.6833 12 15.6833C11.1159 15.6833 10.2681 15.3506 9.64298 14.7583C9.01786 14.166 8.66667 13.3627 8.66667 12.525H6.44444Z" fill="#0099FF"/>
</g>
</svg>
