<svg width="24" height="24" viewBox="0 0 24 24" fill="none" xmlns="http://www.w3.org/2000/svg">
<g id="ICON-SPIT">
<g id="Vector">
<path d="M16.4444 9.03611V11.0114L7.55556 11.0114V9.0361L16.4444 9.03611Z" fill="#71797E"/>
<path d="M14.2222 12.9867V14.962H7.55555L7.55556 12.9867L14.2222 12.9867Z" fill="#71797E"/>
<path d="M2 9.77109C1.99942 8.89576 2.1715 8.02892 2.50641 7.22019C2.84131 6.41146 3.33246 5.67674 3.95172 5.0581C4.57098 4.43946 5.3062 3.94904 6.11526 3.61495C6.92432 3.28085 7.79134 3.10963 8.66667 3.11109H15.3333C19.0144 3.11109 22 6.10554 22 9.77109V20.8889H8.66667C4.98556 20.8889 2 17.8944 2 14.2289V9.77109ZM19.7778 18.6666V9.77109C19.7748 8.59387 19.3054 7.4658 18.4724 6.634C17.6393 5.8022 16.5106 5.33449 15.3333 5.33332H8.66667C8.08317 5.33185 7.50511 5.44559 6.96566 5.66801C6.42621 5.89043 5.93598 6.21715 5.52307 6.62944C5.11016 7.04173 4.7827 7.53148 4.55947 8.07059C4.33624 8.60971 4.22164 9.18759 4.22222 9.77109V14.2289C4.22516 15.4061 4.69457 16.5342 5.52762 17.366C6.36067 18.1978 7.48944 18.6655 8.66667 18.6666H19.7778Z" fill="#71797E"/>
</g>
</g>
</svg>
