<svg width="24" height="24" viewBox="0 0 24 24" fill="none" xmlns="http://www.w3.org/2000/svg">
<g id="ICON-SPIT">
<path id="Subtract" fill-rule="evenodd" clip-rule="evenodd" d="M2.45577 6.76362C2.15435 7.48249 1.99948 8.25302 2 9.03109V14.9689C2 18.2271 4.687 20.8889 8 20.8889H22V9.03109C22 5.77282 19.313 3.11109 16 3.11109H8C7.21221 3.10979 6.43189 3.26199 5.70373 3.55896C4.97558 3.85594 4.31389 4.29186 3.75655 4.84176C3.19922 5.39166 2.75718 6.04475 2.45577 6.76362ZM16.4444 11.0116V9.03633L7.55556 9.03633V11.0116L16.4444 11.0116ZM14.2222 14.9623V12.9869L7.55556 12.9869L7.55556 14.9623H14.2222Z" fill="#0099FF"/>
</g>
</svg>
