<svg width="24" height="24" viewBox="0 0 24 24" fill="none" xmlns="http://www.w3.org/2000/svg">
<g id="ICON-SPIT">
<path id="Vector" d="M18.6667 19.892L19.7778 10.2054L12 4.39199L4.22222 10.2054L5.33333 19.892H18.6667ZM20.8889 20.9448C20.8889 21.224 20.7718 21.4918 20.5635 21.6892C20.3551 21.8866 20.0725 21.9976 19.7778 21.9976H4.22222C3.92754 21.9976 3.64492 21.8866 3.43655 21.6892C3.22817 21.4918 3.11111 21.224 3.11111 20.9448L2 9.69482C1.99993 9.5358 2.03789 9.37883 2.11101 9.2357C2.18414 9.09256 2.29054 8.96699 2.42222 8.86839L11.3111 2.22432C11.5073 2.07745 11.75 1.99756 12 1.99756C12.25 1.99756 12.4927 2.07745 12.6889 2.22432L21.5778 8.86734C21.7096 8.96604 21.8161 9.09179 21.8892 9.23512C21.9624 9.37845 22.0002 9.53562 22 9.69482L20.8889 20.9448ZM6.44444 12.5226H8.66667C8.66667 13.3602 9.01786 14.1636 9.64298 14.7559C10.2681 15.3482 11.1159 15.6809 12 15.6809C12.8841 15.6809 13.7319 15.3482 14.357 14.7559C14.9821 14.1636 15.3333 13.3602 15.3333 12.5226H17.5556C17.5556 13.9186 16.9702 15.2575 15.9284 16.2447C14.8865 17.2319 13.4734 17.7865 12 17.7865C10.5266 17.7865 9.1135 17.2319 8.07163 16.2447C7.02976 15.2575 6.44444 13.9186 6.44444 12.5226Z" fill="#71797E"/>
</g>
</svg>
