<svg width="29" height="28" viewBox="0 0 29 28" fill="none" xmlns="http://www.w3.org/2000/svg">
<path d="M21.9247 19.6571L15.3108 26.0494C14.8586 26.4864 14.1414 26.4864 13.6892 26.0494L7.07534 19.6571C5.6069 18.2378 4.60688 16.4296 4.20175 14.461C3.79662 12.4925 4.00456 10.452 4.79928 8.59765C5.594 6.74331 6.93982 5.15838 8.66653 4.04328C10.3932 2.92819 12.4233 2.33301 14.5 2.33301C16.5767 2.33301 18.6068 2.92819 20.3335 4.04328C22.0602 5.15838 23.406 6.74331 24.2007 8.59765C24.9954 10.452 25.2034 12.4925 24.7982 14.461C24.3931 16.4296 23.3931 18.2378 21.9247 19.6571ZM13.7188 15.7781C14.2303 15.8981 14.7697 15.8981 15.2812 15.7781C16.5238 15.4867 17.5061 14.5188 17.8068 13.2783C17.9338 12.7545 17.9338 12.2078 17.8068 11.684C17.5061 10.4436 16.5238 9.4756 15.2812 9.18418C14.7697 9.06424 14.2303 9.06424 13.7188 9.18418C12.4762 9.4756 11.4939 10.4436 11.1932 11.684C11.0662 12.2078 11.0662 12.7545 11.1932 13.2783C11.4939 14.5188 12.4762 15.4867 13.7188 15.7781Z" fill="white"/>
</svg>
