<svg width="60" height="60" viewBox="0 0 60 60" fill="none" xmlns="http://www.w3.org/2000/svg">
<g clip-path="url(#clip0_11488_104497)">
<g filter="url(#filter0_dii_11488_104497)">
<path d="M0 30C0 13.4315 13.4315 0 30 0C46.5685 0 60 13.4315 60 30C60 46.5685 46.5685 60 30 60C13.4315 60 0 46.5685 0 30Z" fill="white" fill-opacity="0.2" shape-rendering="crispEdges"/>
<path d="M11.666 47.4163V43.7266H15.3327V17.5937C15.3327 16.7008 15.967 15.937 16.8378 15.7783L34.2032 12.6014C34.8008 12.4907 35.3728 12.8911 35.481 13.4925C35.4938 13.5571 35.4993 13.6216 35.4993 13.6899V16.0514L42.8327 16.0532C43.8447 16.0532 44.666 16.8797 44.666 17.8981V43.7266H48.3327V47.4163H40.9993V19.743H35.4993V47.4163H11.666ZM29.9993 28.9674H26.3327V32.6572H29.9993V28.9674Z" fill="white"/>
</g>
</g>
<defs>
<filter id="filter0_dii_11488_104497" x="-150" y="-150" width="360" height="360" filterUnits="userSpaceOnUse" color-interpolation-filters="sRGB">
<feFlood flood-opacity="0" result="BackgroundImageFix"/>
<feColorMatrix in="SourceAlpha" type="matrix" values="0 0 0 0 0 0 0 0 0 0 0 0 0 0 0 0 0 0 127 0" result="hardAlpha"/>
<feOffset dy="17.5254"/>
<feGaussianBlur stdDeviation="10.9534"/>
<feComposite in2="hardAlpha" operator="out"/>
<feColorMatrix type="matrix" values="0 0 0 0 0.0666667 0 0 0 0 0.0980392 0 0 0 0 0.117647 0 0 0 0.05 0"/>
<feBlend mode="normal" in2="BackgroundImageFix" result="effect1_dropShadow_11488_104497"/>
<feBlend mode="normal" in="SourceGraphic" in2="effect1_dropShadow_11488_104497" result="shape"/>
<feColorMatrix in="SourceAlpha" type="matrix" values="0 0 0 0 0 0 0 0 0 0 0 0 0 0 0 0 0 0 127 0" result="hardAlpha"/>
<feMorphology radius="1.46045" operator="dilate" in="SourceAlpha" result="effect2_innerShadow_11488_104497"/>
<feOffset dx="-0.730227" dy="0.730227"/>
<feGaussianBlur stdDeviation="0.365113"/>
<feComposite in2="hardAlpha" operator="arithmetic" k2="-1" k3="1"/>
<feColorMatrix type="matrix" values="0 0 0 0 1 0 0 0 0 1 0 0 0 0 1 0 0 0 0.3 0"/>
<feBlend mode="normal" in2="shape" result="effect2_innerShadow_11488_104497"/>
<feColorMatrix in="SourceAlpha" type="matrix" values="0 0 0 0 0 0 0 0 0 0 0 0 0 0 0 0 0 0 127 0" result="hardAlpha"/>
<feOffset dy="0.730227"/>
<feGaussianBlur stdDeviation="2.92091"/>
<feComposite in2="hardAlpha" operator="arithmetic" k2="-1" k3="1"/>
<feColorMatrix type="matrix" values="0 0 0 0 1 0 0 0 0 1 0 0 0 0 1 0 0 0 0.3 0"/>
<feBlend mode="normal" in2="effect2_innerShadow_11488_104497" result="effect3_innerShadow_11488_104497"/>
</filter>
<clipPath id="clip0_11488_104497">
<path d="M0 30C0 13.4315 13.4315 0 30 0C46.5685 0 60 13.4315 60 30C60 46.5685 46.5685 60 30 60C13.4315 60 0 46.5685 0 30Z" fill="white"/>
</clipPath>
</defs>
</svg>
