<svg width="204" height="99" viewBox="0 0 204 99" fill="none" xmlns="http://www.w3.org/2000/svg">
<g filter="url(#filter0_dii_11488_104492)">
<path d="M20 35C20 18.4315 33.4315 5 50 5H152C168.569 5 182 18.4315 182 35C182 51.5685 168.569 65 152 65H50C33.4315 65 20 51.5685 20 35Z" fill="white" fill-opacity="0.2" shape-rendering="crispEdges"/>
<path d="M31.666 52.4163V48.7266H35.3327V22.5937C35.3327 21.7008 35.967 20.937 36.8378 20.7783L54.2032 17.6014C54.8008 17.4907 55.3728 17.8911 55.481 18.4925C55.4938 18.5571 55.4993 18.6216 55.4993 18.6899V21.0514L62.8327 21.0532C63.8447 21.0532 64.666 21.8797 64.666 22.8981V48.7266H68.3327V52.4163H60.9993V24.743H55.4993V52.4163H31.666ZM49.9993 33.9674H46.3327V37.6572H49.9993V33.9674Z" fill="white"/>
<g filter="url(#filter1_dd_11488_104492)">
<path d="M82.52 34.582H87.7V35.464H82.52V34.582ZM82.632 39.104H88.526V40H81.596V30.2H88.316V31.096H82.632V39.104ZM89.4802 40L93.4982 34.568V35.366L89.7182 30.2H90.9082L94.0862 34.512L93.6242 34.526L96.8022 30.2H97.9222L94.1842 35.296V34.568L98.1882 40H96.9842L93.5962 35.394H94.0302L90.6702 40H89.4802ZM99.6839 40V30.2H100.72V40H99.6839ZM105.812 40V31.096H102.369V30.2H110.293V31.096H106.849V40H105.812ZM118.314 40.084C117.586 40.084 116.886 39.9673 116.214 39.734C115.551 39.4913 115.038 39.1833 114.674 38.81L115.08 38.012C115.425 38.348 115.887 38.6327 116.466 38.866C117.054 39.09 117.67 39.202 118.314 39.202C118.93 39.202 119.429 39.1273 119.812 38.978C120.204 38.8193 120.488 38.6093 120.666 38.348C120.852 38.0867 120.946 37.7973 120.946 37.48C120.946 37.0973 120.834 36.7893 120.61 36.556C120.395 36.3227 120.11 36.1407 119.756 36.01C119.401 35.87 119.009 35.7487 118.58 35.646C118.15 35.5433 117.721 35.436 117.292 35.324C116.862 35.2027 116.466 35.044 116.102 34.848C115.747 34.652 115.458 34.3953 115.234 34.078C115.019 33.7513 114.912 33.3267 114.912 32.804C114.912 32.3187 115.038 31.8753 115.29 31.474C115.551 31.0633 115.948 30.7367 116.48 30.494C117.012 30.242 117.693 30.116 118.524 30.116C119.074 30.116 119.62 30.1953 120.162 30.354C120.703 30.5033 121.17 30.7133 121.562 30.984L121.212 31.81C120.792 31.53 120.344 31.3247 119.868 31.194C119.401 31.0633 118.948 30.998 118.51 30.998C117.922 30.998 117.436 31.0773 117.054 31.236C116.671 31.3947 116.386 31.6093 116.2 31.88C116.022 32.1413 115.934 32.44 115.934 32.776C115.934 33.1587 116.041 33.4667 116.256 33.7C116.48 33.9333 116.769 34.1153 117.124 34.246C117.488 34.3767 117.884 34.4933 118.314 34.596C118.743 34.6987 119.168 34.8107 119.588 34.932C120.017 35.0533 120.409 35.212 120.764 35.408C121.128 35.5947 121.417 35.8467 121.632 36.164C121.856 36.4813 121.968 36.8967 121.968 37.41C121.968 37.886 121.837 38.3293 121.576 38.74C121.314 39.1413 120.913 39.468 120.372 39.72C119.84 39.9627 119.154 40.084 118.314 40.084ZM123.934 42.786C123.589 42.786 123.258 42.73 122.94 42.618C122.632 42.506 122.366 42.338 122.142 42.114L122.604 41.372C122.791 41.5493 122.992 41.6847 123.206 41.778C123.43 41.8807 123.678 41.932 123.948 41.932C124.275 41.932 124.555 41.8387 124.788 41.652C125.031 41.4747 125.26 41.1573 125.474 40.7L125.95 39.622L126.062 39.468L129.086 32.65H130.066L126.384 40.882C126.179 41.358 125.95 41.736 125.698 42.016C125.456 42.296 125.19 42.492 124.9 42.604C124.611 42.7253 124.289 42.786 123.934 42.786ZM125.894 40.21L122.506 32.65H123.542L126.538 39.398L125.894 40.21ZM133.358 40.07C132.751 40.07 132.177 39.986 131.636 39.818C131.095 39.6407 130.67 39.4213 130.362 39.16L130.81 38.376C131.109 38.6 131.491 38.796 131.958 38.964C132.425 39.1227 132.915 39.202 133.428 39.202C134.128 39.202 134.632 39.0947 134.94 38.88C135.248 38.656 135.402 38.362 135.402 37.998C135.402 37.7273 135.313 37.5173 135.136 37.368C134.968 37.2093 134.744 37.0927 134.464 37.018C134.184 36.934 133.871 36.864 133.526 36.808C133.181 36.752 132.835 36.6867 132.49 36.612C132.154 36.5373 131.846 36.43 131.566 36.29C131.286 36.1407 131.057 35.94 130.88 35.688C130.712 35.436 130.628 35.1 130.628 34.68C130.628 34.2787 130.74 33.9193 130.964 33.602C131.188 33.2847 131.515 33.0373 131.944 32.86C132.383 32.6733 132.915 32.58 133.54 32.58C134.016 32.58 134.492 32.6453 134.968 32.776C135.444 32.8973 135.836 33.0607 136.144 33.266L135.71 34.064C135.383 33.84 135.033 33.6813 134.66 33.588C134.287 33.4853 133.913 33.434 133.54 33.434C132.877 33.434 132.387 33.5507 132.07 33.784C131.762 34.008 131.608 34.2973 131.608 34.652C131.608 34.932 131.692 35.1513 131.86 35.31C132.037 35.4687 132.266 35.5947 132.546 35.688C132.835 35.772 133.148 35.842 133.484 35.898C133.829 35.954 134.17 36.024 134.506 36.108C134.851 36.1827 135.164 36.29 135.444 36.43C135.733 36.5607 135.962 36.752 136.13 37.004C136.307 37.2467 136.396 37.5687 136.396 37.97C136.396 38.3993 136.275 38.7727 136.032 39.09C135.799 39.398 135.453 39.6407 134.996 39.818C134.548 39.986 134.002 40.07 133.358 40.07ZM140.544 40.07C139.853 40.07 139.321 39.8833 138.948 39.51C138.575 39.1367 138.388 38.6093 138.388 37.928V31.026H139.382V37.872C139.382 38.3013 139.489 38.6327 139.704 38.866C139.928 39.0993 140.245 39.216 140.656 39.216C141.095 39.216 141.459 39.09 141.748 38.838L142.098 39.552C141.902 39.7293 141.664 39.86 141.384 39.944C141.113 40.028 140.833 40.07 140.544 40.07ZM137.072 33.476V32.65H141.622V33.476H137.072ZM146.77 40.07C146.004 40.07 145.332 39.9113 144.754 39.594C144.175 39.2673 143.722 38.824 143.396 38.264C143.069 37.6947 142.906 37.046 142.906 36.318C142.906 35.59 143.06 34.946 143.368 34.386C143.685 33.826 144.114 33.3873 144.656 33.07C145.206 32.7433 145.822 32.58 146.504 32.58C147.194 32.58 147.806 32.7387 148.338 33.056C148.879 33.364 149.304 33.8027 149.612 34.372C149.92 34.932 150.074 35.5807 150.074 36.318C150.074 36.3647 150.069 36.416 150.06 36.472C150.06 36.5187 150.06 36.57 150.06 36.626H143.662V35.884H149.528L149.136 36.178C149.136 35.646 149.019 35.1747 148.786 34.764C148.562 34.344 148.254 34.0173 147.862 33.784C147.47 33.5507 147.017 33.434 146.504 33.434C146 33.434 145.547 33.5507 145.146 33.784C144.744 34.0173 144.432 34.344 144.208 34.764C143.984 35.184 143.872 35.6647 143.872 36.206V36.36C143.872 36.92 143.993 37.4147 144.236 37.844C144.488 38.264 144.833 38.5953 145.272 38.838C145.72 39.0713 146.228 39.188 146.798 39.188C147.246 39.188 147.661 39.1087 148.044 38.95C148.436 38.7913 148.772 38.5487 149.052 38.222L149.612 38.866C149.285 39.258 148.874 39.5567 148.38 39.762C147.894 39.9673 147.358 40.07 146.77 40.07ZM161.281 32.58C161.878 32.58 162.396 32.6967 162.835 32.93C163.283 33.154 163.628 33.4993 163.871 33.966C164.123 34.4327 164.249 35.0207 164.249 35.73V40H163.255V35.828C163.255 35.0533 163.068 34.47 162.695 34.078C162.331 33.6767 161.813 33.476 161.141 33.476C160.637 33.476 160.198 33.5833 159.825 33.798C159.461 34.0033 159.176 34.3067 158.971 34.708C158.775 35.1 158.677 35.576 158.677 36.136V40H157.683V35.828C157.683 35.0533 157.496 34.47 157.123 34.078C156.75 33.6767 156.227 33.476 155.555 33.476C155.06 33.476 154.626 33.5833 154.253 33.798C153.88 34.0033 153.59 34.3067 153.385 34.708C153.189 35.1 153.091 35.576 153.091 36.136V40H152.097V32.65H153.049V34.638L152.895 34.288C153.119 33.756 153.478 33.3407 153.973 33.042C154.477 32.734 155.07 32.58 155.751 32.58C156.47 32.58 157.081 32.762 157.585 33.126C158.089 33.4807 158.416 34.0173 158.565 34.736L158.173 34.582C158.388 33.9847 158.766 33.504 159.307 33.14C159.858 32.7667 160.516 32.58 161.281 32.58Z" fill="white"/>
</g>
</g>
<defs>
<filter id="filter0_dii_11488_104492" x="-130" y="-145" width="462" height="360" filterUnits="userSpaceOnUse" color-interpolation-filters="sRGB">
<feFlood flood-opacity="0" result="BackgroundImageFix"/>
<feColorMatrix in="SourceAlpha" type="matrix" values="0 0 0 0 0 0 0 0 0 0 0 0 0 0 0 0 0 0 127 0" result="hardAlpha"/>
<feOffset dy="17.5254"/>
<feGaussianBlur stdDeviation="10.9534"/>
<feComposite in2="hardAlpha" operator="out"/>
<feColorMatrix type="matrix" values="0 0 0 0 0.0666667 0 0 0 0 0.0980392 0 0 0 0 0.117647 0 0 0 0.05 0"/>
<feBlend mode="normal" in2="BackgroundImageFix" result="effect1_dropShadow_11488_104492"/>
<feBlend mode="normal" in="SourceGraphic" in2="effect1_dropShadow_11488_104492" result="shape"/>
<feColorMatrix in="SourceAlpha" type="matrix" values="0 0 0 0 0 0 0 0 0 0 0 0 0 0 0 0 0 0 127 0" result="hardAlpha"/>
<feMorphology radius="1.46045" operator="dilate" in="SourceAlpha" result="effect2_innerShadow_11488_104492"/>
<feOffset dx="-0.730227" dy="0.730227"/>
<feGaussianBlur stdDeviation="0.365113"/>
<feComposite in2="hardAlpha" operator="arithmetic" k2="-1" k3="1"/>
<feColorMatrix type="matrix" values="0 0 0 0 1 0 0 0 0 1 0 0 0 0 1 0 0 0 0.3 0"/>
<feBlend mode="normal" in2="shape" result="effect2_innerShadow_11488_104492"/>
<feColorMatrix in="SourceAlpha" type="matrix" values="0 0 0 0 0 0 0 0 0 0 0 0 0 0 0 0 0 0 127 0" result="hardAlpha"/>
<feOffset dy="0.730227"/>
<feGaussianBlur stdDeviation="2.92091"/>
<feComposite in2="hardAlpha" operator="arithmetic" k2="-1" k3="1"/>
<feColorMatrix type="matrix" values="0 0 0 0 1 0 0 0 0 1 0 0 0 0 1 0 0 0 0.3 0"/>
<feBlend mode="normal" in2="effect2_innerShadow_11488_104492" result="effect3_innerShadow_11488_104492"/>
</filter>
<filter id="filter1_dd_11488_104492" x="78.5957" y="28.1162" width="88.6523" height="18.6699" filterUnits="userSpaceOnUse" color-interpolation-filters="sRGB">
<feFlood flood-opacity="0" result="BackgroundImageFix"/>
<feColorMatrix in="SourceAlpha" type="matrix" values="0 0 0 0 0 0 0 0 0 0 0 0 0 0 0 0 0 0 127 0" result="hardAlpha"/>
<feOffset dy="1"/>
<feGaussianBlur stdDeviation="1"/>
<feColorMatrix type="matrix" values="0 0 0 0 0.0666667 0 0 0 0 0.0980392 0 0 0 0 0.117647 0 0 0 0.05 0"/>
<feBlend mode="normal" in2="BackgroundImageFix" result="effect1_dropShadow_11488_104492"/>
<feColorMatrix in="SourceAlpha" type="matrix" values="0 0 0 0 0 0 0 0 0 0 0 0 0 0 0 0 0 0 127 0" result="hardAlpha"/>
<feOffset dy="1"/>
<feGaussianBlur stdDeviation="1.5"/>
<feColorMatrix type="matrix" values="0 0 0 0 0.0666667 0 0 0 0 0.0980392 0 0 0 0 0.117647 0 0 0 0.1 0"/>
<feBlend mode="normal" in2="effect1_dropShadow_11488_104492" result="effect2_dropShadow_11488_104492"/>
<feBlend mode="normal" in="SourceGraphic" in2="effect2_dropShadow_11488_104492" result="shape"/>
</filter>
</defs>
</svg>
