<svg width="44" height="44" viewBox="0 0 44 44" fill="none" xmlns="http://www.w3.org/2000/svg">
<path d="M22.0013 5.5C19.4805 5.5 17.418 7.5625 17.418 10.0833C17.418 12.6042 19.4805 14.6667 22.0013 14.6667C24.5221 14.6667 26.5846 12.6042 26.5846 10.0833C26.5846 7.5625 24.5221 5.5 22.0013 5.5ZM22.0013 29.3333C19.4805 29.3333 17.418 31.3958 17.418 33.9167C17.418 36.4375 19.4805 38.5 22.0013 38.5C24.5221 38.5 26.5846 36.4375 26.5846 33.9167C26.5846 31.3958 24.5221 29.3333 22.0013 29.3333ZM22.0013 17.4167C19.4805 17.4167 17.418 19.4792 17.418 22C17.418 24.5208 19.4805 26.5833 22.0013 26.5833C24.5221 26.5833 26.5846 24.5208 26.5846 22C26.5846 19.4792 24.5221 17.4167 22.0013 17.4167Z" fill="white"/>
</svg>
