<svg width="24" height="24" viewBox="0 0 24 24" fill="none" xmlns="http://www.w3.org/2000/svg">
<g id="Send">
<path id="Vector" fill-rule="evenodd" clip-rule="evenodd" d="M9.82344 5.56208L15.2359 7.99722C16.8812 8.73745 18.1761 9.32002 19.0545 9.87169C19.9222 10.4166 20.6001 11.0627 20.6001 12.0001C20.6001 12.9375 19.9222 13.5836 19.0545 14.1285C18.1761 14.6802 16.8812 15.2627 15.2359 16.0029L9.82344 18.4381C8.81781 18.8905 8.0355 19.2425 7.42464 19.4709C6.82689 19.6945 6.29266 19.8413 5.81763 19.7896C4.66546 19.6643 3.67402 18.8742 3.43407 17.7588C3.33237 17.286 3.47458 16.7572 3.67889 16.2078C3.89044 15.6389 4.22666 14.9086 4.655 13.9781L4.66655 13.953C5.00132 13.2258 5.13015 12.9388 5.19589 12.6525C5.29478 12.2219 5.29478 11.7783 5.19589 11.3476C5.13015 11.0614 5.00132 10.7744 4.66655 10.0472L4.655 10.0221C4.22666 9.0916 3.89044 8.36123 3.67889 7.79239C3.47458 7.24299 3.33237 6.71413 3.43407 6.24137C3.67402 5.12594 4.66546 4.33586 5.81763 4.21057C6.29266 4.15891 6.82689 4.30571 7.42464 4.52923C8.0355 4.75766 8.81782 5.10964 9.82344 5.56208ZM7.00434 5.65322C6.417 5.43359 6.11695 5.38509 5.94736 5.40353C5.23691 5.48079 4.72383 5.95171 4.60723 6.49375C4.58554 6.5946 4.60069 6.8284 4.80363 7.37411C4.99744 7.89526 5.31423 8.58443 5.7566 9.54538C5.76629 9.56643 5.77587 9.58723 5.78533 9.60779C6.08214 10.2523 6.26858 10.6572 6.36545 11.0791C6.50492 11.6865 6.50492 12.3137 6.36545 12.9211C6.26858 13.343 6.08214 13.7478 5.78533 14.3924C5.77587 14.4129 5.76629 14.4337 5.7566 14.4548C5.31423 15.4157 4.99744 16.1049 4.80363 16.6261C4.60069 17.1718 4.58554 17.4056 4.60723 17.5064C4.72383 18.0485 5.23691 18.5194 5.94736 18.5966C6.11695 18.6151 6.417 18.5666 7.00433 18.347C7.57419 18.1339 8.32093 17.7982 9.35275 17.334L14.695 14.9304C16.3993 14.1637 17.617 13.6142 18.4163 13.1123C19.235 12.5981 19.4001 12.2641 19.4001 12.0001C19.4001 11.7361 19.235 11.4021 18.4163 10.8879C17.617 10.3859 16.3993 9.83649 14.6951 9.06974L9.35276 6.66617C8.32094 6.20195 7.57419 5.86631 7.00434 5.65322Z" fill="#11191E"/>
</g>
</svg>
