<svg width="50" height="50" viewBox="0 0 50 50" fill="none" xmlns="http://www.w3.org/2000/svg">
<g filter="url(#filter0_dd_11577_32164)">
<path d="M5 21C5 9.95431 13.9543 1 25 1C36.0457 1 45 9.95431 45 21C45 32.0457 36.0457 41 25 41C13.9543 41 5 32.0457 5 21Z" fill="url(#paint0_linear_11577_32164)"/>
<path d="M5.5 21C5.5 10.2304 14.2304 1.5 25 1.5C35.7696 1.5 44.5 10.2304 44.5 21C44.5 31.7696 35.7696 40.5 25 40.5C14.2304 40.5 5.5 31.7696 5.5 21Z" stroke="#0099FF" stroke-opacity="0.05"/>
<path d="M12.4983 27L17.4903 15.8H20.0503L25.0583 27H22.3383L18.2423 17.112H19.2663L15.1543 27H12.4983ZM14.9943 24.6L15.6823 22.632H21.4423L22.1463 24.6H14.9943ZM24.9637 27L29.9557 15.8H32.5157L37.5237 27H34.8037L30.7077 17.112H31.7317L27.6197 27H24.9637ZM27.4597 24.6L28.1477 22.632H33.9077L34.6117 24.6H27.4597Z" fill="white"/>
</g>
<defs>
<filter id="filter0_dd_11577_32164" x="0" y="0" width="50" height="50" filterUnits="userSpaceOnUse" color-interpolation-filters="sRGB">
<feFlood flood-opacity="0" result="BackgroundImageFix"/>
<feColorMatrix in="SourceAlpha" type="matrix" values="0 0 0 0 0 0 0 0 0 0 0 0 0 0 0 0 0 0 127 0" result="hardAlpha"/>
<feMorphology radius="1" operator="erode" in="SourceAlpha" result="effect1_dropShadow_11577_32164"/>
<feOffset dy="2"/>
<feGaussianBlur stdDeviation="2"/>
<feColorMatrix type="matrix" values="0 0 0 0 0.0666667 0 0 0 0 0.0980392 0 0 0 0 0.117647 0 0 0 0.05 0"/>
<feBlend mode="normal" in2="BackgroundImageFix" result="effect1_dropShadow_11577_32164"/>
<feColorMatrix in="SourceAlpha" type="matrix" values="0 0 0 0 0 0 0 0 0 0 0 0 0 0 0 0 0 0 127 0" result="hardAlpha"/>
<feMorphology radius="1" operator="erode" in="SourceAlpha" result="effect2_dropShadow_11577_32164"/>
<feOffset dy="4"/>
<feGaussianBlur stdDeviation="3"/>
<feColorMatrix type="matrix" values="0 0 0 0 0.0666667 0 0 0 0 0.0980392 0 0 0 0 0.117647 0 0 0 0.1 0"/>
<feBlend mode="normal" in2="effect1_dropShadow_11577_32164" result="effect2_dropShadow_11577_32164"/>
<feBlend mode="normal" in="SourceGraphic" in2="effect2_dropShadow_11577_32164" result="shape"/>
</filter>
<linearGradient id="paint0_linear_11577_32164" x1="8.10399" y1="20.7354" x2="44.9707" y2="20.7354" gradientUnits="userSpaceOnUse">
<stop stop-color="#4C90CD"/>
<stop offset="0.15" stop-color="#4677BA"/>
<stop offset="0.34" stop-color="#415DA8"/>
<stop offset="0.53" stop-color="#3D4B9B"/>
<stop offset="0.74" stop-color="#3A4093"/>
<stop offset="0.97" stop-color="#3A3D91"/>
<stop offset="1" stop-color="#3A3D91"/>
</linearGradient>
</defs>
</svg>
