<svg width="48" height="48" viewBox="0 0 48 48" fill="none" xmlns="http://www.w3.org/2000/svg">
<g filter="url(#filter0_ddii_8036_95806)">
<path fill-rule="evenodd" clip-rule="evenodd" d="M15.9098 31.2456H32.0903C32.3316 31.2456 32.5629 31.3381 32.7335 31.5026C32.9041 31.6672 33 31.8905 33 32.1232C33 32.356 32.9041 32.5792 32.7335 32.7438C32.5629 32.9084 32.3315 33.0009 32.0902 33.0009H15.9098C15.6685 33.0009 15.4371 32.9084 15.2665 32.7438C15.0959 32.5792 15 32.356 15 32.1232C15 31.8905 15.0959 31.6672 15.2665 31.5026C15.4371 31.3381 15.6685 31.2456 15.9098 31.2456ZM18 29.0961C17.177 28.937 16.4544 28.4557 15.851 27.8739C15.6653 27.6948 15.4794 27.5158 15.2934 27.3369C15.2076 27.2558 15.1394 27.159 15.0926 27.0523C15.0458 26.9455 15.0214 26.8309 15.0208 26.715C15.0203 26.5991 15.0435 26.4842 15.0892 26.377C15.1349 26.2698 15.2022 26.1725 15.2871 26.0905C15.3721 26.0086 15.4731 25.9437 15.5842 25.8996C15.6953 25.8555 15.8144 25.8331 15.9345 25.8336C16.0547 25.8342 16.1735 25.8577 16.2842 25.9028C16.3948 25.948 16.4951 26.0138 16.5793 26.0965L17.1048 26.6035L18.1048 15.8801C18.1048 15.6473 18.2006 15.4241 18.3713 15.2595C18.5419 15.0949 18.7733 15.0024 19.0146 15.0024C19.2559 15.0024 19.4873 15.0949 19.658 15.2595C19.8286 15.4241 19.9244 15.6473 19.9244 15.8801V27.9012C19.9247 28.1423 19.8508 28.378 19.712 28.5785C19.5732 28.779 19.3758 28.9352 19.1449 29.0274C18.9139 29.1195 18.2451 29.1434 18 29.0961ZM29.9446 29.0961C29.6996 29.1434 29.0307 29.1195 28.7998 29.0274C28.5688 28.9352 28.3714 28.779 28.2326 28.5785C28.0939 28.378 28.0199 28.1423 28.0202 27.9012V15.8801C28.0202 15.6473 28.1161 15.4241 28.2867 15.2595C28.4573 15.0949 28.6887 15.0024 28.93 15.0024C29.1713 15.0024 29.4028 15.0949 29.5734 15.2595C29.744 15.4241 29.8399 15.6473 29.8399 15.8801L30.8399 26.6035L31.3654 26.0965C31.4495 26.0138 31.5498 25.948 31.6605 25.9028C31.7712 25.8577 31.89 25.8342 32.0101 25.8336C32.1303 25.8331 32.2494 25.8555 32.3605 25.8996C32.4716 25.9437 32.5725 26.0086 32.6575 26.0905C32.7425 26.1725 32.8097 26.2698 32.8555 26.377C32.9012 26.4842 32.9244 26.5991 32.9238 26.715C32.9232 26.8309 32.8988 26.9455 32.8521 27.0523C32.8053 27.159 32.737 27.2558 32.6513 27.3369C32.4653 27.5158 32.2794 27.6948 32.0936 27.8739C31.4902 28.4557 30.7676 28.937 29.9446 29.0961ZM23.9554 30.1182C24.1438 30.1232 24.3213 30.1159 24.4241 30.0961C25.2471 29.937 25.9697 29.4557 26.5731 28.8739C26.7588 28.6948 26.9447 28.5158 27.1307 28.3369C27.2165 28.2558 27.2848 28.159 27.3316 28.0523C27.3783 27.9455 27.4027 27.8309 27.4033 27.715C27.4039 27.5991 27.3807 27.4842 27.3349 27.377C27.2892 27.2698 27.222 27.1725 27.137 27.0905C27.052 27.0086 26.9511 26.9437 26.84 26.8996C26.7289 26.8555 26.6098 26.8331 26.4896 26.8336C26.3695 26.8342 26.2506 26.8577 26.14 26.9028C26.0293 26.948 25.929 27.0138 25.8449 27.0965L25.3443 27.5794L24.8197 15.8801C24.8197 15.6473 24.7238 15.4241 24.5532 15.2595C24.3825 15.0949 24.1511 15.0024 23.9098 15.0024C23.9066 15.0024 23.9033 15.0025 23.9 15.0025C23.8967 15.0025 23.8934 15.0024 23.8902 15.0024C23.6489 15.0024 23.4175 15.0949 23.2468 15.2595C23.0762 15.4241 22.9803 15.6473 22.9803 15.8801L22.5488 27.5698L22.0584 27.0967C21.9743 27.014 21.874 26.9482 21.7633 26.903C21.6527 26.8579 21.5338 26.8344 21.4137 26.8338C21.2935 26.8333 21.1745 26.8557 21.0634 26.8998C20.9522 26.9439 20.8513 27.0088 20.7663 27.0907C20.6814 27.1727 20.6141 27.27 20.5684 27.3772C20.5227 27.4844 20.4994 27.5993 20.5 27.7152C20.5006 27.8311 20.525 27.9457 20.5718 28.0525C20.6185 28.1592 20.6868 28.256 20.7726 28.3371C20.9586 28.516 21.1445 28.695 21.3302 28.8741C21.9336 29.4559 22.6562 29.9372 23.4792 30.0963C23.5834 30.1164 23.7642 30.1236 23.9554 30.1182Z" fill="white"/>
</g>
<defs>
<filter id="filter0_ddii_8036_95806" x="0.857143" y="0.85812" width="47.1429" height="47.1429" filterUnits="userSpaceOnUse" color-interpolation-filters="sRGB">
<feFlood flood-opacity="0" result="BackgroundImageFix"/>
<feColorMatrix in="SourceAlpha" type="matrix" values="0 0 0 0 0 0 0 0 0 0 0 0 0 0 0 0 0 0 127 0" result="hardAlpha"/>
<feOffset dx="2.57143" dy="2.57143"/>
<feGaussianBlur stdDeviation="4.71429"/>
<feComposite in2="hardAlpha" operator="out"/>
<feColorMatrix type="matrix" values="0 0 0 0 1 0 0 0 0 0.14902 0 0 0 0 0.658824 0 0 0 1 0"/>
<feBlend mode="normal" in2="BackgroundImageFix" result="effect1_dropShadow_8036_95806"/>
<feColorMatrix in="SourceAlpha" type="matrix" values="0 0 0 0 0 0 0 0 0 0 0 0 0 0 0 0 0 0 127 0" result="hardAlpha"/>
<feOffset dx="-2.57143" dy="-2.57143"/>
<feGaussianBlur stdDeviation="4.28571"/>
<feComposite in2="hardAlpha" operator="out"/>
<feColorMatrix type="matrix" values="0 0 0 0 1 0 0 0 0 1 0 0 0 0 1 0 0 0 0.4 0"/>
<feBlend mode="normal" in2="effect1_dropShadow_8036_95806" result="effect2_dropShadow_8036_95806"/>
<feBlend mode="normal" in="SourceGraphic" in2="effect2_dropShadow_8036_95806" result="shape"/>
<feColorMatrix in="SourceAlpha" type="matrix" values="0 0 0 0 0 0 0 0 0 0 0 0 0 0 0 0 0 0 127 0" result="hardAlpha"/>
<feOffset dy="-1.28571"/>
<feGaussianBlur stdDeviation="0.985714"/>
<feComposite in2="hardAlpha" operator="arithmetic" k2="-1" k3="1"/>
<feColorMatrix type="matrix" values="0 0 0 0 1 0 0 0 0 0.219608 0 0 0 0 0.298039 0 0 0 0.4 0"/>
<feBlend mode="normal" in2="shape" result="effect3_innerShadow_8036_95806"/>
<feColorMatrix in="SourceAlpha" type="matrix" values="0 0 0 0 0 0 0 0 0 0 0 0 0 0 0 0 0 0 127 0" result="hardAlpha"/>
<feOffset dy="-0.428571"/>
<feGaussianBlur stdDeviation="0.557143"/>
<feComposite in2="hardAlpha" operator="arithmetic" k2="-1" k3="1"/>
<feColorMatrix type="matrix" values="0 0 0 0 1 0 0 0 0 1 0 0 0 0 1 0 0 0 0.6 0"/>
<feBlend mode="normal" in2="effect3_innerShadow_8036_95806" result="effect4_innerShadow_8036_95806"/>
</filter>
</defs>
</svg>
