<svg width="48" height="48" viewBox="0 0 48 48" fill="none" xmlns="http://www.w3.org/2000/svg">
<g filter="url(#filter0_ddii_8036_95810)">
<path d="M15.1078 21.1137C15.1021 21.3862 15.1487 21.6571 15.2447 21.9105C15.3407 22.1639 15.4842 22.3948 15.6668 22.5896C15.8494 22.7843 16.0674 22.9391 16.3081 23.0447C16.5487 23.1504 16.8072 23.2048 17.0682 23.2048C17.3293 23.2048 17.5878 23.1504 17.8284 23.0447C18.0691 22.9391 18.2871 22.7843 18.4697 22.5896C18.6523 22.3948 18.7958 22.1639 18.8918 21.9105C18.9878 21.6571 19.0343 21.3862 19.0287 21.1137C19.2075 19.7818 18.1376 19.0214 17.0678 19.0214C16.5432 19.0313 16.0435 19.2564 15.6767 19.648C15.3099 20.0395 15.1055 20.5661 15.1078 21.1137ZM33.7456 16.245C33.4377 16.2294 33.136 16.3393 32.9041 16.5514C32.6723 16.7635 32.5284 17.0613 32.5028 17.382C32.6815 17.9523 33.2154 18.5226 33.7514 18.5226C34.0601 18.5365 34.362 18.4258 34.5945 18.2134C34.827 18.001 34.9723 17.7033 35 17.382C34.9712 17.0603 34.8251 16.7624 34.5919 16.5499C34.3587 16.3373 34.0561 16.2265 33.7468 16.2402L33.7456 16.245ZM28.3047 17.1859C28.7031 17.1953 29.0951 17.0805 29.4307 16.8562C29.7664 16.632 30.0304 16.3084 30.189 15.9269C30.3477 15.5453 30.3939 15.1231 30.3216 14.714C30.2494 14.3049 30.062 13.9276 29.7834 13.6302C29.5048 13.3328 29.1476 13.1288 28.7574 13.0442C28.3673 12.9596 27.9618 12.9983 27.5928 13.1554C27.2238 13.3124 26.908 13.5806 26.6857 13.9259C26.4634 14.2711 26.3447 14.6776 26.3447 15.0936C26.1659 16.2294 27.0573 17.1811 28.3047 17.1811V17.1859ZM20.1375 17.7562C21.0286 17.7562 21.92 16.9958 21.92 16.0441C21.92 15.0923 21.2065 14.3275 20.1375 14.3275C19.2465 14.3275 18.3551 15.0904 18.3551 16.0396C18.3551 16.9888 19.0677 17.7517 20.1375 17.7517V17.7562ZM28.9713 22.6669C28.9713 23.6235 29.6849 24.3791 30.7538 24.3791C31.6449 24.3791 32.5363 23.6161 32.5363 22.6669C32.5363 21.7177 31.8237 20.9548 30.7538 20.9548C29.867 20.9522 28.9713 21.7104 28.9713 22.6669ZM24.5464 22.5102C24.7365 22.5108 24.9248 22.4716 25.1002 22.3949C25.2756 22.3181 25.4345 22.2055 25.5674 22.0636C25.7004 21.9217 25.8047 21.7534 25.8743 21.5687C25.9439 21.384 25.9773 21.1866 25.9725 20.9882C25.9513 20.5975 25.7951 20.228 25.5329 19.9484C25.2706 19.6687 24.9201 19.4978 24.5464 19.4674C24.3563 19.4668 24.1681 19.5059 23.9927 19.5826C23.8174 19.6592 23.6586 19.7717 23.5257 19.9135C23.3927 20.0552 23.2883 20.2234 23.2187 20.408C23.1491 20.5926 23.1156 20.7898 23.1202 20.9882C23.1417 21.3787 23.2981 21.7478 23.5603 22.0272C23.8225 22.3066 24.1728 22.4774 24.5464 22.508V22.5102ZM33.3424 25.7651C33.1763 25.7386 33.0066 25.7746 32.8637 25.8668C29.0264 28.7278 25.5714 26.6847 25.4764 26.5843C18.2817 21.8795 13.4867 26.8856 13.4867 26.8856C13.428 26.9349 13.3804 26.9971 13.3473 27.0677C13.3143 27.1384 13.2965 27.2158 13.2954 27.2944C13.3185 27.4476 13.3851 27.5901 13.4867 27.7032C13.6792 28.0094 14.0595 27.9076 14.3504 27.7032C14.4466 27.4988 18.3791 23.5182 24.7111 27.6015C25.8776 28.2993 27.2042 28.6523 28.5483 28.6226C30.3746 28.6042 32.1508 27.9974 33.6341 26.8853C33.743 26.7636 33.8111 26.6082 33.8282 26.4426C33.8454 26.2771 33.8106 26.1101 33.7292 25.9669C33.684 25.9043 33.6257 25.8534 33.5588 25.818C33.4919 25.7825 33.418 25.7636 33.343 25.7625L33.3424 25.7651ZM14.425 16.2307C14.7583 16.2345 15.0826 16.1177 15.3427 15.9C15.6027 15.6823 15.7824 15.3772 15.8512 15.0367C15.9199 14.6962 15.8735 14.3414 15.7197 14.0327C15.566 13.7239 15.3144 13.4804 15.0079 13.3435C14.7015 13.2066 14.359 13.1849 14.0389 13.282C13.7188 13.3791 13.4408 13.5891 13.2524 13.8761C13.0639 14.1631 12.9766 14.5095 13.0054 14.8562C13.0341 15.2028 13.1771 15.5284 13.41 15.7773C13.5423 15.9188 13.7001 16.0316 13.8743 16.1094C14.0484 16.1872 14.2356 16.2284 14.425 16.2307Z" fill="white"/>
<path d="M31.709 35.0006C31.2627 35.0006 30.8659 34.9022 30.5188 34.7053C30.1766 34.5084 29.9064 34.2245 29.708 33.8536C29.5097 33.4828 29.4105 33.0317 29.4105 32.5006C29.4105 31.9695 29.5097 31.5185 29.708 31.1476C29.9064 30.7767 30.1766 30.4928 30.5188 30.2959C30.8659 30.0991 31.2627 30.0006 31.709 30.0006C32.1503 30.0006 32.5421 30.0991 32.8842 30.2959C33.2314 30.4928 33.5041 30.7767 33.7025 31.1476C33.9008 31.5185 34 31.9695 34 32.5006C34 33.0317 33.9008 33.4828 33.7025 33.8536C33.5041 34.2245 33.2314 34.5084 32.8842 34.7053C32.5421 34.9022 32.1503 35.0006 31.709 35.0006ZM31.709 33.888C31.8676 33.888 32.0065 33.8422 32.1255 33.7506C32.2495 33.659 32.3462 33.5125 32.4156 33.3111C32.485 33.105 32.5198 32.8349 32.5198 32.5006C32.5198 32.1618 32.485 31.8916 32.4156 31.6902C32.3462 31.4887 32.2495 31.3422 32.1255 31.2506C32.0065 31.159 31.8676 31.1132 31.709 31.1132C31.5503 31.1132 31.4089 31.159 31.285 31.2506C31.166 31.3422 31.0693 31.4887 30.9949 31.6902C30.9254 31.8916 30.8907 32.1618 30.8907 32.5006C30.8907 32.8349 30.9254 33.105 30.9949 33.3111C31.0693 33.5125 31.166 33.659 31.285 33.7506C31.4089 33.8422 31.5503 33.888 31.709 33.888Z" fill="white"/>
<path d="M27.1547 34.9045V30.5844L27.787 31.1476H26.1877V30.0968H28.6275V34.9045H27.1547Z" fill="white"/>
<path d="M19.4118 34.9045V30.0968H20.6242L22.7814 33.366H22.1417L24.2393 30.0968H25.4518L25.4667 34.9045H24.1129L24.098 31.9992H24.3286L22.7591 34.4306H22.1045L20.4903 31.9992H20.773V34.9045H19.4118Z" fill="white"/>
<path d="M14 34.9045V30.0968H16.3803C16.8564 30.0968 17.2655 30.1677 17.6076 30.3097C17.9548 30.4516 18.2226 30.6577 18.411 30.9278C18.5994 31.1934 18.6937 31.5093 18.6937 31.8756C18.6937 32.2373 18.5994 32.551 18.411 32.8165C18.2226 33.0821 17.9548 33.2882 17.6076 33.4347C17.2655 33.5766 16.8564 33.6476 16.3803 33.6476H14.8182L15.4728 33.0569V34.9045H14ZM15.4728 33.2012L14.8182 32.5762H16.291C16.5985 32.5762 16.8266 32.5144 16.9754 32.3907C17.1291 32.2671 17.206 32.0954 17.206 31.8756C17.206 31.6513 17.1291 31.4773 16.9754 31.3536C16.8266 31.23 16.5985 31.1682 16.291 31.1682H14.8182L15.4728 30.5432V33.2012Z" fill="white"/>
</g>
<defs>
<filter id="filter0_ddii_8036_95810" x="0.857143" y="0.85812" width="47.1429" height="47.1429" filterUnits="userSpaceOnUse" color-interpolation-filters="sRGB">
<feFlood flood-opacity="0" result="BackgroundImageFix"/>
<feColorMatrix in="SourceAlpha" type="matrix" values="0 0 0 0 0 0 0 0 0 0 0 0 0 0 0 0 0 0 127 0" result="hardAlpha"/>
<feOffset dx="2.57143" dy="2.57143"/>
<feGaussianBlur stdDeviation="4.71429"/>
<feComposite in2="hardAlpha" operator="out"/>
<feColorMatrix type="matrix" values="0 0 0 0 1 0 0 0 0 0.14902 0 0 0 0 0.658824 0 0 0 1 0"/>
<feBlend mode="normal" in2="BackgroundImageFix" result="effect1_dropShadow_8036_95810"/>
<feColorMatrix in="SourceAlpha" type="matrix" values="0 0 0 0 0 0 0 0 0 0 0 0 0 0 0 0 0 0 127 0" result="hardAlpha"/>
<feOffset dx="-2.57143" dy="-2.57143"/>
<feGaussianBlur stdDeviation="4.28571"/>
<feComposite in2="hardAlpha" operator="out"/>
<feColorMatrix type="matrix" values="0 0 0 0 1 0 0 0 0 1 0 0 0 0 1 0 0 0 0.4 0"/>
<feBlend mode="normal" in2="effect1_dropShadow_8036_95810" result="effect2_dropShadow_8036_95810"/>
<feBlend mode="normal" in="SourceGraphic" in2="effect2_dropShadow_8036_95810" result="shape"/>
<feColorMatrix in="SourceAlpha" type="matrix" values="0 0 0 0 0 0 0 0 0 0 0 0 0 0 0 0 0 0 127 0" result="hardAlpha"/>
<feOffset dy="-1.28571"/>
<feGaussianBlur stdDeviation="0.985714"/>
<feComposite in2="hardAlpha" operator="arithmetic" k2="-1" k3="1"/>
<feColorMatrix type="matrix" values="0 0 0 0 1 0 0 0 0 0.219608 0 0 0 0 0.298039 0 0 0 0.4 0"/>
<feBlend mode="normal" in2="shape" result="effect3_innerShadow_8036_95810"/>
<feColorMatrix in="SourceAlpha" type="matrix" values="0 0 0 0 0 0 0 0 0 0 0 0 0 0 0 0 0 0 127 0" result="hardAlpha"/>
<feOffset dy="-0.428571"/>
<feGaussianBlur stdDeviation="0.557143"/>
<feComposite in2="hardAlpha" operator="arithmetic" k2="-1" k3="1"/>
<feColorMatrix type="matrix" values="0 0 0 0 1 0 0 0 0 1 0 0 0 0 1 0 0 0 0.6 0"/>
<feBlend mode="normal" in2="effect3_innerShadow_8036_95810" result="effect4_innerShadow_8036_95810"/>
</filter>
</defs>
</svg>
