<svg width="48" height="48" viewBox="0 0 48 48" fill="none" xmlns="http://www.w3.org/2000/svg">
<g filter="url(#filter0_ddii_8036_95748)">
<path d="M20 18.0004C20 16.9396 20.4214 15.9222 21.1716 15.172C21.9217 14.4219 22.9391 14.0005 24 14.0005C25.0609 14.0005 26.0783 14.4219 26.8284 15.172C27.5786 15.9222 28 16.9396 28 18.0004V21.2554C29.223 22.1069 30.1423 23.3266 30.6241 24.7368C31.1059 26.147 31.125 27.6741 30.6788 29.096C30.2325 30.5178 29.3441 31.7601 28.1429 32.6421C26.9416 33.5241 25.4903 33.9997 24 33.9997C22.5097 33.9997 21.0584 33.5241 19.8571 32.6421C18.6559 31.7601 17.7675 30.5178 17.3212 29.096C16.875 27.6741 16.8941 26.147 17.3759 24.7368C17.8577 23.3266 18.777 22.1069 20 21.2554V18.0004ZM21.144 22.8953C20.2702 23.5034 19.6132 24.3745 19.2689 25.3819C18.9245 26.3892 18.9106 27.4801 19.2292 28.4959C19.5479 29.5117 20.1825 30.3992 21.0405 31.0293C21.8986 31.6594 22.9354 31.9992 24 31.9992C25.0646 31.9992 26.1014 31.6594 26.9595 31.0293C27.8175 30.3992 28.4521 29.5117 28.7708 28.4959C29.0894 27.4801 29.0755 26.3892 28.7311 25.3819C28.3868 24.3745 27.7298 23.5034 26.856 22.8953L26 22.2983V18.0004C26 17.47 25.7893 16.9613 25.4142 16.5862C25.0391 16.2112 24.5304 16.0005 24 16.0005C23.4696 16.0005 22.9609 16.2112 22.5858 16.5862C22.2107 16.9613 22 17.47 22 18.0004V22.2983L21.144 22.8953ZM20 27.0003H28C28 28.0611 27.5786 29.0785 26.8284 29.8286C26.0783 30.5788 25.0609 31.0002 24 31.0002C22.9391 31.0002 21.9217 30.5788 21.1716 29.8286C20.4214 29.0785 20 28.0611 20 27.0003Z" fill="white"/>
</g>
<defs>
<filter id="filter0_ddii_8036_95748" x="0.857143" y="0.857631" width="47.1429" height="47.1424" filterUnits="userSpaceOnUse" color-interpolation-filters="sRGB">
<feFlood flood-opacity="0" result="BackgroundImageFix"/>
<feColorMatrix in="SourceAlpha" type="matrix" values="0 0 0 0 0 0 0 0 0 0 0 0 0 0 0 0 0 0 127 0" result="hardAlpha"/>
<feOffset dx="2.57143" dy="2.57143"/>
<feGaussianBlur stdDeviation="4.71429"/>
<feComposite in2="hardAlpha" operator="out"/>
<feColorMatrix type="matrix" values="0 0 0 0 0.321569 0 0 0 0 0.435294 0 0 0 0 1 0 0 0 1 0"/>
<feBlend mode="normal" in2="BackgroundImageFix" result="effect1_dropShadow_8036_95748"/>
<feColorMatrix in="SourceAlpha" type="matrix" values="0 0 0 0 0 0 0 0 0 0 0 0 0 0 0 0 0 0 127 0" result="hardAlpha"/>
<feOffset dx="-2.57143" dy="-2.57143"/>
<feGaussianBlur stdDeviation="4.28571"/>
<feComposite in2="hardAlpha" operator="out"/>
<feColorMatrix type="matrix" values="0 0 0 0 1 0 0 0 0 1 0 0 0 0 1 0 0 0 0.4 0"/>
<feBlend mode="normal" in2="effect1_dropShadow_8036_95748" result="effect2_dropShadow_8036_95748"/>
<feBlend mode="normal" in="SourceGraphic" in2="effect2_dropShadow_8036_95748" result="shape"/>
<feColorMatrix in="SourceAlpha" type="matrix" values="0 0 0 0 0 0 0 0 0 0 0 0 0 0 0 0 0 0 127 0" result="hardAlpha"/>
<feOffset dy="-1.28571"/>
<feGaussianBlur stdDeviation="0.985714"/>
<feComposite in2="hardAlpha" operator="arithmetic" k2="-1" k3="1"/>
<feColorMatrix type="matrix" values="0 0 0 0 0 0 0 0 0 0.598039 0 0 0 0 1 0 0 0 0.4 0"/>
<feBlend mode="normal" in2="shape" result="effect3_innerShadow_8036_95748"/>
<feColorMatrix in="SourceAlpha" type="matrix" values="0 0 0 0 0 0 0 0 0 0 0 0 0 0 0 0 0 0 127 0" result="hardAlpha"/>
<feOffset dy="-0.428571"/>
<feGaussianBlur stdDeviation="0.557143"/>
<feComposite in2="hardAlpha" operator="arithmetic" k2="-1" k3="1"/>
<feColorMatrix type="matrix" values="0 0 0 0 1 0 0 0 0 1 0 0 0 0 1 0 0 0 0.6 0"/>
<feBlend mode="normal" in2="effect3_innerShadow_8036_95748" result="effect4_innerShadow_8036_95748"/>
</filter>
</defs>
</svg>
