<svg width="48" height="48" viewBox="0 0 48 48" fill="none" xmlns="http://www.w3.org/2000/svg">
<g filter="url(#filter0_ddii_8036_95750)">
<path fill-rule="evenodd" clip-rule="evenodd" d="M26.357 16.251C27.4342 16.2522 28.4655 16.692 29.2251 17.4719C29.9845 18.2515 30.4105 19.3072 30.4116 20.407V27.3382C30.4116 28.4384 29.986 29.4949 29.2263 30.2748C28.4664 31.0549 27.4343 31.4945 26.3567 31.4945C25.2792 31.4945 24.2471 31.0549 23.4872 30.2748C22.7275 29.4949 22.3018 28.4384 22.3018 27.3382V20.4073C22.303 19.3075 22.729 18.2515 23.4884 17.4719C24.248 16.692 25.2799 16.2522 26.357 16.251ZM17.8049 16.251C18.8825 16.251 19.9145 16.6905 20.6745 17.4707C21.4341 18.2506 21.8598 19.307 21.8598 20.4073C21.8598 20.7109 21.7424 21.0033 21.5314 21.2199C21.3202 21.4368 21.0323 21.5599 20.7306 21.5599C20.429 21.5599 20.1411 21.4368 19.9298 21.2199C19.7188 21.0033 19.6014 20.7109 19.6014 20.4073V20.4024C19.6062 20.1553 19.563 19.9099 19.4744 19.6805C19.3857 19.4512 19.2536 19.2427 19.086 19.0672C18.9184 18.8917 18.7187 18.7526 18.4989 18.6578C18.2791 18.563 18.0433 18.5142 17.8053 18.5142C17.5673 18.5142 17.3315 18.563 17.1117 18.6578C16.8919 18.7526 16.6922 18.8917 16.5246 19.0672C16.357 19.2427 16.2249 19.4512 16.1362 19.6805C16.0476 19.9099 16.0043 20.1553 16.0091 20.4024L16.0092 20.4073L16.0092 27.3431C16.0044 27.5901 16.0476 27.8355 16.1362 28.0649C16.2249 28.2943 16.357 28.5027 16.5246 28.6783C16.6922 28.8538 16.8919 28.9929 17.1117 29.0877C17.3315 29.1825 17.5673 29.2312 17.8053 29.2312C18.0433 29.2312 18.2791 29.1825 18.4989 29.0877C18.7187 28.9929 18.9184 28.8538 19.086 28.6783C19.2536 28.5027 19.3857 28.2943 19.4744 28.0649C19.563 27.8355 19.6063 27.5901 19.6015 27.3431L19.6014 27.3382C19.6014 27.0346 19.7188 26.7421 19.9298 26.5255C20.1411 26.3087 20.429 26.1856 20.7306 26.1856C21.0322 26.1856 21.3201 26.3087 21.5314 26.5255C21.7424 26.7421 21.8598 27.0346 21.8598 27.3382C21.8598 28.4384 21.4341 29.4949 20.6745 30.2748C19.9145 31.0549 18.8825 31.4945 17.8049 31.4945C16.7273 31.4945 15.6952 31.0549 14.9353 30.2748C14.1757 29.4949 13.75 28.4384 13.75 27.3382V20.4073C13.7511 19.3075 14.1771 18.2515 14.9365 17.4719C15.6961 16.692 16.7277 16.2522 17.8049 16.251ZM25.4655 18.1987C25.7476 18.077 26.0508 18.0142 26.3571 18.0142C26.6635 18.0142 26.9667 18.077 27.2488 18.1987C27.5308 18.3203 27.786 18.4983 27.9995 18.7219C28.2129 18.9455 28.3805 19.2102 28.4926 19.5003C28.6044 19.7897 28.659 20.0987 28.6533 20.4096V27.3382C28.6525 27.9593 28.4119 28.5564 27.9822 28.9976C27.5523 29.439 26.968 29.6885 26.357 29.6893C25.7463 29.6883 25.1615 29.4386 24.7317 28.9972C24.3022 28.5561 24.0617 27.9595 24.061 27.3385V20.4096C24.0553 20.0987 24.1099 19.7897 24.2217 19.5003C24.3338 19.2102 24.5014 18.9455 24.7148 18.7219C24.9283 18.4983 25.1835 18.3203 25.4655 18.1987ZM32.1017 25.0416C32.5127 24.9565 32.9755 24.9642 33.3817 25.1854C33.5295 25.2658 33.6996 25.3742 33.8129 25.5054C34.0835 25.8191 34.2377 26.2193 34.2499 26.6361L34.2501 26.6434L34.25 26.6685C34.2306 27.1538 34.0868 27.6257 33.833 28.0366L33.2864 29.1582C33.2267 29.288 33.1361 29.4511 33.0513 29.6036C33.0139 29.6709 32.9777 29.7361 32.9458 29.7955C32.9167 29.8496 32.8908 29.8993 32.8689 29.944C32.8761 29.9431 32.8834 29.9423 32.8909 29.9414C33.0088 29.9274 33.1656 29.9424 33.3216 29.944C33.8453 29.9491 34.2247 30.3364 34.2247 30.8305C34.2247 31.0967 34.0944 31.3258 33.9311 31.4829C33.7704 31.6375 33.5481 31.7509 33.3216 31.7509H31.8556C31.8286 31.7509 31.797 31.7515 31.7627 31.7522C31.6814 31.7538 31.5851 31.7556 31.4998 31.7503C31.3686 31.7422 31.2177 31.7169 31.0737 31.6355C30.9369 31.5582 30.8227 31.4463 30.7416 31.3113C30.6605 31.1764 30.6151 31.0228 30.6093 30.8653C30.6035 30.7091 30.6368 30.5536 30.7064 30.4139C30.9024 29.9965 31.1049 29.5589 31.3019 29.1311C31.4176 28.88 31.5327 28.6287 31.6478 28.3773L31.6505 28.3713L32.2381 27.1726C32.2599 27.1237 32.2816 27.0692 32.3005 27.0139C32.2804 27.0277 32.2591 27.0423 32.2364 27.0576C32.1513 27.1151 32.0474 27.1815 31.9433 27.2238C31.7189 27.315 31.468 27.3109 31.2467 27.2126C31.0255 27.1143 30.8535 26.9309 30.7662 26.7046C30.679 26.4786 30.6829 26.2265 30.777 26.0032L30.7782 26.0003C30.8302 25.8812 30.9171 25.7606 30.9994 25.6596C31.2854 25.3087 31.6991 25.1249 32.1017 25.0416Z" fill="white"/>
</g>
<defs>
<filter id="filter0_ddii_8036_95750" x="0.857143" y="0.85812" width="47.1429" height="47.1429" filterUnits="userSpaceOnUse" color-interpolation-filters="sRGB">
<feFlood flood-opacity="0" result="BackgroundImageFix"/>
<feColorMatrix in="SourceAlpha" type="matrix" values="0 0 0 0 0 0 0 0 0 0 0 0 0 0 0 0 0 0 127 0" result="hardAlpha"/>
<feOffset dx="2.57143" dy="2.57143"/>
<feGaussianBlur stdDeviation="4.71429"/>
<feComposite in2="hardAlpha" operator="out"/>
<feColorMatrix type="matrix" values="0 0 0 0 0.321569 0 0 0 0 0.435294 0 0 0 0 1 0 0 0 1 0"/>
<feBlend mode="normal" in2="BackgroundImageFix" result="effect1_dropShadow_8036_95750"/>
<feColorMatrix in="SourceAlpha" type="matrix" values="0 0 0 0 0 0 0 0 0 0 0 0 0 0 0 0 0 0 127 0" result="hardAlpha"/>
<feOffset dx="-2.57143" dy="-2.57143"/>
<feGaussianBlur stdDeviation="4.28571"/>
<feComposite in2="hardAlpha" operator="out"/>
<feColorMatrix type="matrix" values="0 0 0 0 1 0 0 0 0 1 0 0 0 0 1 0 0 0 0.4 0"/>
<feBlend mode="normal" in2="effect1_dropShadow_8036_95750" result="effect2_dropShadow_8036_95750"/>
<feBlend mode="normal" in="SourceGraphic" in2="effect2_dropShadow_8036_95750" result="shape"/>
<feColorMatrix in="SourceAlpha" type="matrix" values="0 0 0 0 0 0 0 0 0 0 0 0 0 0 0 0 0 0 127 0" result="hardAlpha"/>
<feOffset dy="-1.28571"/>
<feGaussianBlur stdDeviation="0.985714"/>
<feComposite in2="hardAlpha" operator="arithmetic" k2="-1" k3="1"/>
<feColorMatrix type="matrix" values="0 0 0 0 0 0 0 0 0 0.598039 0 0 0 0 1 0 0 0 0.4 0"/>
<feBlend mode="normal" in2="shape" result="effect3_innerShadow_8036_95750"/>
<feColorMatrix in="SourceAlpha" type="matrix" values="0 0 0 0 0 0 0 0 0 0 0 0 0 0 0 0 0 0 127 0" result="hardAlpha"/>
<feOffset dy="-0.428571"/>
<feGaussianBlur stdDeviation="0.557143"/>
<feComposite in2="hardAlpha" operator="arithmetic" k2="-1" k3="1"/>
<feColorMatrix type="matrix" values="0 0 0 0 1 0 0 0 0 1 0 0 0 0 1 0 0 0 0.6 0"/>
<feBlend mode="normal" in2="effect3_innerShadow_8036_95750" result="effect4_innerShadow_8036_95750"/>
</filter>
</defs>
</svg>
