<svg width="48" height="48" viewBox="0 0 48 48" fill="none" xmlns="http://www.w3.org/2000/svg">
<g filter="url(#filter0_ddii_8036_95752)">
<path d="M24 31.001C24.3978 31.001 24.7794 31.159 25.0607 31.4403C25.342 31.7216 25.5 32.1032 25.5 32.501C25.5 32.8988 25.342 33.2803 25.0607 33.5616C24.7794 33.8429 24.3978 34.001 24 34.001C23.6022 34.001 23.2206 33.8429 22.9393 33.5616C22.658 33.2803 22.5 32.8988 22.5 32.501C22.5 32.1032 22.658 31.7216 22.9393 31.4403C23.2206 31.159 23.6022 31.001 24 31.001ZM31.5 31.001C31.8978 31.001 32.2794 31.159 32.5607 31.4403C32.842 31.7216 33 32.1032 33 32.501C33 32.8988 32.842 33.2803 32.5607 33.5616C32.2794 33.8429 31.8978 34.001 31.5 34.001C31.1022 34.001 30.7206 33.8429 30.4393 33.5616C30.158 33.2803 30 32.8988 30 32.501C30 32.1032 30.158 31.7216 30.4393 31.4403C30.7206 31.159 31.1022 31.001 31.5 31.001ZM16.5 31.001C16.8978 31.001 17.2794 31.159 17.5607 31.4403C17.842 31.7216 18 32.1032 18 32.501C18 32.8988 17.842 33.2803 17.5607 33.5616C17.2794 33.8429 16.8978 34.001 16.5 34.001C16.1022 34.001 15.7206 33.8429 15.4393 33.5616C15.158 33.2803 15 32.8988 15 32.501C15 32.1032 15.158 31.7216 15.4393 31.4403C15.7206 31.159 16.1022 31.001 16.5 31.001V31.001ZM29 19.001C30.3261 19.001 31.5979 19.5278 32.5355 20.4654C33.4732 21.4031 34 22.6749 34 24.001C34 25.3271 33.4732 26.5988 32.5355 27.5365C31.5979 28.4742 30.3261 29.001 29 29.001C27.156 29.001 25.49 27.961 24 25.879C22.51 27.961 20.844 29.001 19 29.001C17.6739 29.001 16.4021 28.4742 15.4645 27.5365C14.5268 26.5988 14 25.3271 14 24.001C14 22.6749 14.5268 21.4031 15.4645 20.4654C16.4021 19.5278 17.6739 19.001 19 19.001C20.844 19.001 22.51 20.041 24 22.123C25.49 20.041 27.156 19.001 29 19.001ZM24 14.001C24.197 14.001 24.392 14.0398 24.574 14.1152C24.756 14.1905 24.9214 14.301 25.0607 14.4403C25.1999 14.5796 25.3104 14.745 25.3858 14.927C25.4612 15.1089 25.5 15.304 25.5 15.501C25.5 15.698 25.4612 15.893 25.3858 16.075C25.3104 16.257 25.1999 16.4223 25.0607 16.5616C24.9214 16.7009 24.756 16.8114 24.574 16.8868C24.392 16.9622 24.197 17.001 24 17.001C23.6022 17.001 23.2206 16.8429 22.9393 16.5616C22.658 16.2803 22.5 15.8988 22.5 15.501C22.5 15.1032 22.658 14.7216 22.9393 14.4403C23.2206 14.159 23.6022 14.001 24 14.001V14.001ZM16.5 14.001C16.697 14.001 16.892 14.0398 17.074 14.1152C17.256 14.1905 17.4214 14.301 17.5607 14.4403C17.6999 14.5796 17.8104 14.745 17.8858 14.927C17.9612 15.1089 18 15.304 18 15.501C18 15.698 17.9612 15.893 17.8858 16.075C17.8104 16.257 17.6999 16.4223 17.5607 16.5616C17.4214 16.7009 17.256 16.8114 17.074 16.8868C16.892 16.9622 16.697 17.001 16.5 17.001C16.1022 17.001 15.7206 16.8429 15.4393 16.5616C15.158 16.2803 15 15.8988 15 15.501C15 15.1032 15.158 14.7216 15.4393 14.4403C15.7206 14.159 16.1022 14.001 16.5 14.001V14.001ZM31.5 14.001C31.697 14.001 31.892 14.0398 32.074 14.1152C32.256 14.1905 32.4214 14.301 32.5607 14.4403C32.6999 14.5796 32.8104 14.745 32.8858 14.927C32.9612 15.1089 33 15.304 33 15.501C33 15.698 32.9612 15.893 32.8858 16.075C32.8104 16.257 32.6999 16.4223 32.5607 16.5616C32.4214 16.7009 32.256 16.8114 32.074 16.8868C31.892 16.9622 31.697 17.001 31.5 17.001C31.1022 17.001 30.7206 16.8429 30.4393 16.5616C30.158 16.2803 30 15.8988 30 15.501C30 15.1032 30.158 14.7216 30.4393 14.4403C30.7206 14.159 31.1022 14.001 31.5 14.001V14.001Z" fill="white"/>
</g>
<defs>
<filter id="filter0_ddii_8036_95752" x="0.857143" y="0.85812" width="47.1429" height="47.1429" filterUnits="userSpaceOnUse" color-interpolation-filters="sRGB">
<feFlood flood-opacity="0" result="BackgroundImageFix"/>
<feColorMatrix in="SourceAlpha" type="matrix" values="0 0 0 0 0 0 0 0 0 0 0 0 0 0 0 0 0 0 127 0" result="hardAlpha"/>
<feOffset dx="2.57143" dy="2.57143"/>
<feGaussianBlur stdDeviation="4.71429"/>
<feComposite in2="hardAlpha" operator="out"/>
<feColorMatrix type="matrix" values="0 0 0 0 0.321569 0 0 0 0 0.435294 0 0 0 0 1 0 0 0 1 0"/>
<feBlend mode="normal" in2="BackgroundImageFix" result="effect1_dropShadow_8036_95752"/>
<feColorMatrix in="SourceAlpha" type="matrix" values="0 0 0 0 0 0 0 0 0 0 0 0 0 0 0 0 0 0 127 0" result="hardAlpha"/>
<feOffset dx="-2.57143" dy="-2.57143"/>
<feGaussianBlur stdDeviation="4.28571"/>
<feComposite in2="hardAlpha" operator="out"/>
<feColorMatrix type="matrix" values="0 0 0 0 1 0 0 0 0 1 0 0 0 0 1 0 0 0 0.4 0"/>
<feBlend mode="normal" in2="effect1_dropShadow_8036_95752" result="effect2_dropShadow_8036_95752"/>
<feBlend mode="normal" in="SourceGraphic" in2="effect2_dropShadow_8036_95752" result="shape"/>
<feColorMatrix in="SourceAlpha" type="matrix" values="0 0 0 0 0 0 0 0 0 0 0 0 0 0 0 0 0 0 127 0" result="hardAlpha"/>
<feOffset dy="-1.28571"/>
<feGaussianBlur stdDeviation="0.985714"/>
<feComposite in2="hardAlpha" operator="arithmetic" k2="-1" k3="1"/>
<feColorMatrix type="matrix" values="0 0 0 0 0 0 0 0 0 0.598039 0 0 0 0 1 0 0 0 0.4 0"/>
<feBlend mode="normal" in2="shape" result="effect3_innerShadow_8036_95752"/>
<feColorMatrix in="SourceAlpha" type="matrix" values="0 0 0 0 0 0 0 0 0 0 0 0 0 0 0 0 0 0 127 0" result="hardAlpha"/>
<feOffset dy="-0.428571"/>
<feGaussianBlur stdDeviation="0.557143"/>
<feComposite in2="hardAlpha" operator="arithmetic" k2="-1" k3="1"/>
<feColorMatrix type="matrix" values="0 0 0 0 1 0 0 0 0 1 0 0 0 0 1 0 0 0 0.6 0"/>
<feBlend mode="normal" in2="effect3_innerShadow_8036_95752" result="effect4_innerShadow_8036_95752"/>
</filter>
</defs>
</svg>
