<?xml version="1.0" standalone="no"?><!DOCTYPE svg PUBLIC "-//W3C//DTD SVG 1.1//EN" "http://www.w3.org/Graphics/SVG/1.1/DTD/svg11.dtd"><svg t="1739167162495" class="icon" viewBox="0 0 1024 1024" version="1.1" xmlns="http://www.w3.org/2000/svg" p-id="6820" xmlns:xlink="http://www.w3.org/1999/xlink" width="200" height="200"><path d="M512.085 725.333a41.856 41.856 0 0 1-42.666-40.874v-344.79a42.667 42.667 0 0 1 85.333 0v344.747a41.856 41.856 0 0 1-42.667 40.917z m-128-85.333a41.856 41.856 0 0 1-42.666-40.875V425.003a42.667 42.667 0 0 1 85.333 0v174.08A41.856 41.856 0 0 1 384.085 640z m-128-42.667a41.856 41.856 0 0 1-42.666-40.874v-88.79a42.667 42.667 0 0 1 85.333 0v88.747a41.856 41.856 0 0 1-42.667 40.917z m384 42.667a41.856 41.856 0 0 1-42.666-40.875V425.003a42.667 42.667 0 0 1 85.333 0v174.08A41.856 41.856 0 0 1 640.085 640z m128-42.667a41.856 41.856 0 0 1-42.666-40.874v-88.79a42.667 42.667 0 0 1 85.333 0v88.747a41.856 41.856 0 0 1-42.667 40.917zM256 213.333a85.333 85.333 0 0 0-85.333 85.334v426.666A85.333 85.333 0 0 0 256 810.667h512a85.333 85.333 0 0 0 85.333-85.334V298.667A85.333 85.333 0 0 0 768 213.333H256M256 128h512a170.667 170.667 0 0 1 170.667 170.667v426.666A170.667 170.667 0 0 1 768 896H256A170.667 170.667 0 0 1 85.333 725.333V298.667A170.667 170.667 0 0 1 256 128z" p-id="6821" fill="#ffffff"></path></svg>