<svg width="48" height="48" viewBox="0 0 48 48" fill="none" xmlns="http://www.w3.org/2000/svg">
<g clip-path="url(#clip0_8036_96204)">
<g filter="url(#filter0_ddii_8036_96204)">
<path fill-rule="evenodd" clip-rule="evenodd" d="M15.352 17.0064C15.352 15.0732 16.8722 13.5 18.7889 13.5C20.7076 13.5 22.2258 15.0935 22.2258 17.0064C22.2258 18.0243 21.788 18.9403 21.1012 19.5809L21.5999 20.8987C21.8447 20.8668 22.0957 20.8511 22.3526 20.8511C25.505 20.8511 28.0639 23.4875 28.0639 26.6856C28.0639 26.8087 28.0601 26.9317 28.0525 27.0547L29.2241 27.2904C29.8214 25.1139 31.7809 23.5092 34.1003 23.5092C36.8907 23.5092 39.1668 25.8117 39.1668 28.6654C39.1668 31.5166 36.8932 33.8401 34.1003 33.8401C31.6131 33.8401 29.5731 32.0275 29.1278 29.6531L27.4592 29.309C26.5211 31.1887 24.6066 32.5018 22.3705 32.5018C20.5448 32.5018 18.9206 31.6336 17.8788 30.2783L15.6694 31.4021C15.4816 33.1336 14.044 34.5 12.2704 34.5C10.3517 34.5 8.8335 32.9065 8.8335 30.9936C8.8335 29.0583 10.3736 27.4872 12.2704 27.4872C13.4767 27.4872 14.5171 28.1197 15.1253 29.0623L16.8601 28.1744C16.7292 27.6955 16.6593 27.1928 16.6593 26.6673C16.6593 24.5473 17.7733 22.7017 19.4379 21.6779L18.9845 20.5065C18.9207 20.5107 18.8559 20.5128 18.7889 20.5128C16.8722 20.5128 15.352 18.9397 15.352 17.0064ZM22.3705 24.5226C20.8237 24.5226 20.2999 25.3333 20.2999 26.6856C20.2999 28.0379 21.1012 28.8486 22.3705 28.8486C23.6398 28.8486 24.4411 28 24.4411 26.6856C24.4411 25.3712 23.7611 24.5226 22.3705 24.5226ZM17.9666 26.6856C17.9666 24.2207 19.9345 22.1893 22.3705 22.1893C24.8066 22.1893 26.7745 24.2207 26.7745 26.6856C26.7745 29.1505 24.8066 31.1819 22.3705 31.1819C19.9345 31.1819 17.9666 29.1505 17.9666 26.6856Z" fill="white"/>
</g>
</g>
<defs>
<filter id="filter0_ddii_8036_96204" x="-3.14286" y="-3.14286" width="55.1429" height="55.1429" filterUnits="userSpaceOnUse" color-interpolation-filters="sRGB">
<feFlood flood-opacity="0" result="BackgroundImageFix"/>
<feColorMatrix in="SourceAlpha" type="matrix" values="0 0 0 0 0 0 0 0 0 0 0 0 0 0 0 0 0 0 127 0" result="hardAlpha"/>
<feOffset dx="2.57143" dy="2.57143"/>
<feGaussianBlur stdDeviation="4.71429"/>
<feComposite in2="hardAlpha" operator="out"/>
<feColorMatrix type="matrix" values="0 0 0 0 1 0 0 0 0 0.517647 0 0 0 0 0.00392157 0 0 0 1 0"/>
<feBlend mode="normal" in2="BackgroundImageFix" result="effect1_dropShadow_8036_96204"/>
<feColorMatrix in="SourceAlpha" type="matrix" values="0 0 0 0 0 0 0 0 0 0 0 0 0 0 0 0 0 0 127 0" result="hardAlpha"/>
<feOffset dx="-2.57143" dy="-2.57143"/>
<feGaussianBlur stdDeviation="4.28571"/>
<feComposite in2="hardAlpha" operator="out"/>
<feColorMatrix type="matrix" values="0 0 0 0 1 0 0 0 0 1 0 0 0 0 1 0 0 0 0.4 0"/>
<feBlend mode="normal" in2="effect1_dropShadow_8036_96204" result="effect2_dropShadow_8036_96204"/>
<feBlend mode="normal" in="SourceGraphic" in2="effect2_dropShadow_8036_96204" result="shape"/>
<feColorMatrix in="SourceAlpha" type="matrix" values="0 0 0 0 0 0 0 0 0 0 0 0 0 0 0 0 0 0 127 0" result="hardAlpha"/>
<feOffset dy="-1.28571"/>
<feGaussianBlur stdDeviation="0.985714"/>
<feComposite in2="hardAlpha" operator="arithmetic" k2="-1" k3="1"/>
<feColorMatrix type="matrix" values="0 0 0 0 0.929412 0 0 0 0 0.713726 0 0 0 0 0.00392157 0 0 0 0.4 0"/>
<feBlend mode="normal" in2="shape" result="effect3_innerShadow_8036_96204"/>
<feColorMatrix in="SourceAlpha" type="matrix" values="0 0 0 0 0 0 0 0 0 0 0 0 0 0 0 0 0 0 127 0" result="hardAlpha"/>
<feOffset dy="-0.428571"/>
<feGaussianBlur stdDeviation="0.557143"/>
<feComposite in2="hardAlpha" operator="arithmetic" k2="-1" k3="1"/>
<feColorMatrix type="matrix" values="0 0 0 0 1 0 0 0 0 1 0 0 0 0 1 0 0 0 0.6 0"/>
<feBlend mode="normal" in2="effect3_innerShadow_8036_96204" result="effect4_innerShadow_8036_96204"/>
</filter>
<clipPath id="clip0_8036_96204">
<rect width="48" height="48" fill="white"/>
</clipPath>
</defs>
</svg>
