<svg width="48" height="48" viewBox="0 0 48 48" fill="none" xmlns="http://www.w3.org/2000/svg">
<g clip-path="url(#clip0_8036_96201)">
<g filter="url(#filter0_ddii_8036_96201)">
<path d="M24.0002 32.0002C21.8784 32.0002 19.8436 31.1573 18.3433 29.657C16.843 28.1567 16.0002 26.1219 16.0002 24.0002C16.0002 21.8784 16.843 19.8436 18.3433 18.3433C19.8436 16.843 21.8784 16.0002 24.0002 16.0002C26.1219 16.0002 28.1567 16.843 29.657 18.3433C31.1573 19.8436 32.0002 21.8784 32.0002 24.0002C32.0002 26.1219 31.1573 28.1567 29.657 29.657C28.1567 31.1573 26.1219 32.0002 24.0002 32.0002ZM22.6668 9.3335H25.3335V13.3335H22.6668V9.3335ZM22.6668 34.6668H25.3335V38.6668H22.6668V34.6668ZM12.6868 14.5722L14.5722 12.6868L17.4002 15.5148L15.5148 17.4002L12.6868 14.5722ZM30.6002 32.4855L32.4855 30.6002L35.3135 33.4282L33.4282 35.3135L30.6002 32.4855ZM33.4282 12.6855L35.3135 14.5722L32.4855 17.4002L30.6002 15.5148L33.4282 12.6868V12.6855ZM15.5148 30.6002L17.4002 32.4855L14.5722 35.3135L12.6868 33.4282L15.5148 30.6002ZM38.6668 22.6668V25.3335H34.6668V22.6668H38.6668ZM13.3335 22.6668V25.3335H9.3335V22.6668H13.3335Z" fill="white"/>
</g>
</g>
<defs>
<filter id="filter0_ddii_8036_96201" x="-3.14286" y="-3.14286" width="55.1429" height="55.1429" filterUnits="userSpaceOnUse" color-interpolation-filters="sRGB">
<feFlood flood-opacity="0" result="BackgroundImageFix"/>
<feColorMatrix in="SourceAlpha" type="matrix" values="0 0 0 0 0 0 0 0 0 0 0 0 0 0 0 0 0 0 127 0" result="hardAlpha"/>
<feOffset dx="2.57143" dy="2.57143"/>
<feGaussianBlur stdDeviation="4.71429"/>
<feComposite in2="hardAlpha" operator="out"/>
<feColorMatrix type="matrix" values="0 0 0 0 1 0 0 0 0 0.517647 0 0 0 0 0.00392157 0 0 0 1 0"/>
<feBlend mode="normal" in2="BackgroundImageFix" result="effect1_dropShadow_8036_96201"/>
<feColorMatrix in="SourceAlpha" type="matrix" values="0 0 0 0 0 0 0 0 0 0 0 0 0 0 0 0 0 0 127 0" result="hardAlpha"/>
<feOffset dx="-2.57143" dy="-2.57143"/>
<feGaussianBlur stdDeviation="4.28571"/>
<feComposite in2="hardAlpha" operator="out"/>
<feColorMatrix type="matrix" values="0 0 0 0 1 0 0 0 0 1 0 0 0 0 1 0 0 0 0.4 0"/>
<feBlend mode="normal" in2="effect1_dropShadow_8036_96201" result="effect2_dropShadow_8036_96201"/>
<feBlend mode="normal" in="SourceGraphic" in2="effect2_dropShadow_8036_96201" result="shape"/>
<feColorMatrix in="SourceAlpha" type="matrix" values="0 0 0 0 0 0 0 0 0 0 0 0 0 0 0 0 0 0 127 0" result="hardAlpha"/>
<feOffset dy="-1.28571"/>
<feGaussianBlur stdDeviation="0.985714"/>
<feComposite in2="hardAlpha" operator="arithmetic" k2="-1" k3="1"/>
<feColorMatrix type="matrix" values="0 0 0 0 0.929412 0 0 0 0 0.713726 0 0 0 0 0.00392157 0 0 0 0.4 0"/>
<feBlend mode="normal" in2="shape" result="effect3_innerShadow_8036_96201"/>
<feColorMatrix in="SourceAlpha" type="matrix" values="0 0 0 0 0 0 0 0 0 0 0 0 0 0 0 0 0 0 127 0" result="hardAlpha"/>
<feOffset dy="-0.428571"/>
<feGaussianBlur stdDeviation="0.557143"/>
<feComposite in2="hardAlpha" operator="arithmetic" k2="-1" k3="1"/>
<feColorMatrix type="matrix" values="0 0 0 0 1 0 0 0 0 1 0 0 0 0 1 0 0 0 0.6 0"/>
<feBlend mode="normal" in2="effect3_innerShadow_8036_96201" result="effect4_innerShadow_8036_96201"/>
</filter>
<clipPath id="clip0_8036_96201">
<rect width="48" height="48" fill="white"/>
</clipPath>
</defs>
</svg>
