<svg width="48" height="48" viewBox="0 0 48 48" fill="none" xmlns="http://www.w3.org/2000/svg">
<g clip-path="url(#clip0_8036_96207)">
<g filter="url(#filter0_ddii_8036_96207)">
<path d="M36.0007 29.0283C36.0007 27.6302 34.8826 26.4702 33.4864 26.4569C32.8533 26.4511 32.2408 26.6815 31.7685 27.1031C31.2962 27.5247 30.998 28.1072 30.9321 28.7369C30.9289 28.77 30.9327 28.8035 30.9432 28.835C30.9538 28.8666 30.9708 28.8956 30.9932 28.9202C31.0157 28.9448 31.043 28.9644 31.0735 28.9778C31.104 28.9912 31.1369 28.998 31.1702 28.9978H32.3721C32.4826 28.9978 32.5778 28.9217 32.6045 28.815V28.8074C32.6487 28.6083 32.761 28.4309 32.922 28.3057C33.083 28.1806 33.2826 28.1155 33.4864 28.1217C33.9626 28.1369 34.334 28.5407 34.334 29.0169V29.9178C34.3335 30.1499 34.241 30.3723 34.0767 30.5362C33.9124 30.7001 33.6899 30.7921 33.4578 30.7921H32.9683C32.9052 30.7921 32.8446 30.8172 32.7999 30.8619C32.7553 30.9065 32.7302 30.9671 32.7302 31.0302V32.2207C32.7302 32.3521 32.8369 32.4588 32.9683 32.4588H33.4597C33.6915 32.4593 33.9135 32.5516 34.0774 32.7154C34.2412 32.8793 34.3335 33.1013 34.334 33.3331V34.7712C34.334 35.2473 33.9626 35.6511 33.4864 35.6664C33.2848 35.6722 33.0873 35.6083 32.9274 35.4855C32.7674 35.3627 32.6547 35.1884 32.6083 34.9921L32.6045 34.9807C32.5936 34.9271 32.5645 34.8788 32.5221 34.8442C32.4798 34.8095 32.4268 34.7904 32.3721 34.7902H31.1683C31.135 34.79 31.1021 34.7969 31.0716 34.8102C31.0411 34.8236 31.0138 34.8432 30.9913 34.8678C30.9689 34.8924 30.9519 34.9214 30.9413 34.953C30.9308 34.9846 30.927 35.018 30.9302 35.0512C30.9956 35.6815 31.2939 36.2648 31.7667 36.6868C32.2395 37.1088 32.8527 37.3393 33.4864 37.333C34.1599 37.321 34.8015 37.0443 35.2725 36.5626C35.7434 36.081 36.0057 35.4333 36.0026 34.7597V33.3331C36.0026 32.7017 35.7669 32.0931 35.3416 31.6264C35.7678 31.1588 36.0036 30.5486 36.0026 29.9159V29.0302L36.0007 29.0283ZM21.6484 10.6665C23.4805 10.6668 25.2393 11.3869 26.5454 12.6717C27.8516 13.9565 28.6007 15.7031 28.6312 17.535V30.3483C28.6062 32.1742 27.8672 33.9176 26.5724 35.2052C25.2777 36.4928 23.5302 37.2222 21.7043 37.2372C19.8783 37.2521 18.1191 36.5514 16.8035 35.2852C15.4878 34.0189 14.7204 32.2878 14.6655 30.4626V17.6531C14.665 15.801 15.4002 14.0245 16.7093 12.7143C18.0184 11.4041 19.7943 10.6675 21.6464 10.6665H21.6484ZM21.6484 12.9294C20.4096 12.9297 19.2205 13.4166 18.3373 14.2852C17.4541 15.1538 16.9474 16.3346 16.9265 17.5731V30.3483C16.9497 31.5787 17.4522 32.7514 18.327 33.617C19.2018 34.4825 20.3798 34.9725 21.6104 34.9827C22.8409 34.9928 24.0269 34.5224 24.9158 33.6715C25.8048 32.8205 26.3266 31.6562 26.3702 30.4264V17.6512C26.3702 16.3987 25.8728 15.1975 24.9873 14.3117C24.1019 13.4259 22.9008 12.928 21.6484 12.9274V12.9294Z" fill="white" stroke="white" stroke-width="0.476188"/>
</g>
</g>
<defs>
<filter id="filter0_ddii_8036_96207" x="-3.14286" y="-3.14286" width="55.1429" height="55.1429" filterUnits="userSpaceOnUse" color-interpolation-filters="sRGB">
<feFlood flood-opacity="0" result="BackgroundImageFix"/>
<feColorMatrix in="SourceAlpha" type="matrix" values="0 0 0 0 0 0 0 0 0 0 0 0 0 0 0 0 0 0 127 0" result="hardAlpha"/>
<feOffset dx="2.57143" dy="2.57143"/>
<feGaussianBlur stdDeviation="4.71429"/>
<feComposite in2="hardAlpha" operator="out"/>
<feColorMatrix type="matrix" values="0 0 0 0 1 0 0 0 0 0.517647 0 0 0 0 0.00392157 0 0 0 1 0"/>
<feBlend mode="normal" in2="BackgroundImageFix" result="effect1_dropShadow_8036_96207"/>
<feColorMatrix in="SourceAlpha" type="matrix" values="0 0 0 0 0 0 0 0 0 0 0 0 0 0 0 0 0 0 127 0" result="hardAlpha"/>
<feOffset dx="-2.57143" dy="-2.57143"/>
<feGaussianBlur stdDeviation="4.28571"/>
<feComposite in2="hardAlpha" operator="out"/>
<feColorMatrix type="matrix" values="0 0 0 0 1 0 0 0 0 1 0 0 0 0 1 0 0 0 0.4 0"/>
<feBlend mode="normal" in2="effect1_dropShadow_8036_96207" result="effect2_dropShadow_8036_96207"/>
<feBlend mode="normal" in="SourceGraphic" in2="effect2_dropShadow_8036_96207" result="shape"/>
<feColorMatrix in="SourceAlpha" type="matrix" values="0 0 0 0 0 0 0 0 0 0 0 0 0 0 0 0 0 0 127 0" result="hardAlpha"/>
<feOffset dy="-1.28571"/>
<feGaussianBlur stdDeviation="0.985714"/>
<feComposite in2="hardAlpha" operator="arithmetic" k2="-1" k3="1"/>
<feColorMatrix type="matrix" values="0 0 0 0 0.929412 0 0 0 0 0.713726 0 0 0 0 0.00392157 0 0 0 0.4 0"/>
<feBlend mode="normal" in2="shape" result="effect3_innerShadow_8036_96207"/>
<feColorMatrix in="SourceAlpha" type="matrix" values="0 0 0 0 0 0 0 0 0 0 0 0 0 0 0 0 0 0 127 0" result="hardAlpha"/>
<feOffset dy="-0.428571"/>
<feGaussianBlur stdDeviation="0.557143"/>
<feComposite in2="hardAlpha" operator="arithmetic" k2="-1" k3="1"/>
<feColorMatrix type="matrix" values="0 0 0 0 1 0 0 0 0 1 0 0 0 0 1 0 0 0 0.6 0"/>
<feBlend mode="normal" in2="effect3_innerShadow_8036_96207" result="effect4_innerShadow_8036_96207"/>
</filter>
<clipPath id="clip0_8036_96207">
<rect width="48" height="48" fill="white"/>
</clipPath>
</defs>
</svg>
