<svg width="48" height="48" viewBox="0 0 48 48" fill="none" xmlns="http://www.w3.org/2000/svg">
<g clip-path="url(#clip0_8036_96205)">
<g filter="url(#filter0_ddii_8036_96205)">
<path d="M11.8742 20.063C11.8665 20.4345 11.93 20.8039 12.0609 21.1495C12.1918 21.4951 12.3875 21.8099 12.6365 22.0755C12.8855 22.3411 13.1828 22.5521 13.511 22.6962C13.8392 22.8402 14.1916 22.9145 14.5476 22.9145C14.9036 22.9145 15.256 22.8402 15.5842 22.6962C15.9124 22.5521 16.2097 22.3411 16.4587 22.0755C16.7077 21.8099 16.9034 21.4951 17.0343 21.1495C17.1652 20.8039 17.2287 20.4345 17.221 20.063C17.4647 18.2467 16.0059 17.2098 14.547 17.2098C13.8317 17.2234 13.1502 17.5303 12.65 18.0643C12.1499 18.5982 11.8712 19.3162 11.8742 20.063ZM37.2895 13.4238C36.8695 13.4026 36.4581 13.5524 36.142 13.8417C35.8258 14.131 35.6296 14.537 35.5947 14.9744C35.8385 15.752 36.5665 16.5297 37.2973 16.5297C37.7183 16.5486 38.13 16.3976 38.4471 16.108C38.7642 15.8183 38.9622 15.4124 39 14.9744C38.9608 14.5356 38.7615 14.1293 38.4435 13.8395C38.1254 13.5498 37.7129 13.3986 37.2911 13.4173L37.2895 13.4238ZM29.87 14.7069C30.4133 14.7196 30.9479 14.5631 31.4055 14.2573C31.8632 13.9515 32.2232 13.5103 32.4396 12.99C32.656 12.4697 32.7189 11.8939 32.6204 11.3361C32.5219 10.7783 32.2663 10.2638 31.8864 9.8582C31.5065 9.45265 31.0195 9.17445 30.4874 9.05913C29.9554 8.9438 29.4025 8.99657 28.8993 9.21071C28.3961 9.42485 27.9654 9.79063 27.6623 10.2614C27.3591 10.7321 27.1973 11.2865 27.1973 11.8537C26.9535 13.4025 28.169 14.7004 29.87 14.7004V14.7069ZM18.733 15.4846C19.9481 15.4846 21.1637 14.4477 21.1637 13.1498C21.1637 11.852 20.1906 10.809 18.733 10.809C17.5179 10.809 16.3024 11.8494 16.3024 13.1438C16.3024 14.4381 17.2741 15.4785 18.733 15.4785V15.4846ZM30.7791 22.181C30.7791 23.4854 31.7521 24.5157 33.2097 24.5157C34.4248 24.5157 35.6404 23.4754 35.6404 22.181C35.6404 20.8866 34.6686 19.8463 33.2097 19.8463C32.0004 19.8428 30.7791 20.8767 30.7791 22.181ZM24.745 21.9673C25.0043 21.9681 25.2612 21.9146 25.5003 21.81C25.7395 21.7054 25.9561 21.5518 26.1374 21.3583C26.3187 21.1648 26.461 20.9353 26.5559 20.6834C26.6508 20.4316 26.6963 20.1624 26.6898 19.8918C26.6609 19.359 26.4479 18.8552 26.0903 18.4739C25.7327 18.0926 25.2547 17.8595 24.745 17.818C24.4859 17.8172 24.2292 17.8706 23.9901 17.975C23.751 18.0795 23.5345 18.2329 23.3532 18.4263C23.1719 18.6196 23.0295 18.8489 22.9346 19.1006C22.8396 19.3523 22.794 19.6213 22.8003 19.8918C22.8296 20.4243 23.0428 20.9276 23.4004 21.3087C23.7579 21.6897 24.2356 21.9226 24.745 21.9643V21.9673ZM36.7396 26.4057C36.5131 26.3696 36.2817 26.4188 36.0868 26.5444C30.8542 30.4458 26.1429 27.6598 26.0133 27.5228C16.2023 21.1073 9.66368 27.9338 9.66368 27.9338C9.58359 28.0009 9.51869 28.0857 9.4736 28.1821C9.42852 28.2784 9.40437 28.384 9.40288 28.4912C9.43433 28.7001 9.52519 28.8943 9.66368 29.0487C9.92613 29.4661 10.4448 29.3274 10.8414 29.0487C10.9726 28.77 16.3352 23.3419 24.9697 28.91C26.5604 29.8615 28.3693 30.3428 30.2023 30.3023C32.6926 30.2772 35.1147 29.4498 37.1375 27.9333C37.2859 27.7673 37.3788 27.5555 37.4022 27.3297C37.4255 27.1039 37.3781 26.8763 37.267 26.681C37.2055 26.5957 37.126 26.5262 37.0347 26.4779C36.9435 26.4295 36.8428 26.4037 36.7405 26.4023L36.7396 26.4057ZM10.9432 13.4043C11.3977 13.4096 11.8399 13.2502 12.1946 12.9534C12.5492 12.6565 12.7942 12.2405 12.888 11.7762C12.9817 11.3119 12.9184 10.828 12.7087 10.407C12.499 9.98604 12.156 9.65392 11.7381 9.46728C11.3202 9.28064 10.8532 9.251 10.4167 9.38343C9.98016 9.51586 9.60114 9.80215 9.34416 10.1935C9.08718 10.5849 8.96814 11.0572 9.00732 11.53C9.04649 12.0027 9.24147 12.4466 9.55902 12.7861C9.73954 12.979 9.95469 13.1329 10.1922 13.2389C10.4297 13.345 10.6849 13.4012 10.9432 13.4043Z" fill="white"/>
<path d="M34.5122 38.9996C33.9036 38.9996 33.3626 38.8654 32.8893 38.5969C32.4227 38.3284 32.0542 37.9413 31.7837 37.4356C31.5132 36.9298 31.3779 36.3148 31.3779 35.5905C31.3779 34.8663 31.5132 34.2513 31.7837 33.7455C32.0542 33.2398 32.4227 32.8527 32.8893 32.5842C33.3626 32.3157 33.9036 32.1815 34.5122 32.1815C35.1141 32.1815 35.6483 32.3157 36.1149 32.5842C36.5882 32.8527 36.9601 33.2398 37.2306 33.7455C37.5011 34.2513 37.6364 34.8663 37.6364 35.5905C37.6364 36.3148 37.5011 36.9298 37.2306 37.4356C36.9601 37.9413 36.5882 38.3284 36.1149 38.5969C35.6483 38.8654 35.1141 38.9996 34.5122 38.9996ZM34.5122 37.4824C34.7286 37.4824 34.918 37.42 35.0802 37.2951C35.2493 37.1702 35.3812 36.9704 35.4758 36.6957C35.5705 36.4147 35.6178 36.0463 35.6178 35.5905C35.6178 35.1285 35.5705 34.7601 35.4758 34.4854C35.3812 34.2107 35.2493 34.0109 35.0802 33.886C34.918 33.7611 34.7286 33.6987 34.5122 33.6987C34.2958 33.6987 34.1031 33.7611 33.934 33.886C33.7718 34.0109 33.6399 34.2107 33.5385 34.4854C33.4438 34.7601 33.3965 35.1285 33.3965 35.5905C33.3965 36.0463 33.4438 36.4147 33.5385 36.6957C33.6399 36.9704 33.7718 37.1702 33.934 37.2951C34.1031 37.42 34.2958 37.4824 34.5122 37.4824Z" fill="white"/>
<path d="M28.3019 38.8685V32.9775L29.1641 33.7455H26.9832V32.3126H30.3103V38.8685H28.3019Z" fill="white"/>
<path d="M17.7433 38.8685V32.3126H19.3967L22.3382 36.7706H21.4659L24.3263 32.3126H25.9797L26 38.8685H24.1539L24.1336 34.9069H24.4481L22.3078 38.2223H21.4152L19.2141 34.9069H19.5995V38.8685H17.7433Z" fill="white"/>
<path d="M10.3636 38.8685V32.3126H13.6095C14.2587 32.3126 14.8166 32.4094 15.2832 32.6029C15.7565 32.7965 16.1217 33.0774 16.3786 33.4458C16.6356 33.808 16.7641 34.2388 16.7641 34.7383C16.7641 35.2315 16.6356 35.6592 16.3786 36.0214C16.1217 36.3835 15.7565 36.6645 15.2832 36.8643C14.8166 37.0578 14.2587 37.1546 13.6095 37.1546H11.4794L12.372 36.3492V38.8685H10.3636ZM12.372 36.5458L11.4794 35.6936H13.4878C13.907 35.6936 14.2181 35.6093 14.421 35.4407C14.6306 35.2721 14.7354 35.038 14.7354 34.7383C14.7354 34.4323 14.6306 34.1951 14.421 34.0265C14.2181 33.8579 13.907 33.7736 13.4878 33.7736H11.4794L12.372 32.9214V36.5458Z" fill="white"/>
</g>
</g>
<defs>
<filter id="filter0_ddii_8036_96205" x="-3.14286" y="-3.14286" width="55.1429" height="55.1429" filterUnits="userSpaceOnUse" color-interpolation-filters="sRGB">
<feFlood flood-opacity="0" result="BackgroundImageFix"/>
<feColorMatrix in="SourceAlpha" type="matrix" values="0 0 0 0 0 0 0 0 0 0 0 0 0 0 0 0 0 0 127 0" result="hardAlpha"/>
<feOffset dx="2.57143" dy="2.57143"/>
<feGaussianBlur stdDeviation="4.71429"/>
<feComposite in2="hardAlpha" operator="out"/>
<feColorMatrix type="matrix" values="0 0 0 0 1 0 0 0 0 0.517647 0 0 0 0 0.00392157 0 0 0 1 0"/>
<feBlend mode="normal" in2="BackgroundImageFix" result="effect1_dropShadow_8036_96205"/>
<feColorMatrix in="SourceAlpha" type="matrix" values="0 0 0 0 0 0 0 0 0 0 0 0 0 0 0 0 0 0 127 0" result="hardAlpha"/>
<feOffset dx="-2.57143" dy="-2.57143"/>
<feGaussianBlur stdDeviation="4.28571"/>
<feComposite in2="hardAlpha" operator="out"/>
<feColorMatrix type="matrix" values="0 0 0 0 1 0 0 0 0 1 0 0 0 0 1 0 0 0 0.4 0"/>
<feBlend mode="normal" in2="effect1_dropShadow_8036_96205" result="effect2_dropShadow_8036_96205"/>
<feBlend mode="normal" in="SourceGraphic" in2="effect2_dropShadow_8036_96205" result="shape"/>
<feColorMatrix in="SourceAlpha" type="matrix" values="0 0 0 0 0 0 0 0 0 0 0 0 0 0 0 0 0 0 127 0" result="hardAlpha"/>
<feOffset dy="-1.28571"/>
<feGaussianBlur stdDeviation="0.985714"/>
<feComposite in2="hardAlpha" operator="arithmetic" k2="-1" k3="1"/>
<feColorMatrix type="matrix" values="0 0 0 0 0.929412 0 0 0 0 0.713726 0 0 0 0 0.00392157 0 0 0 0.4 0"/>
<feBlend mode="normal" in2="shape" result="effect3_innerShadow_8036_96205"/>
<feColorMatrix in="SourceAlpha" type="matrix" values="0 0 0 0 0 0 0 0 0 0 0 0 0 0 0 0 0 0 127 0" result="hardAlpha"/>
<feOffset dy="-0.428571"/>
<feGaussianBlur stdDeviation="0.557143"/>
<feComposite in2="hardAlpha" operator="arithmetic" k2="-1" k3="1"/>
<feColorMatrix type="matrix" values="0 0 0 0 1 0 0 0 0 1 0 0 0 0 1 0 0 0 0.6 0"/>
<feBlend mode="normal" in2="effect3_innerShadow_8036_96205" result="effect4_innerShadow_8036_96205"/>
</filter>
<clipPath id="clip0_8036_96205">
<rect width="48" height="48" fill="white"/>
</clipPath>
</defs>
</svg>
