<svg width="48" height="48" viewBox="0 0 48 48" fill="none" xmlns="http://www.w3.org/2000/svg">
<g clip-path="url(#clip0_8036_96202)">
<g filter="url(#filter0_ddii_8036_96202)">
<path d="M23.9998 33.3332C24.5303 33.3332 25.039 33.5439 25.4141 33.919C25.7891 34.294 25.9998 34.8027 25.9998 35.3332C25.9998 35.8636 25.7891 36.3723 25.4141 36.7474C25.039 37.1225 24.5303 37.3332 23.9998 37.3332C23.4694 37.3332 22.9607 37.1225 22.5856 36.7474C22.2106 36.3723 21.9998 35.8636 21.9998 35.3332C21.9998 34.8027 22.2106 34.294 22.5856 33.919C22.9607 33.5439 23.4694 33.3332 23.9998 33.3332ZM33.9998 33.3332C34.5303 33.3332 35.039 33.5439 35.4141 33.919C35.7891 34.294 35.9998 34.8027 35.9998 35.3332C35.9998 35.8636 35.7891 36.3723 35.4141 36.7474C35.039 37.1225 34.5303 37.3332 33.9998 37.3332C33.4694 37.3332 32.9607 37.1225 32.5856 36.7474C32.2106 36.3723 31.9998 35.8636 31.9998 35.3332C31.9998 34.8027 32.2106 34.294 32.5856 33.919C32.9607 33.5439 33.4694 33.3332 33.9998 33.3332ZM13.9998 33.3332C14.5303 33.3332 15.039 33.5439 15.4141 33.919C15.7891 34.294 15.9998 34.8027 15.9998 35.3332C15.9998 35.8636 15.7891 36.3723 15.4141 36.7474C15.039 37.1225 14.5303 37.3332 13.9998 37.3332C13.4694 37.3332 12.9607 37.1225 12.5856 36.7474C12.2106 36.3723 11.9998 35.8636 11.9998 35.3332C11.9998 34.8027 12.2106 34.294 12.5856 33.919C12.9607 33.5439 13.4694 33.3332 13.9998 33.3332V33.3332ZM30.6665 17.3332C32.4346 17.3332 34.1303 18.0355 35.3805 19.2858C36.6308 20.536 37.3332 22.2317 37.3332 23.9998C37.3332 25.7679 36.6308 27.4636 35.3805 28.7139C34.1303 29.9641 32.4346 30.6665 30.6665 30.6665C28.2078 30.6665 25.9865 29.2798 23.9998 26.5038C22.0132 29.2798 19.7918 30.6665 17.3332 30.6665C15.5651 30.6665 13.8694 29.9641 12.6191 28.7139C11.3689 27.4636 10.6665 25.7679 10.6665 23.9998C10.6665 22.2317 11.3689 20.536 12.6191 19.2858C13.8694 18.0355 15.5651 17.3332 17.3332 17.3332C19.7918 17.3332 22.0132 18.7198 23.9998 21.4958C25.9865 18.7198 28.2078 17.3332 30.6665 17.3332ZM23.9998 10.6665C24.2625 10.6665 24.5226 10.7182 24.7652 10.8187C25.0079 10.9193 25.2283 11.0666 25.4141 11.2523C25.5998 11.438 25.7471 11.6585 25.8476 11.9011C25.9481 12.1438 25.9998 12.4039 25.9998 12.6665C25.9998 12.9291 25.9481 13.1892 25.8476 13.4319C25.7471 13.6745 25.5998 13.895 25.4141 14.0807C25.2283 14.2664 25.0079 14.4138 24.7652 14.5143C24.5226 14.6148 24.2625 14.6665 23.9998 14.6665C23.4694 14.6665 22.9607 14.4558 22.5856 14.0807C22.2106 13.7056 21.9998 13.1969 21.9998 12.6665C21.9998 12.1361 22.2106 11.6274 22.5856 11.2523C22.9607 10.8772 23.4694 10.6665 23.9998 10.6665V10.6665ZM13.9998 10.6665C14.2625 10.6665 14.5226 10.7182 14.7652 10.8187C15.0079 10.9193 15.2283 11.0666 15.4141 11.2523C15.5998 11.438 15.7471 11.6585 15.8476 11.9011C15.9481 12.1438 15.9998 12.4039 15.9998 12.6665C15.9998 12.9291 15.9481 13.1892 15.8476 13.4319C15.7471 13.6745 15.5998 13.895 15.4141 14.0807C15.2283 14.2664 15.0079 14.4138 14.7652 14.5143C14.5226 14.6148 14.2625 14.6665 13.9998 14.6665C13.4694 14.6665 12.9607 14.4558 12.5856 14.0807C12.2106 13.7056 11.9998 13.1969 11.9998 12.6665C11.9998 12.1361 12.2106 11.6274 12.5856 11.2523C12.9607 10.8772 13.4694 10.6665 13.9998 10.6665V10.6665ZM33.9998 10.6665C34.2625 10.6665 34.5226 10.7182 34.7652 10.8187C35.0079 10.9193 35.2283 11.0666 35.4141 11.2523C35.5998 11.438 35.7471 11.6585 35.8476 11.9011C35.9481 12.1438 35.9998 12.4039 35.9998 12.6665C35.9998 12.9291 35.9481 13.1892 35.8476 13.4319C35.7471 13.6745 35.5998 13.895 35.4141 14.0807C35.2283 14.2664 35.0079 14.4138 34.7652 14.5143C34.5226 14.6148 34.2625 14.6665 33.9998 14.6665C33.4694 14.6665 32.9607 14.4558 32.5856 14.0807C32.2106 13.7056 31.9998 13.1969 31.9998 12.6665C31.9998 12.1361 32.2106 11.6274 32.5856 11.2523C32.9607 10.8772 33.4694 10.6665 33.9998 10.6665V10.6665Z" fill="white"/>
</g>
</g>
<defs>
<filter id="filter0_ddii_8036_96202" x="-3.14286" y="-3.14286" width="55.1429" height="55.1429" filterUnits="userSpaceOnUse" color-interpolation-filters="sRGB">
<feFlood flood-opacity="0" result="BackgroundImageFix"/>
<feColorMatrix in="SourceAlpha" type="matrix" values="0 0 0 0 0 0 0 0 0 0 0 0 0 0 0 0 0 0 127 0" result="hardAlpha"/>
<feOffset dx="2.57143" dy="2.57143"/>
<feGaussianBlur stdDeviation="4.71429"/>
<feComposite in2="hardAlpha" operator="out"/>
<feColorMatrix type="matrix" values="0 0 0 0 1 0 0 0 0 0.517647 0 0 0 0 0.00392157 0 0 0 1 0"/>
<feBlend mode="normal" in2="BackgroundImageFix" result="effect1_dropShadow_8036_96202"/>
<feColorMatrix in="SourceAlpha" type="matrix" values="0 0 0 0 0 0 0 0 0 0 0 0 0 0 0 0 0 0 127 0" result="hardAlpha"/>
<feOffset dx="-2.57143" dy="-2.57143"/>
<feGaussianBlur stdDeviation="4.28571"/>
<feComposite in2="hardAlpha" operator="out"/>
<feColorMatrix type="matrix" values="0 0 0 0 1 0 0 0 0 1 0 0 0 0 1 0 0 0 0.4 0"/>
<feBlend mode="normal" in2="effect1_dropShadow_8036_96202" result="effect2_dropShadow_8036_96202"/>
<feBlend mode="normal" in="SourceGraphic" in2="effect2_dropShadow_8036_96202" result="shape"/>
<feColorMatrix in="SourceAlpha" type="matrix" values="0 0 0 0 0 0 0 0 0 0 0 0 0 0 0 0 0 0 127 0" result="hardAlpha"/>
<feOffset dy="-1.28571"/>
<feGaussianBlur stdDeviation="0.985714"/>
<feComposite in2="hardAlpha" operator="arithmetic" k2="-1" k3="1"/>
<feColorMatrix type="matrix" values="0 0 0 0 0.929412 0 0 0 0 0.713726 0 0 0 0 0.00392157 0 0 0 0.4 0"/>
<feBlend mode="normal" in2="shape" result="effect3_innerShadow_8036_96202"/>
<feColorMatrix in="SourceAlpha" type="matrix" values="0 0 0 0 0 0 0 0 0 0 0 0 0 0 0 0 0 0 127 0" result="hardAlpha"/>
<feOffset dy="-0.428571"/>
<feGaussianBlur stdDeviation="0.557143"/>
<feComposite in2="hardAlpha" operator="arithmetic" k2="-1" k3="1"/>
<feColorMatrix type="matrix" values="0 0 0 0 1 0 0 0 0 1 0 0 0 0 1 0 0 0 0.6 0"/>
<feBlend mode="normal" in2="effect3_innerShadow_8036_96202" result="effect4_innerShadow_8036_96202"/>
</filter>
<clipPath id="clip0_8036_96202">
<rect width="48" height="48" fill="white"/>
</clipPath>
</defs>
</svg>
